<svg xmlns="http://www.w3.org/2000/svg" width="143.593" height="185.823" viewBox="0 0 143.593 185.823">
  <g id="Group_227" data-name="Group 227" transform="translate(-725.636 -1959.823)">
    <g id="Group_412" data-name="Group 412" transform="translate(725.636 1959.823)">
      <g id="Group_360" data-name="Group 360" transform="translate(93.437 0)">
        <g id="Group_322" data-name="Group 322" transform="translate(3.88 48.63)">
          <path id="Path_499" data-name="Path 499" d="M237.8,145.009a19.275,19.275,0,0,0,3.679-8.577,10.227,10.227,0,0,0-3.05-9.055l-2.305,15.692Z" transform="translate(-236.128 -127.377)" fill="#003b5e"/>
        </g>
        <g id="Group_323" data-name="Group 323" transform="translate(41.286 169.88)">
          <path id="Path_500" data-name="Path 500" d="M255.7,174.242c1.389,3.547,5.927,13.283.81,14.768-5.922,1.715-5.922-13.87-5.922-13.87Z" transform="translate(-250.586 -174.242)" fill="#1e2020"/>
        </g>
        <g id="Group_324" data-name="Group 324" transform="translate(26.601 116.555)">
          <path id="Path_501" data-name="Path 501" d="M257.373,154.254c.158,4.2,0,6.7,2.339,11.531s2.8,9.663,2.8,17.767a178.3,178.3,0,0,0,1.4,20.253c.316,1.873,3.433,10.595,0,11.063s-4.2-5.454-4.673-9.813-4.031-14.336-6.235-21.5c-1.953-6.375-3.234-13.826-3.112-16.056.166-3.027-4.983-13.865-4.983-13.865Z" transform="translate(-244.91 -153.631)" fill="#fdb171"/>
        </g>
        <g id="Group_325" data-name="Group 325" transform="translate(21.628 20.178)">
          <path id="Path_502" data-name="Path 502" d="M249.28,117.922c.626,1.576,5.759,2.634,4.776,7.909s-9.449.6-9.449.6l-1.62-7.995,2.763-2.054Z" transform="translate(-242.988 -116.38)" fill="#713c1f"/>
        </g>
        <g id="Group_326" data-name="Group 326" transform="translate(10.596 170.405)">
          <path id="Path_503" data-name="Path 503" d="M245.57,174.445s3.454,16.721-4.228,15.337c-5.312-.962-.9-15.337-.9-15.337Z" transform="translate(-238.724 -174.445)" fill="#1e2020"/>
        </g>
        <g id="Group_327" data-name="Group 327" transform="translate(13.292 20.718)">
          <path id="Path_504" data-name="Path 504" d="M241.23,116.589a8.714,8.714,0,0,1,.931,6.551c-.546,1.552-3.5,3.35-1.948,5.762s10.652,0,10.652,0Z" transform="translate(-239.766 -116.589)" fill="#713c1f"/>
        </g>
        <g id="Group_328" data-name="Group 328" transform="translate(7.119 114.687)">
          <path id="Path_505" data-name="Path 505" d="M248.443,156.335a19.418,19.418,0,0,0-.786,5.609c.166,1.4,2.184,6.546,1.878,11.223s-1.459,18.23-1.9,23.684-.5,8.1,0,11.221-.442,9.971-2.931,9.971-2.962-5.454-2.023-9.971.036-9.042-.45-12-3.42-21.8-3.607-24.307c-.313-4.212,1.345-7.638,1.063-9.821s-2.308-9.035-2.308-9.035Z" transform="translate(-237.38 -152.909)" fill="#fdb171"/>
        </g>
        <g id="Group_329" data-name="Group 329" transform="translate(7.634 18.957)">
          <path id="Path_506" data-name="Path 506" d="M246.006,120.086c.877,3.506,2.047,8.189-.991,8.419s-7.125,1.162-7.423,6.543,4.424,15.4,4,22.18,0,8.442,0,8.442l22.827,9.581s-2.572-11.692-1.643-17.065a88.485,88.485,0,0,1,3.275-11.922s-.158,5.689,0,9.275,5.428,9.521,5.428,9.521l2.049-11.392s-.026-2.484,0-7.793c.041-8.139-1.089-16.043-6.075-18.23s-12.08-1.4-12.274-2.336-1.278-9.4-1.278-9.4Z" transform="translate(-237.579 -115.908)" fill="#fdb171"/>
        </g>
        <g id="Group_330" data-name="Group 330" transform="translate(5.485 69.423)">
          <path id="Path_507" data-name="Path 507" d="M264.366,136.332a86.707,86.707,0,0,1,5.332,25.8c.629,10.126,1.407,24.157,1.407,24.157s-24,1.244-33.342-3.12c0,0-.944-13.868-.944-21.968,0-4.7-.836-19.482,3.242-25.787Z" transform="translate(-236.749 -135.414)" fill="#fe9838"/>
        </g>
        <g id="Group_331" data-name="Group 331" transform="translate(6.371 70.264)">
          <path id="Path_508" data-name="Path 508" d="M269.154,161.616a86.707,86.707,0,0,0-5.332-25.8l-2.01-.078a86.643,86.643,0,0,1,4.308,22.845c.629,10.121,1.4,24.152,1.4,24.152s-19.808,1.017-30.434-2.08c.075,1.234.129,2,.129,2,9.345,4.365,33.342,3.12,33.342,3.12S269.783,171.743,269.154,161.616Z" transform="translate(-237.091 -135.739)" fill="#d35500"/>
        </g>
        <g id="Group_339" data-name="Group 339" transform="translate(7.394)">
          <g id="Group_332" data-name="Group 332" transform="translate(0 0.393)">
            <path id="Path_509" data-name="Path 509" d="M239.348,123.418s-2.68-3.009-1.609-6.357c.833-2.595,2.517-7.788,7.04-8.31C250.261,108.128,239.348,123.418,239.348,123.418Z" transform="translate(-237.486 -108.733)" fill="#713c1f"/>
          </g>
          <g id="Group_333" data-name="Group 333" transform="translate(1.862 15.33)">
            <path id="Path_510" data-name="Path 510" d="M238.376,115.235a1.372,1.372,0,0,0,.561,1.876l1.382.745a1.367,1.367,0,0,0,1.868-.559h0a1.388,1.388,0,0,0-.551-1.886l-1.384-.745a1.4,1.4,0,0,0-1.876.569Z" transform="translate(-238.206 -114.506)" fill="#c90e00"/>
          </g>
          <g id="Group_334" data-name="Group 334" transform="translate(1.378)">
            <path id="Path_511" data-name="Path 511" d="M238.019,117.711c.722-4.486,2.947-9.13,9.208-9.13a10.261,10.261,0,0,1,10.326,9.141,19.317,19.317,0,0,1-.7,6.678c-.243.737-3.278,2.706-3.873,4.97S238.019,117.711,238.019,117.711Z" transform="translate(-238.019 -108.581)" fill="#713c1f"/>
          </g>
          <g id="Group_335" data-name="Group 335" transform="translate(7.675 17.303)">
            <path id="Path_512" data-name="Path 512" d="M249.578,115.3a28.225,28.225,0,0,0,.2,5.022c-.468.3-1.278.913-1.871,1.255a18.677,18.677,0,0,1-7.451,2.525s.424-.662,1.084-1.627l7.987-7.205A.13.13,0,0,0,249.578,115.3Z" transform="translate(-240.453 -115.269)" fill="#f09f5b"/>
          </g>
          <g id="Group_336" data-name="Group 336" transform="translate(0.932 5.5)">
            <path id="Path_513" data-name="Path 513" d="M253.935,122.714c-.45,1.291-.68,3.048-2.786,4.724-2.1,1.695-5.475,3.9-6.559,3.9s-1.907.305-3.542-2.424-2.846-4-2.957-6.789-1.2-8.478,2.266-10.59c2.559-1.568,6.745-.828,8.947,1.426,2.225,2.269,2.272,3.112,3.053,6.691,0,0,1.845-2.476,2.585-2.577s1.364.365.942,1.894-.786,1.278-.838,2.052c-.052.789-.137,1.56-.525,1.842C254.031,123.208,253.935,122.714,253.935,122.714Z" transform="translate(-237.847 -110.707)" fill="#fdb171"/>
          </g>
          <g id="Group_337" data-name="Group 337" transform="translate(4.661 3.449)">
            <path id="Path_514" data-name="Path 514" d="M239.288,112.214s4.484,8.028,10.745,9.33l2.432-7.322-5.783-4.308Z" transform="translate(-239.288 -109.914)" fill="#713c1f"/>
          </g>
          <g id="Group_338" data-name="Group 338" transform="translate(0.596 2.68)">
            <path id="Path_515" data-name="Path 515" d="M243.006,112.97s-2.639,4.476-5.257,5.824c0,0-.561-6.253,3.03-9.177Z" transform="translate(-237.717 -109.617)" fill="#713c1f"/>
          </g>
        </g>
        <g id="Group_340" data-name="Group 340" transform="translate(5.556 28.977)">
          <path id="Path_516" data-name="Path 516" d="M267.132,140.662s-4.3-3.18-4.6-7.384C262.123,127.5,264,120.1,264,120.1l-3.7-.316s-3.27,7.148-11.174,7.837c-4.595.406-4.491-5.055-4.491-5.055s-1.255.285-1.568.383a8.942,8.942,0,0,0-1.242.6s-3.666,8.1-4.228,10.028c-.745,2.572-2.057,6.662,1.956,10.758a37.211,37.211,0,0,1,.471,15.9s11.94,4.745,24.3.918A43.682,43.682,0,0,1,267.132,140.662Z" transform="translate(-236.776 -119.781)" fill="#004a6e"/>
        </g>
        <g id="Group_342" data-name="Group 342" transform="translate(30.286 29.43)">
          <g id="Group_341" data-name="Group 341">
            <path id="Path_517" data-name="Path 517" d="M259.629,139.451c.041-8.139-1.089-16.043-6.075-18.23a19.116,19.116,0,0,0-4.763-1.265c-.238.986-2.794,7.756-2.419,13.1.3,4.2,5.588,7.327,5.588,7.327-.849,2.184.191-.546.191-.546s-.158,5.689,0,9.275,5.428,9.521,5.428,9.521l2.049-11.392S259.6,144.76,259.629,139.451Z" transform="translate(-246.334 -119.956)" fill="#004a6e"/>
          </g>
        </g>
        <g id="Group_343" data-name="Group 343" transform="translate(30.946 34.997)">
          <path id="Path_518" data-name="Path 518" d="M250.826,138.984s-6.378-4.344-3.482-16.876c0,0-2.308,10.256,4.212,14.861Z" transform="translate(-246.59 -122.108)" fill="#003b5e"/>
        </g>
        <g id="Group_345" data-name="Group 345" transform="translate(7.642 32.767)">
          <g id="Group_344" data-name="Group 344">
            <path id="Path_519" data-name="Path 519" d="M237.587,126.576a12.152,12.152,0,0,0,.059,1.234c1.229-2.913,2.815-6.419,2.88-6.564A6.043,6.043,0,0,0,237.587,126.576Z" transform="translate(-237.582 -121.246)" fill="#003b5e"/>
          </g>
        </g>
        <g id="Group_346" data-name="Group 346" transform="translate(20.808 0.373)">
          <path id="Path_520" data-name="Path 520" d="M242.671,108.725a12.436,12.436,0,0,1,8.59,10.37c.422,2.538-.15,6.561-1.477,10.978l-3.529.636a31.015,31.015,0,0,1-.274-3.9,6.385,6.385,0,0,0,3.454-6.388c-.349-4.711-4.559-7.283-4.559-7.283Z" transform="translate(-242.671 -108.725)" fill="#713c1f"/>
        </g>
        <g id="Group_347" data-name="Group 347" transform="translate(30.324 45.294)">
          <rect id="Rectangle_56" data-name="Rectangle 56" width="23.928" height="15.274" transform="matrix(0.204, -0.979, 0.979, 0.204, 0, 23.426)" fill="#87512e"/>
        </g>
        <g id="Group_348" data-name="Group 348" transform="translate(0 41.44)">
          <path id="Path_521" data-name="Path 521" d="M238.542,124.6c.885,1.889-.23,4.184-.7,5.482-1.648,4.618-5,17.929-2.039,19.51,5.068,2.7,5.85-2.507,6.4-7.891s-.336-13.717.184-17.058Z" transform="translate(-234.629 -124.598)" fill="#fdb171"/>
        </g>
        <g id="Group_349" data-name="Group 349" transform="translate(44.957 56.744)">
          <path id="Path_522" data-name="Path 522" d="M256.137,130.725c.924.347.109,7.555-2.08,7.713s-2.489-2.962-1.558-5.141S254.271,130.024,256.137,130.725Z" transform="translate(-252.005 -130.513)" fill="#fdb171"/>
        </g>
        <g id="Group_359" data-name="Group 359" transform="translate(3.152 26.144)">
          <g id="Group_350" data-name="Group 350" transform="translate(1.062 13.767)">
            <path id="Path_523" data-name="Path 523" d="M236.321,124.672a.875.875,0,1,0,1.151-.616A.924.924,0,0,0,236.321,124.672Z" transform="translate(-236.257 -124.007)" fill="#f09f5b"/>
          </g>
          <g id="Group_356" data-name="Group 356" transform="translate(1.568)">
            <g id="Group_351" data-name="Group 351" transform="translate(0.078 6.111)">
              <path id="Path_524" data-name="Path 524" d="M241.347,121.682l-2.841,10.882-.673-.15a.4.4,0,0,0-.282-.386.392.392,0,0,0-.417.235l-.652-.142,1.971-11.073Z" transform="translate(-236.483 -121.048)" fill="#1e2020"/>
            </g>
            <g id="Group_352" data-name="Group 352" transform="translate(0.95)">
              <path id="Path_525" data-name="Path 525" d="M236.913,121.586a3.178,3.178,0,1,0,3.847-2.836A3.4,3.4,0,0,0,236.913,121.586Z" transform="translate(-236.82 -118.686)" fill="#40291a"/>
            </g>
            <g id="Group_353" data-name="Group 353" transform="translate(0.413 2.215)">
              <path id="Path_526" data-name="Path 526" d="M236.624,119.966a.5.5,0,0,0,.339.6l6.419,1.41a.5.5,0,0,0,.551-.414h0a.481.481,0,0,0-.334-.6l-6.416-1.418a.506.506,0,0,0-.559.417Z" transform="translate(-236.613 -119.542)" fill="#1e2020"/>
            </g>
            <g id="Group_354" data-name="Group 354" transform="translate(0 16.386)">
              <path id="Path_527" data-name="Path 527" d="M236.482,125.926a1.052,1.052,0,1,0,1.268-.885A1.1,1.1,0,0,0,236.482,125.926Zm.629.137a.42.42,0,0,1,.489-.339.438.438,0,1,1-.489.339Z" transform="translate(-236.453 -125.019)" fill="#1e2020"/>
            </g>
            <g id="Group_355" data-name="Group 355" transform="translate(1.465 8.855)">
              <path id="Path_528" data-name="Path 528" d="M237.04,125.631a.715.715,0,0,0,.517.88h0a.714.714,0,0,0,.83-.582l.644-2.929a.725.725,0,0,0-.515-.877h0a.735.735,0,0,0-.841.585Z" transform="translate(-237.019 -122.109)" fill="#5b361f"/>
            </g>
          </g>
          <g id="Group_357" data-name="Group 357" transform="translate(4.13 8.398)">
            <path id="Path_529" data-name="Path 529" d="M237.443,129.391c1.451-1.338,1.343-2.859,1.689-4.155s1.754-3.229,1.014-3.3-.776.453-1.356,1.33a3.594,3.594,0,0,0-.342,2.261Z" transform="translate(-237.443 -121.932)" fill="#fdb171"/>
          </g>
          <g id="Group_358" data-name="Group 358" transform="translate(0 7.746)">
            <path id="Path_530" data-name="Path 530" d="M238.585,121.714c1.915.357,1.431,1.847,1.128,2.83s.039,3.821-1.356,3.733-.608,1.058-.608,1.058l-.078.618a2.808,2.808,0,0,1-1.8-2.838C236.145,125.08,236.331,121.284,238.585,121.714Z" transform="translate(-235.847 -121.68)" fill="#fdb171"/>
          </g>
        </g>
      </g>
      <g id="Group_411" data-name="Group 411" transform="translate(0 19.387)">
        <g id="Group_366" data-name="Group 366">
          <g id="Group_361" data-name="Group 361" transform="translate(11.831 71.822)">
            <path id="Path_531" data-name="Path 531" d="M205.154,219.008h-2.068l21.48-75.173h7.561Z" transform="translate(-203.086 -143.834)" fill="#40291a"/>
          </g>
          <g id="Group_362" data-name="Group 362" transform="translate(40.871 71.822)">
            <path id="Path_532" data-name="Path 532" d="M241.281,219.008h2.069l-21.481-75.173h-7.558Z" transform="translate(-214.311 -143.834)" fill="#40291a"/>
          </g>
          <g id="Group_363" data-name="Group 363" transform="translate(3.077 2.946)">
            <rect id="Rectangle_57" data-name="Rectangle 57" width="75.586" height="76.375" fill="#e9f0f0"/>
          </g>
          <g id="Group_364" data-name="Group 364">
            <rect id="Rectangle_58" data-name="Rectangle 58" width="81.745" height="3.06" fill="#5b361f"/>
          </g>
          <g id="Group_365" data-name="Group 365" transform="translate(0 79.321)">
            <rect id="Rectangle_59" data-name="Rectangle 59" width="81.745" height="3.062" fill="#5b361f"/>
          </g>
        </g>
        <g id="Group_410" data-name="Group 410" transform="translate(8.624 8.361)">
          <g id="Group_368" data-name="Group 368" transform="translate(22.837)">
            <g id="Group_367" data-name="Group 367">
              <path id="Path_533" data-name="Path 533" d="M214.162,120.589a1.477,1.477,0,0,1-.047.383.948.948,0,0,1-.158.352,1.124,1.124,0,0,1-.29.285,1.32,1.32,0,0,1-.429.181v.047a1.8,1.8,0,0,1,.422.124,1.073,1.073,0,0,1,.347.243,1.161,1.161,0,0,1,.238.378,1.532,1.532,0,0,1,.083.53,1.346,1.346,0,0,1-.173.688,1.311,1.311,0,0,1-.453.476,2.061,2.061,0,0,1-.649.277,3.119,3.119,0,0,1-.75.093h-.321c-.135,0-.269-.005-.419-.016s-.308-.018-.461-.031a3.8,3.8,0,0,1-.427-.067v-5.118c.091-.01.2-.028.321-.041s.251-.026.388-.036.285-.021.427-.021.29-.01.435-.01a4.547,4.547,0,0,1,.709.057,2.214,2.214,0,0,1,.613.194,1.072,1.072,0,0,1,.6,1.032Zm-2.186.973c.072,0,.15-.005.243-.01a1.26,1.26,0,0,0,.225-.021,1.319,1.319,0,0,0,.486-.264.584.584,0,0,0,.2-.466.6.6,0,0,0-.072-.31.52.52,0,0,0-.2-.2.822.822,0,0,0-.277-.1,1.679,1.679,0,0,0-.326-.028c-.132,0-.251,0-.36.008s-.189.013-.248.021v1.374Zm.336,2.225a1.489,1.489,0,0,0,.36-.041.885.885,0,0,0,.305-.135.7.7,0,0,0,.215-.23.635.635,0,0,0,.083-.331.709.709,0,0,0-.093-.383.7.7,0,0,0-.256-.212.906.906,0,0,0-.347-.1,3.177,3.177,0,0,0-.385-.021h-.541v1.415a.412.412,0,0,0,.122.023c.054.005.111.008.171.01s.127,0,.191.008Z" transform="translate(-210.674 -119.306)" fill="#004a6e"/>
            </g>
          </g>
          <g id="Group_370" data-name="Group 370" transform="translate(0 30.152)">
            <g id="Group_369" data-name="Group 369">
              <path id="Path_534" data-name="Path 534" d="M204.851,135.035h-1.594l-.4,1.151h-1.012l1.868-5.226h.75l1.868,5.226h-1.069Zm-1.335-.81h1.11l-.385-1.162-.155-.812h-.039l-.153.823Z" transform="translate(-201.847 -130.96)" fill="#40291a"/>
            </g>
          </g>
          <g id="Group_372" data-name="Group 372" transform="translate(57.467 11.943)">
            <g id="Group_371" data-name="Group 371">
              <path id="Path_535" data-name="Path 535" d="M227.733,129a1.666,1.666,0,0,1-.605.243,4.01,4.01,0,0,1-.75.072,2.672,2.672,0,0,1-.887-.145,1.869,1.869,0,0,1-.735-.468,2.233,2.233,0,0,1-.51-.838,3.608,3.608,0,0,1-.186-1.247,3.437,3.437,0,0,1,.207-1.275,2.354,2.354,0,0,1,.551-.833,2.037,2.037,0,0,1,.753-.453,2.636,2.636,0,0,1,.83-.137,4.134,4.134,0,0,1,.75.06,2.826,2.826,0,0,1,.51.14l-.2.864a1.3,1.3,0,0,0-.4-.122,4.189,4.189,0,0,0-.564-.039,1.252,1.252,0,0,0-.988.44,2.052,2.052,0,0,0-.375,1.358,2.693,2.693,0,0,0,.088.732,1.656,1.656,0,0,0,.269.564,1.327,1.327,0,0,0,.453.367,1.5,1.5,0,0,0,.624.127,1.976,1.976,0,0,0,.567-.067,1.686,1.686,0,0,0,.4-.168Z" transform="translate(-224.059 -123.922)" fill="#fe9838"/>
            </g>
          </g>
          <g id="Group_374" data-name="Group 374" transform="translate(57.628 49.444)">
            <g id="Group_373" data-name="Group 373">
              <path id="Path_536" data-name="Path 536" d="M224.121,138.492c.1-.013.22-.021.354-.036s.261-.018.4-.023.277-.008.406-.01.251-.005.352-.005a3.183,3.183,0,0,1,1.177.2,1.966,1.966,0,0,1,.794.538,2.22,2.22,0,0,1,.448.83,4,4,0,0,1,.005,2.078,2.325,2.325,0,0,1-.442.864,2.289,2.289,0,0,1-.82.611,3.1,3.1,0,0,1-1.252.228c-.08,0-.186-.005-.318-.005s-.269-.016-.409-.021-.274-.016-.4-.021-.225-.018-.29-.031Zm1.591.831c-.109,0-.22,0-.329.008a1.922,1.922,0,0,0-.246.023v3.475a.378.378,0,0,0,.1.013l.147.005.16.008c.047,0,.083.005.111.005a1.493,1.493,0,0,0,.712-.153,1.2,1.2,0,0,0,.45-.406,1.531,1.531,0,0,0,.238-.58,3.652,3.652,0,0,0,.062-.68,3.221,3.221,0,0,0-.057-.605,1.56,1.56,0,0,0-.22-.559,1.174,1.174,0,0,0-.429-.4A1.392,1.392,0,0,0,225.712,139.323Z" transform="translate(-224.121 -138.417)" fill="#6cc6c8"/>
            </g>
          </g>
          <g id="Group_376" data-name="Group 376" transform="translate(23.531 60.352)">
            <g id="Group_375" data-name="Group 375">
              <path id="Path_537" data-name="Path 537" d="M210.942,142.633h3.076v.9h-2.065v1.208h1.878v.9h-1.878v1.27h2.1v.906h-3.11Z" transform="translate(-210.942 -142.633)" fill="#b4d1d7"/>
            </g>
          </g>
          <g id="Group_409" data-name="Group 409" transform="translate(6.541 6.506)">
            <g id="Group_398" data-name="Group 398" transform="translate(2.915 1.484)">
              <g id="Group_378" data-name="Group 378" transform="translate(28.21 1.261)">
                <g id="Group_377" data-name="Group 377">
                  <path id="Path_538" data-name="Path 538" d="M223.178,145.388l14-.194a24.378,24.378,0,0,0-16.646-22.312l-4.129,13.34A10.423,10.423,0,0,1,223.178,145.388Z" transform="translate(-216.405 -122.882)" fill="#fe9838"/>
                </g>
              </g>
              <g id="Group_380" data-name="Group 380" transform="translate(4.837)">
                <g id="Group_379" data-name="Group 379">
                  <path id="Path_539" data-name="Path 539" d="M230.922,132.411l2.81-9.063a24.384,24.384,0,0,0-26.361,8.934l7.87,5.55A14.862,14.862,0,0,1,230.922,132.411Z" transform="translate(-207.371 -122.394)" fill="#004a6e"/>
                </g>
              </g>
              <g id="Group_382" data-name="Group 382" transform="translate(30.761 24.753)">
                <g id="Group_381" data-name="Group 381">
                  <path id="Path_540" data-name="Path 540" d="M235.672,131.962l-6.716.093a17.758,17.758,0,0,1-11.565,16.16l2.209,6.471A24.364,24.364,0,0,0,235.672,131.962Z" transform="translate(-217.391 -131.962)" fill="#6cc6c8"/>
                </g>
              </g>
              <g id="Group_384" data-name="Group 384" transform="translate(5.279 32.774)">
                <g id="Group_383" data-name="Group 383">
                  <path id="Path_541" data-name="Path 541" d="M230.423,139.318a13.154,13.154,0,0,1-13.707-4.256l-4.737,3.545-4.437,3.319a24.689,24.689,0,0,0,12.054,8.295,24.25,24.25,0,0,0,14.53-.031Z" transform="translate(-207.542 -135.062)" fill="#b4d1d7"/>
                </g>
              </g>
              <g id="Group_386" data-name="Group 386" transform="translate(0 10.878)">
                <g id="Group_385" data-name="Group 385">
                  <path id="Path_542" data-name="Path 542" d="M221.039,137.289a9.424,9.424,0,0,1,.913-2.039L209.689,126.6a24.379,24.379,0,0,0,.352,27.828l12.16-9.089A9.451,9.451,0,0,1,221.039,137.289Z" transform="translate(-205.502 -126.599)" fill="#40291a"/>
                </g>
              </g>
              <g id="Group_397" data-name="Group 397" transform="translate(18.634 18.656)">
                <g id="Group_388" data-name="Group 388" transform="translate(6.36 0.328)">
                  <g id="Group_387" data-name="Group 387">
                    <path id="Path_543" data-name="Path 543" d="M216.769,129.732l-1.607,5.2,5.41-.08A6.18,6.18,0,0,0,216.769,129.732Z" transform="translate(-215.162 -129.732)" fill="#87512e"/>
                  </g>
                </g>
                <g id="Group_390" data-name="Group 390" transform="translate(1.24)">
                  <g id="Group_389" data-name="Group 389">
                    <path id="Path_544" data-name="Path 544" d="M213.183,131.785l4.036,2.849.411.29,1.6-5.172A6.169,6.169,0,0,0,213.183,131.785Z" transform="translate(-213.183 -129.605)" fill="#004a6e"/>
                  </g>
                </g>
                <g id="Group_392" data-name="Group 392" transform="translate(0 2.772)">
                  <g id="Group_391" data-name="Group 391">
                    <path id="Path_545" data-name="Path 545" d="M213.561,130.677a6.165,6.165,0,0,0,.065,6.378l3.1-2.313,1.26-.947-.37-.259Z" transform="translate(-212.704 -130.677)" fill="#40291a"/>
                  </g>
                </g>
                <g id="Group_394" data-name="Group 394" transform="translate(1.364 6.457)">
                  <g id="Group_393" data-name="Group 393">
                    <path id="Path_546" data-name="Path 546" d="M213.231,135.343a6.234,6.234,0,0,0,2.81,1.8,6.137,6.137,0,0,0,3.278.1l-1.4-4.116-.349-1.032-.279.21Z" transform="translate(-213.231 -132.101)" fill="#b4d1d7"/>
                  </g>
                </g>
                <g id="Group_396" data-name="Group 396" transform="translate(6.367 6.154)">
                  <g id="Group_395" data-name="Group 395">
                    <path id="Path_547" data-name="Path 547" d="M216.911,137.184a6.173,6.173,0,0,0,3.695-5.2l-5.441.075Z" transform="translate(-215.165 -131.984)" fill="#6cc6c8"/>
                  </g>
                </g>
              </g>
            </g>
            <g id="Group_400" data-name="Group 400" transform="translate(16.545 46.931)">
              <g id="Group_399" data-name="Group 399">
                <path id="Path_548" data-name="Path 548" d="M213.554,145.242l-2.784-5.282,4.031,1.252,4.03,1.244Z" transform="translate(-210.77 -139.96)" fill="#b4d1d7"/>
              </g>
            </g>
            <g id="Group_402" data-name="Group 402" transform="translate(43.998 35.932)">
              <g id="Group_401" data-name="Group 401">
                <path id="Path_549" data-name="Path 549" d="M227.265,141.6l-5.884,1.012,2.438-3.45,2.429-3.449Z" transform="translate(-221.381 -135.709)" fill="#6cc6c8"/>
              </g>
            </g>
            <g id="Group_404" data-name="Group 404" transform="translate(43.525 8.695)">
              <g id="Group_403" data-name="Group 403">
                <path id="Path_550" data-name="Path 550" d="M227.105,126.032l-.849,5.9-2.53-3.377-2.528-3.378Z" transform="translate(-221.198 -125.182)" fill="#fe9838"/>
              </g>
            </g>
            <g id="Group_406" data-name="Group 406" transform="translate(15.967)">
              <g id="Group_405" data-name="Group 405">
                <path id="Path_551" data-name="Path 551" d="M213.183,121.821l5.355,2.633-3.995,1.358-4,1.364Z" transform="translate(-210.546 -121.821)" fill="#004a6e"/>
              </g>
            </g>
            <g id="Group_408" data-name="Group 408" transform="translate(0 22.091)">
              <g id="Group_407" data-name="Group 407">
                <path id="Path_552" data-name="Path 552" d="M204.375,134.636l4.163-4.276.057,4.219.059,4.222Z" transform="translate(-204.375 -130.359)" fill="#40291a"/>
              </g>
            </g>
          </g>
        </g>
      </g>
    </g>
  </g>
</svg>
