<svg xmlns="http://www.w3.org/2000/svg" xmlns:xlink="http://www.w3.org/1999/xlink" width="169.287" height="177.52" viewBox="0 0 169.287 177.52">
  <defs>
    <clipPath id="clip-path">
      <path id="Path_664" data-name="Path 664" d="M70.954,137.6H48.389a10.687,10.687,0,0,1,.528,3.652,8.493,8.493,0,0,1-.528,3.341H70.954a1.59,1.59,0,0,0,1.59-1.585v-3.824A1.59,1.59,0,0,0,70.954,137.6Z" transform="translate(-48.389 -137.602)" fill="none"/>
    </clipPath>
    <clipPath id="clip-path-2">
      <path id="Path_668" data-name="Path 668" d="M73.671,140.709H47.692a12.417,12.417,0,0,1,.6,4.206,9.884,9.884,0,0,1-.6,3.851H73.671a1.828,1.828,0,0,0,1.821-1.823v-4.405A1.829,1.829,0,0,0,73.671,140.709Z" transform="translate(-47.692 -140.709)" fill="none"/>
    </clipPath>
  </defs>
  <g id="Group_227" data-name="Group 227" transform="translate(-719.713 -1972.171)">
    <g id="Group_644" data-name="Group 644" transform="translate(694.749 1861.724)">
      <g id="Group_570" data-name="Group 570" transform="translate(46.277 110.447)">
        <g id="Group_503" data-name="Group 503" transform="translate(14.831 100.67)">
          <rect id="Rectangle_71" data-name="Rectangle 71" width="3.262" height="67.894" fill="#40291a"/>
        </g>
        <g id="Group_504" data-name="Group 504" transform="translate(54.127 100.67)">
          <rect id="Rectangle_72" data-name="Rectangle 72" width="3.257" height="67.894" fill="#40291a"/>
        </g>
        <g id="Group_505" data-name="Group 505" transform="translate(10.036 86.086)">
          <path id="Path_616" data-name="Path 616" d="M88.029,146.73a3.411,3.411,0,0,0-3.448-3.375H41.544A3.407,3.407,0,0,0,38.1,146.73l-1.148,9.365a3.41,3.41,0,0,0,3.445,3.375H85.735a3.409,3.409,0,0,0,3.443-3.375Z" transform="translate(-36.948 -143.355)" fill="#1e2020"/>
        </g>
        <g id="Group_506" data-name="Group 506" transform="translate(15.946 35.305)">
          <path id="Path_617" data-name="Path 617" d="M78.728,164.095c0,5.87-1.19,10.629-2.663,10.629H42.759c-1.475,0-2.663-4.758-2.663-10.629l-.889-29.521c0-5.87,1.193-10.631,2.668-10.631h35.08c1.468,0,2.663,4.761,2.663,10.631Z" transform="translate(-39.207 -123.943)" fill="#40291a"/>
        </g>
        <g id="Group_569" data-name="Group 569">
          <g id="Group_508" data-name="Group 508" transform="translate(31.341 92.961)">
            <g id="Group_507" data-name="Group 507">
              <path id="Path_618" data-name="Path 618" d="M63.754,155.366s-12.133,4.46-16.962,3.066,2.169-12.449,2.169-12.449l11.96.56Z" transform="translate(-45.092 -145.983)" fill="#f09f5b"/>
            </g>
          </g>
          <g id="Group_510" data-name="Group 510" transform="translate(33.975 69.802)">
            <g id="Group_509" data-name="Group 509">
              <path id="Path_619" data-name="Path 619" d="M63.519,137.13s3.592,9.967,5.527,13.448c1.808,3.265,2.027,10.393.369,13.585s-22.481-5.012-22.481-5.012l-.834-20.3Z" transform="translate(-46.099 -137.13)" fill="#004a6e"/>
            </g>
          </g>
          <g id="Group_512" data-name="Group 512" transform="translate(29.158 39.163)">
            <g id="Group_511" data-name="Group 511">
              <path id="Path_620" data-name="Path 620" d="M59.481,125.417l-8.228,3.341-6.994-3.341v32.362H59.481Z" transform="translate(-44.258 -125.417)" fill="#b4d1d7"/>
            </g>
          </g>
          <g id="Group_514" data-name="Group 514" transform="translate(1.091 7.794)">
            <g id="Group_513" data-name="Group 513">
              <path id="Path_621" data-name="Path 621" d="M33.81,129.048a21.5,21.5,0,0,0,.429-4.243c-.136-1.282-.759-4.6-.2-6.106a7.359,7.359,0,0,1,2.088-2.637c.492-.6,1.329-2.637,2.093-2.637s2.585.978,3.283,3.461.484,3.921,0,4.826a18.1,18.1,0,0,0-2.3,7.913s-4.769,2.009-5.391.827S33.81,129.048,33.81,129.048Z" transform="translate(-33.528 -113.426)" fill="#fdb171"/>
            </g>
          </g>
          <g id="Group_516" data-name="Group 516" transform="translate(0 23.013)">
            <g id="Group_515" data-name="Group 515">
              <path id="Path_622" data-name="Path 622" d="M64.852,127.644s-6.438-.17-8.593,1.423-9.6,2.5-14.576,1.933l-1.248-11.264s-3.728,1.656-6.556-.492c0,0-1.245,13.451-.565,17.072s17.746,5.085,20.234,5.31h9.381Z" transform="translate(-33.111 -119.244)" fill="#004a6e"/>
            </g>
          </g>
          <g id="Group_518" data-name="Group 518" transform="translate(5.978)">
            <g id="Group_517" data-name="Group 517">
              <path id="Path_623" data-name="Path 623" d="M35.952,122.188a.562.562,0,0,1-.487-.827l5.8-10.623a.554.554,0,0,1,.753-.222.561.561,0,0,1,.225.756l-5.8,10.621A.552.552,0,0,1,35.952,122.188Z" transform="translate(-35.397 -110.447)" fill="#40291a"/>
            </g>
          </g>
          <g id="Group_520" data-name="Group 520" transform="translate(30.626 25.462)">
            <g id="Group_519" data-name="Group 519">
              <path id="Path_624" data-name="Path 624" d="M46.213,120.18s-.188,4.319-1.394,6.637l5.527,11.243V123.013Z" transform="translate(-44.819 -120.18)" fill="#fdb171"/>
            </g>
          </g>
          <g id="Group_522" data-name="Group 522" transform="translate(36.154 25.462)">
            <g id="Group_521" data-name="Group 521">
              <path id="Path_625" data-name="Path 625" d="M51.057,120.18s.186,4.319,1.394,6.637l-5.52,11.243V123.013Z" transform="translate(-46.932 -120.18)" fill="#fdb171"/>
            </g>
          </g>
          <g id="Group_524" data-name="Group 524" transform="translate(31.448 25.475)">
            <g id="Group_523" data-name="Group 523">
              <path id="Path_626" data-name="Path 626" d="M54.158,122.267v-.016c-.084-.649-.133-1.206-.157-1.583l-.055-.484L49.839,123l-3.927-2.7-.22.11a29.465,29.465,0,0,1-.377,3.1l-.183.884s.649,1.329,3.976,1.329C52.118,125.728,54.158,122.267,54.158,122.267Z" transform="translate(-45.133 -120.185)" fill="#f09f5b"/>
            </g>
          </g>
          <g id="Group_526" data-name="Group 526" transform="translate(20.437 35.305)">
            <g id="Group_525" data-name="Group 525">
              <path id="Path_627" data-name="Path 627" d="M40.924,134.033c2.1.921.013,26.131.013,26.131H53.87l-1.936-36.22Z" transform="translate(-40.924 -123.943)" fill="#004a6e"/>
            </g>
          </g>
          <g id="Group_542" data-name="Group 542" transform="translate(26.405 2.058)">
            <g id="Group_528" data-name="Group 528" transform="translate(15.978 21.881)">
              <g id="Group_527" data-name="Group 527">
                <path id="Path_628" data-name="Path 628" d="M49.313,121.12s.934-.842,1.031-1.248l-.685-.275Z" transform="translate(-49.313 -119.598)" fill="#4f290f"/>
              </g>
            </g>
            <g id="Group_530" data-name="Group 530" transform="translate(2.485 21.881)">
              <g id="Group_529" data-name="Group 529">
                <path id="Path_629" data-name="Path 629" d="M45.183,121.12s-.937-.842-1.028-1.248l.685-.275Z" transform="translate(-44.155 -119.598)" fill="#4f290f"/>
              </g>
            </g>
            <g id="Group_532" data-name="Group 532" transform="translate(1.671)">
              <g id="Group_531" data-name="Group 531">
                <path id="Path_630" data-name="Path 630" d="M53.194,113.911c.67,2.634-1.227,3.811-3.775,4.458s-4.779.5-5.441-2.135c-.654-2.59,1.164-4.086,3.712-4.727S52.527,111.23,53.194,113.911Z" transform="translate(-43.844 -111.233)" fill="#4f290f"/>
              </g>
            </g>
            <g id="Group_535" data-name="Group 535" transform="translate(0.354 4.93)">
              <g id="Group_534" data-name="Group 534">
                <g id="Group_533" data-name="Group 533">
                  <path id="Path_631" data-name="Path 631" d="M60.733,125.763s1.185-5.062-.194-7.879c-1.494-3.037-3.722-4.766-7.8-4.766s-6.32,1.729-7.8,4.766c-1.386,2.817-.2,7.879-.2,7.879-1.857-.374-1.509,1.661-.923,2.579a5.749,5.749,0,0,1,.78,1.682c.416,1.206,1.379.369,1.379.369.56,1.551.95,1.92,3.173,3.968,1.933,1.781,2.616,1.763,3.6,1.763s1.638.018,3.592-1.763c2.229-2.043,2.613-2.417,3.173-3.968,0,0,.957.837,1.376-.369a5.749,5.749,0,0,1,.78-1.682C62.237,127.425,62.588,125.389,60.733,125.763Z" transform="translate(-43.34 -113.118)" fill="#fdb171"/>
                </g>
              </g>
            </g>
            <g id="Group_537" data-name="Group 537" transform="translate(0 3.872)">
              <g id="Group_536" data-name="Group 536">
                <path id="Path_632" data-name="Path 632" d="M58.273,113.772a8.808,8.808,0,0,0-8.376,0c-9.433,1.041-6.132,12.938-6.132,12.938h.005c.2-.275.57-.413,1.18-.293-.128-.868.939-1.923,2.613-3.157a7.432,7.432,0,0,0,2.333-3.037,8.754,8.754,0,0,0,5.865,4c4.185.835,5.064,1.423,5.19,2.2.61-.12.978.018,1.18.293h.005S64.669,117.109,58.273,113.772Z" transform="translate(-43.205 -112.714)" fill="#582d11"/>
              </g>
            </g>
            <g id="Group_539" data-name="Group 539" transform="translate(16.739 21.941)">
              <g id="Group_538" data-name="Group 538">
                <path id="Path_633" data-name="Path 633" d="M50.452,120.042a.424.424,0,1,1-.848,0,.424.424,0,0,1,.848,0Z" transform="translate(-49.604 -119.621)" fill="#d40000"/>
              </g>
            </g>
            <g id="Group_541" data-name="Group 541" transform="translate(1.902 21.941)">
              <g id="Group_540" data-name="Group 540">
                <path id="Path_634" data-name="Path 634" d="M43.932,120.042a.426.426,0,1,0,.853,0,.426.426,0,0,0-.853,0Z" transform="translate(-43.932 -119.621)" fill="#d40000"/>
              </g>
            </g>
          </g>
          <g id="Group_544" data-name="Group 544" transform="translate(24.868 29.995)">
            <g id="Group_543" data-name="Group 543">
              <path id="Path_635" data-name="Path 635" d="M53.9,135.258l-5.526-11.243.745-2.1-2.214.644-4.29,5.6,4.29.884-.853,2.693Z" transform="translate(-42.618 -121.913)" fill="#d8e9ed"/>
            </g>
          </g>
          <g id="Group_546" data-name="Group 546" transform="translate(38.911 31.748)">
            <g id="Group_545" data-name="Group 545">
              <path id="Path_636" data-name="Path 636" d="M53.066,122.583s5.585,1.7,7.913,2.653,5.575,5.321,6.595,10.056,1.674,8.366,2.514,10.406,1.763,8.643,1.2,10.963-3.469,5.023-5.295,5.614a8.792,8.792,0,0,1-1.975.055H47.986L50.2,129.256Z" transform="translate(-47.986 -122.583)" fill="#004a6e"/>
            </g>
          </g>
          <g id="Group_548" data-name="Group 548" transform="translate(36.153 29.995)">
            <g id="Group_547" data-name="Group 547">
              <path id="Path_637" data-name="Path 637" d="M46.932,135.258l5.521-11.243-.75-2.1,2.219.644,4.291,5.6-4.291.884.849,2.693Z" transform="translate(-46.932 -121.913)" fill="#d8e9ed"/>
            </g>
          </g>
          <g id="Group_550" data-name="Group 550" transform="translate(47.434 47.71)">
            <g id="Group_549" data-name="Group 549">
              <path id="Path_638" data-name="Path 638" d="M52.748,145.385a55.448,55.448,0,0,0,5.114-2.833c.212-.351-2.982-13.867-2.982-13.867s.95,11.5,1.02,12.475-4.656,4.178-4.656,4.178Z" transform="translate(-51.244 -128.685)" fill="#003b5e"/>
            </g>
          </g>
          <g id="Group_552" data-name="Group 552" transform="translate(48.297 64.364)">
            <g id="Group_551" data-name="Group 551">
              <path id="Path_639" data-name="Path 639" d="M55.927,142.171s1.577.243,2.043-.5a2.7,2.7,0,0,1,2.229-1.256,4.062,4.062,0,0,0-2.65-3.343c-2.462-.887-5.541-2.367-5.949-1.951S55.927,142.171,55.927,142.171Z" transform="translate(-51.574 -135.051)" fill="#edab72"/>
            </g>
          </g>
          <g id="Group_554" data-name="Group 554" transform="translate(41.814 69.467)">
            <g id="Group_553" data-name="Group 553">
              <path id="Path_640" data-name="Path 640" d="M51.982,137c-.494.139-3.343.636-2.823,1.808.246.557,5.067,0,5.067,0L52.743,137Z" transform="translate(-49.096 -137.002)" fill="#f4c297"/>
            </g>
          </g>
          <g id="Group_556" data-name="Group 556" transform="translate(43.822 64.284)">
            <g id="Group_555" data-name="Group 555">
              <path id="Path_641" data-name="Path 641" d="M53.007,135.291c-1,.855-3.8,3.827-3,4.944s1.358.743,1.583,1.256.549.74,1.2,1.206,1.724.419,2.284.793,1.575,1.114,2.6,0a12.749,12.749,0,0,0,2.417-3.67,1.6,1.6,0,0,0-.973-1.625c-.654-.233-1.025-1.025-1.488-1.258a5.334,5.334,0,0,1-1.428-.743c-.369-.371-1.02-.416-1.209-.6S53.81,134.613,53.007,135.291Z" transform="translate(-49.863 -135.021)" fill="#fdb171"/>
            </g>
          </g>
          <g id="Group_558" data-name="Group 558" transform="translate(39.965 86.276)">
            <g id="Group_557" data-name="Group 557">
              <path id="Path_642" data-name="Path 642" d="M58.426,159.5s10.54-2.412,8.321-13.658c-.968-4.881-6.99-.837-6.99-.837l-11.369,1.536Z" transform="translate(-48.389 -143.428)" fill="#004a6e"/>
            </g>
          </g>
          <g id="Group_560" data-name="Group 560" transform="translate(41.437 137.027)">
            <g id="Group_559" data-name="Group 559">
              <path id="Path_643" data-name="Path 643" d="M49.057,166.613a31.2,31.2,0,0,0,.515,8.826c.879,3.872,2.7,8.439,6.684,7.8,5.86-.929.8-15.952-.018-17.825-1.07-2.467-2.579-2.823-3.929-2.477C49.837,163.581,49.408,162.566,49.057,166.613Z" transform="translate(-48.952 -162.828)" fill="#1e2020"/>
            </g>
          </g>
          <g id="Group_562" data-name="Group 562" transform="translate(30.976 150.661)">
            <g id="Group_561" data-name="Group 561">
              <path id="Path_644" data-name="Path 644" d="M45.524,169.282s-1.175,9.255-.154,12.672c1.067,3.571,1.878,5.227,4.065,5.227,3.207-.005,4.267-3.717,4.227-7.434-.034-3.427-.131-8.457-1.039-10.754S45.524,169.282,45.524,169.282Z" transform="translate(-44.953 -168.04)" fill="#1e2020"/>
            </g>
          </g>
          <g id="Group_564" data-name="Group 564" transform="translate(12.19 71.526)">
            <g id="Group_563" data-name="Group 563">
              <path id="Path_645" data-name="Path 645" d="M46.019,166.933c-3.749-1.392-7.581-2.367-8.138-5.572s1.117-6.971,3-9.9,5.436-13.676,5.436-13.676H62.06l-.413,28.592Z" transform="translate(-37.771 -137.789)" fill="#004a6e"/>
            </g>
          </g>
          <g id="Group_566" data-name="Group 566" transform="translate(24.18 96.639)">
            <g id="Group_565" data-name="Group 565">
              <path id="Path_646" data-name="Path 646" d="M42.507,153.714c-.644,3.113.821,10.44,3.137,19.915,1.674,6.862,4.643,20.164,4.363,22.814s-.317,8.29-.246,10.589.086,5.365,3.848,5.3,3.832-5.716,3.346-9.059a99.574,99.574,0,0,1-1.324-11.57c0-3.066.7-14.772.484-20.281s-2.872-24.03-2.872-24.03S42.852,152.072,42.507,153.714Z" transform="translate(-42.355 -147.389)" fill="#f09f5b"/>
            </g>
          </g>
          <g id="Group_568" data-name="Group 568" transform="translate(20.437 91.16)">
            <g id="Group_567" data-name="Group 567">
              <path id="Path_647" data-name="Path 647" d="M68.119,191.229c-1.368-2.522-2.663-21.022-2.663-21.022S64,148.15,62.694,146.42s-11.39-1.747-16.734,1.97-4.821,4.465-5.036,6.414c0,0,7.8,1.5,12.049.557-.746,7.157,3.2,19.026,4.41,22.3,1.815,4.876,4.507,9.151,4.646,12.632.175,4.324.581,15.586,5.6,14.613C72.462,203.974,70.079,194.849,68.119,191.229Z" transform="translate(-40.924 -145.295)" fill="#fdb171"/>
            </g>
          </g>
        </g>
      </g>
      <g id="Group_585" data-name="Group 585" transform="translate(24.964 181.324)">
        <g id="Group_572" data-name="Group 572" transform="translate(26.141 9.096)">
          <g id="Group_571" data-name="Group 571">
            <rect id="Rectangle_73" data-name="Rectangle 73" width="3.777" height="90.136" fill="#40291a"/>
          </g>
        </g>
        <g id="Group_574" data-name="Group 574" transform="translate(88.806 9.096)">
          <g id="Group_573" data-name="Group 573">
            <rect id="Rectangle_74" data-name="Rectangle 74" width="3.779" height="90.136" fill="#40291a"/>
          </g>
        </g>
        <g id="Group_576" data-name="Group 576" transform="translate(16.911 16.509)">
          <g id="Group_575" data-name="Group 575">
            <rect id="Rectangle_75" data-name="Rectangle 75" width="4.446" height="90.133" fill="#40291a"/>
          </g>
        </g>
        <g id="Group_578" data-name="Group 578" transform="translate(97.365 16.509)">
          <g id="Group_577" data-name="Group 577">
            <rect id="Rectangle_76" data-name="Rectangle 76" width="4.446" height="90.133" fill="#40291a"/>
          </g>
        </g>
        <g id="Group_580" data-name="Group 580" transform="translate(0.001 13.007)">
          <g id="Group_579" data-name="Group 579">
            <rect id="Rectangle_77" data-name="Rectangle 77" width="118.722" height="3.777" fill="#5b361f"/>
          </g>
        </g>
        <g id="Group_582" data-name="Group 582" transform="translate(0 3.775)">
          <g id="Group_581" data-name="Group 581">
            <path id="Path_648" data-name="Path 648" d="M143.688,151.993c0,7.189-26.575,13.009-59.361,13.009s-59.363-5.82-59.363-13.009,26.578-13.009,59.363-13.009S143.688,144.81,143.688,151.993Z" transform="translate(-24.964 -138.984)" fill="#5b361f"/>
          </g>
        </g>
        <g id="Group_584" data-name="Group 584">
          <g id="Group_583" data-name="Group 583">
            <path id="Path_649" data-name="Path 649" d="M143.688,150.547c0,7.186-26.575,13.014-59.361,13.014s-59.363-5.828-59.363-13.014,26.578-13.006,59.363-13.006S143.688,143.364,143.688,150.547Z" transform="translate(-24.964 -137.541)" fill="#87512e"/>
          </g>
        </g>
      </g>
      <g id="Group_614" data-name="Group 614" transform="translate(114.794 133.822)">
        <g id="Group_586" data-name="Group 586" transform="translate(0 27.211)">
          <path id="Path_650" data-name="Path 650" d="M65.842,142.884c-2.987-1.13-7.584-7.034-6.325-9.012s4.635-4.758,6.051-3.942,2.394,4.447,2.3,5.214,1.326,3.314,1.326,3.314Z" transform="translate(-59.304 -129.784)" fill="#f09c56"/>
        </g>
        <g id="Group_588" data-name="Group 588" transform="translate(3.14 24.156)">
          <g id="Group_587" data-name="Group 587">
            <path id="Path_651" data-name="Path 651" d="M79.629,140.9c-.46.759-1.091,4.622-1.978,9.127,0,0-6.346-8.816-10.623-14.092L60.5,140.73c1.423,2.948,14.793,21.7,17.147,22.228,3.995.9,9-9.088,14.471-18.223s5.331-12.392-.133-14.89C79.459,124.134,80.087,140.146,79.629,140.9Z" transform="translate(-60.504 -128.616)" fill="#254371"/>
          </g>
        </g>
        <g id="Group_589" data-name="Group 589" transform="translate(1.944 27.336)">
          <path id="Path_652" data-name="Path 652" d="M63.812,142.64c-2.472-2.02-4.957-9.077-3.142-10.55s5.909-3.037,6.992-1.823.855,4.978.531,5.674.2,3.571.2,3.571Z" transform="translate(-60.047 -129.832)" fill="#fdb171"/>
        </g>
        <g id="Group_590" data-name="Group 590" transform="translate(20.9 21.447)">
          <path id="Path_653" data-name="Path 653" d="M67.293,132.6s.79.931.555,3.66,5.656-5.138,5.656-5.138l-4.35-3.545Z" transform="translate(-67.293 -127.581)" fill="#fdb171"/>
        </g>
        <g id="Group_591" data-name="Group 591" transform="translate(57.107 144.256)">
          <path id="Path_654" data-name="Path 654" d="M92.822,174.869c1.01.712,8.813-.963,9.308-.076s1.478,3.4,1.073,4.824a.916.916,0,0,1,.23,1.028c-.178.73-2.153,1.1-4.724,1.3S88.4,183.368,86.2,182.992c-2.2-.358-4.227-.918-4.583-1.768-.379-.858-1.164-2.637.777-2.564,1.941.094,4.217-.128,5.159-.7a26.38,26.38,0,0,0,3.772-2.352C92.108,174.812,92.422,174.584,92.822,174.869Z" transform="translate(-81.134 -174.527)" fill="#003b5e"/>
        </g>
        <g id="Group_592" data-name="Group 592" transform="translate(38.604 143.77)">
          <path id="Path_655" data-name="Path 655" d="M85.718,175.253c1.078.664,8.962-1.585,9.548-.7s1.766,3.39,1.452,4.881a.947.947,0,0,1,.319,1.041c-.128.759-2.127,1.271-4.761,1.653s-10.466,2.161-12.758,1.92c-2.286-.222-4.4-.657-4.842-1.507s-1.392-2.626.61-2.679,4.316-.424,5.248-1.08a26.984,26.984,0,0,0,3.691-2.668C84.973,175.253,85.274,174.991,85.718,175.253Z" transform="translate(-74.061 -174.342)" fill="#004a6e"/>
        </g>
        <g id="Group_593" data-name="Group 593" transform="translate(53.727 71.095)">
          <path id="Path_656" data-name="Path 656" d="M79.842,159.02S82.806,183.526,83.7,185.5a54.011,54.011,0,0,1,3.458,9.47c2.7,10.872,6.255,25.832,6.255,25.832l11.539.934s-1.512-21.4-4.18-28.726-4.615-11.827-4.316-15.86-.078-30.585-.078-30.585Z" transform="translate(-79.842 -146.56)" fill="#40291a"/>
        </g>
        <g id="Group_594" data-name="Group 594" transform="translate(33.383 57.932)">
          <path id="Path_657" data-name="Path 657" d="M86.369,155.971s-7.683,15.6-9.655,20.852-6.336,11.641-3.955,16.9,13.872,36.139,13.872,36.139l11.861-2.289L86.85,190.15s23.19-28.349,23.19-33.416-.884-7.322-8.6-15.206Z" transform="translate(-72.065 -141.528)" fill="#5b361f"/>
        </g>
        <g id="Group_609" data-name="Group 609" transform="translate(3.886)">
          <g id="Group_597" data-name="Group 597" transform="translate(8.881 7.549)">
            <g id="Group_596" data-name="Group 596">
              <g id="Group_595" data-name="Group 595">
                <path id="Path_658" data-name="Path 658" d="M64.671,139.978l-.186-.345,1.044-3.521a1.733,1.733,0,0,0,2.229-1.185l3.777-12.658c3.2,3.751,4.1,9.428,4.39,10.385.345,1.086,2.273,3.063,4.526,5.072a74.19,74.19,0,0,1-6.388,6.113c-.45-2.132-2.069-5.925-5.507-2.9-3.181,2.8-3.971,1.324-4.371.089C64.6,140.522,65.063,140.718,64.671,139.978Z" transform="translate(-64.184 -122.268)" fill="#fdb171"/>
              </g>
            </g>
          </g>
          <g id="Group_605" data-name="Group 605">
            <g id="Group_601" data-name="Group 601" transform="translate(2.315 8.629)">
              <g id="Group_600" data-name="Group 600">
                <g id="Group_599" data-name="Group 599">
                  <g id="Group_598" data-name="Group 598">
                    <path id="Path_659" data-name="Path 659" d="M63.688,122.681c-.23.824-2.621,3.432-1.868,6.89.4,1.915.432,1.69,1,2.124.939.719.638,2.25.455,3.084-.285,1.292-.84,2.255.615,2.278,1.627.016,1.3.725,1.078,1.279-.16.416.667.691.91.769,0,0-.319.9.29,1.075.583.178,1.028-.092,1.248.259s.549,1.983,1.478,2.158c.944.154,2.54-1.122,3.443-1.643a4,4,0,0,1,3.108-.712c4.222,1.13,4.306,2.553,4.306,2.553s2.148-.816,3.573-4.222c.348-.819-.834,1.107-1.761-.037-1.5-1.863-.3-14.853-3.916-13.265-.17.073-9.025.939-9.025.939Z" transform="translate(-61.674 -122.681)" fill="#fdb171"/>
                  </g>
                </g>
              </g>
            </g>
            <g id="Group_604" data-name="Group 604">
              <g id="Group_603" data-name="Group 603">
                <g id="Group_602" data-name="Group 602">
                  <path id="Path_660" data-name="Path 660" d="M82.514,124.064c-3.3-3.2-7.107-6.137-11.68-3.892-4.57,2.26-8.468,6.414-10.045,4.672,0,0,.1,5.331,2.592,6.618.034-1.023,9.352,3.341,10.785,3.961,1.454.623-.939-2.265.814-2.969s4.492,2.135,4.693,3.966c.16,1.4,3.22,2.912,3.22,2.912l.481,1.059,1.01-4.112S85.826,127.266,82.514,124.064Z" transform="translate(-60.789 -119.382)" fill="#1e2020"/>
                </g>
              </g>
            </g>
          </g>
          <g id="Group_608" data-name="Group 608" transform="translate(8.612 11.909)">
            <g id="Group_607" data-name="Group 607">
              <g id="Group_606" data-name="Group 606">
                <path id="Path_661" data-name="Path 661" d="M68.593,138.846c-.039.026-.092.052-.141.084-.9.521-2.5,1.8-3.443,1.643a1.478,1.478,0,0,1-.929-.866c.01-.005,5.261-2.49,5.826-4.7.743-2.838-.984-5.164-2.213-9.58s1.638,2.394,1.638,2.394,3.971,7.714.419,10.1A8.484,8.484,0,0,0,68.593,138.846Z" transform="translate(-64.081 -123.935)" fill="#1e2020"/>
              </g>
            </g>
          </g>
        </g>
        <g id="Group_611" data-name="Group 611" transform="translate(21.193 21.447)">
          <g id="Group_610" data-name="Group 610">
            <path id="Path_662" data-name="Path 662" d="M110.746,166.006s-15.837-21.053-17.5-23.729-10.2-14.717-16.585-13.412l-2.739-1.284-6.26,8.682s-1.292,7.788,1.865,14.492c2.326,4.968,7.264,11.366,11.764,15.727S94.15,178.8,94.15,178.8Z" transform="translate(-67.405 -127.581)" fill="#6cc6c8"/>
          </g>
        </g>
        <g id="Group_613" data-name="Group 613" transform="translate(4.046 24.995)">
          <g id="Group_612" data-name="Group 612">
            <path id="Path_663" data-name="Path 663" d="M79.97,144.321c-.45.753-1.086,4.622-1.97,9.119,0,0-6.349-8.805-10.631-14.084l-6.519,4.8c1.418,2.943,14.8,23.256,17.15,23.787,3.992.9,9-10.649,14.463-19.784s6.21-15.672.748-18.162C80.679,124.28,80.433,143.57,79.97,144.321Z" transform="translate(-60.85 -128.937)" fill="#3fb2ac"/>
          </g>
        </g>
      </g>
      <g id="Group_641" data-name="Group 641" transform="translate(83.689 180.847)">
        <g id="Group_627" data-name="Group 627" transform="translate(1.917)">
          <g id="Group_622" data-name="Group 622" transform="translate(0.636 0.636)">
            <g id="Group_621" data-name="Group 621" clip-path="url(#clip-path)">
              <g id="Group_620" data-name="Group 620" transform="translate(-0.001 0.668)">
                <g id="Group_615" data-name="Group 615">
                  <rect id="Rectangle_78" data-name="Rectangle 78" width="24.155" height="1.14" fill="#eefaf8"/>
                </g>
                <g id="Group_616" data-name="Group 616" transform="translate(0 1.139)">
                  <rect id="Rectangle_79" data-name="Rectangle 79" width="24.155" height="1.138" fill="#d8e9ed"/>
                </g>
                <g id="Group_617" data-name="Group 617" transform="translate(0 2.277)">
                  <rect id="Rectangle_80" data-name="Rectangle 80" width="24.155" height="1.134" fill="#eefaf8"/>
                </g>
                <g id="Group_618" data-name="Group 618" transform="translate(0 3.412)">
                  <rect id="Rectangle_81" data-name="Rectangle 81" width="24.155" height="1.142" fill="#d8e9ed"/>
                </g>
                <g id="Group_619" data-name="Group 619" transform="translate(0 4.554)">
                  <rect id="Rectangle_82" data-name="Rectangle 82" width="24.155" height="1.141" fill="#eefaf8"/>
                </g>
              </g>
            </g>
          </g>
          <g id="Group_624" data-name="Group 624">
            <g id="Group_623" data-name="Group 623">
              <path id="Path_665" data-name="Path 665" d="M71.347,145.623H48.782a.633.633,0,1,1,0-1.266H71.347a.957.957,0,0,0,.955-.955v-3.824a.952.952,0,0,0-.955-.95H48.782a.634.634,0,1,1,0-1.269H71.347a2.219,2.219,0,0,1,2.218,2.218V143.4A2.223,2.223,0,0,1,71.347,145.623Z" transform="translate(-48.146 -137.359)" fill="#6cc6c8"/>
            </g>
          </g>
          <g id="Group_625" data-name="Group 625" transform="translate(7.154 2.443)">
            <path id="Path_666" data-name="Path 666" d="M54.088,139.982l-1.673-.525-1.534.525v-1.689h3.207Z" transform="translate(-50.881 -138.293)" fill="#5b361f"/>
          </g>
          <g id="Group_626" data-name="Group 626" transform="translate(15.678 4.686)">
            <path id="Path_667" data-name="Path 667" d="M57.352,140.839l-1.62-.525-1.593.525V139.15h3.212Z" transform="translate(-54.139 -139.15)" fill="#5b361f"/>
          </g>
        </g>
        <g id="Group_640" data-name="Group 640" transform="translate(0 8.039)">
          <g id="Group_635" data-name="Group 635" transform="translate(0.73 0.725)">
            <g id="Group_634" data-name="Group 634" clip-path="url(#clip-path-2)">
              <g id="Group_633" data-name="Group 633" transform="translate(0 0.773)">
                <g id="Group_628" data-name="Group 628">
                  <rect id="Rectangle_83" data-name="Rectangle 83" width="27.801" height="1.309" fill="#eefaf8"/>
                </g>
                <g id="Group_629" data-name="Group 629" transform="translate(0 1.309)">
                  <rect id="Rectangle_84" data-name="Rectangle 84" width="27.801" height="1.314" fill="#d8e9ed"/>
                </g>
                <g id="Group_630" data-name="Group 630" transform="translate(0 2.624)">
                  <rect id="Rectangle_85" data-name="Rectangle 85" width="27.801" height="1.308" fill="#eefaf8"/>
                </g>
                <g id="Group_631" data-name="Group 631" transform="translate(0 3.931)">
                  <rect id="Rectangle_86" data-name="Rectangle 86" width="27.801" height="1.312" fill="#d8e9ed"/>
                </g>
                <g id="Group_632" data-name="Group 632" transform="translate(0 5.243)">
                  <rect id="Rectangle_87" data-name="Rectangle 87" width="27.801" height="1.307" fill="#eefaf8"/>
                </g>
              </g>
            </g>
          </g>
          <g id="Group_637" data-name="Group 637">
            <g id="Group_636" data-name="Group 636">
              <path id="Path_669" data-name="Path 669" d="M74.122,149.943H48.143a.732.732,0,0,1,0-1.465H74.122a1.089,1.089,0,0,0,1.093-1.088v-4.405a1.094,1.094,0,0,0-1.093-1.1H48.143a.727.727,0,1,1,0-1.454H74.122a2.553,2.553,0,0,1,2.551,2.553v4.405A2.556,2.556,0,0,1,74.122,149.943Z" transform="translate(-47.413 -140.432)" fill="#004a6e"/>
            </g>
          </g>
          <g id="Group_638" data-name="Group 638" transform="translate(8.227 2.807)">
            <path id="Path_670" data-name="Path 670" d="M54.256,143.453l-1.924-.609-1.774.609V141.5h3.7Z" transform="translate(-50.558 -141.505)" fill="#40291a"/>
          </g>
          <g id="Group_639" data-name="Group 639" transform="translate(18.045 5.392)">
            <path id="Path_671" data-name="Path 671" d="M58.008,144.437l-1.869-.608-1.828.608v-1.944h3.7Z" transform="translate(-54.311 -142.493)" fill="#40291a"/>
          </g>
        </g>
      </g>
      <g id="Group_642" data-name="Group 642" transform="translate(46.42 186.72)">
        <path id="Path_672" data-name="Path 672" d="M50.462,141.142l.809,10.434-17.295-1.539-.81-10.433Z" transform="translate(-33.166 -139.604)" fill="#d8e9ed"/>
      </g>
      <g id="Group_643" data-name="Group 643" transform="translate(53.22 187.861)">
        <path id="Path_673" data-name="Path 673" d="M52.645,140.04l4.106,9.627-16.881,4.081-4.105-9.631Z" transform="translate(-35.766 -140.04)" fill="#fff"/>
      </g>
    </g>
  </g>
</svg>
