<svg id="Group_871" data-name="Group 871" xmlns="http://www.w3.org/2000/svg" xmlns:xlink="http://www.w3.org/1999/xlink" width="148.586" height="174.035" viewBox="0 0 148.586 174.035">
  <defs>
    <linearGradient id="linear-gradient" x1="0.891" y1="3.039" x2="0.747" y2="1.845" gradientUnits="objectBoundingBox">
      <stop offset="0" stop-color="#7d431b"/>
      <stop offset="0.99" stop-color="#8f3e1b"/>
    </linearGradient>
    <linearGradient id="linear-gradient-2" x1="0.446" y1="2.939" x2="1.567" y2="2.939" xlink:href="#linear-gradient"/>
    <linearGradient id="linear-gradient-3" x1="2.355" y1="9.789" x2="2.257" y2="8.716" gradientUnits="objectBoundingBox">
      <stop offset="0" stop-color="#f6c295"/>
      <stop offset="1" stop-color="#f69c75"/>
    </linearGradient>
    <linearGradient id="linear-gradient-4" x1="2.308" y1="31.1" x2="2.214" y2="27.724" xlink:href="#linear-gradient-3"/>
    <linearGradient id="linear-gradient-5" x1="1.103" y1="4.614" x2="1.107" y2="3.616" gradientUnits="objectBoundingBox">
      <stop offset="0" stop-color="#f7ceaa"/>
      <stop offset="1" stop-color="#f7b091"/>
    </linearGradient>
    <linearGradient id="linear-gradient-6" x1="0.464" y1="1.214" x2="0.534" y2="-0.182" gradientUnits="objectBoundingBox">
      <stop offset="0" stop-color="#5b5d60"/>
      <stop offset="1" stop-color="#3a3e44"/>
    </linearGradient>
    <linearGradient id="linear-gradient-7" x1="0.466" y1="1.216" x2="0.537" y2="-0.272" xlink:href="#linear-gradient-6"/>
    <linearGradient id="linear-gradient-8" x1="0.462" y1="1.162" x2="0.533" y2="-0.071" xlink:href="#linear-gradient-6"/>
    <linearGradient id="linear-gradient-9" x1="0.468" y1="1.177" x2="0.529" y2="-0.119" xlink:href="#linear-gradient-6"/>
    <linearGradient id="linear-gradient-10" y1="0.5" x2="1" y2="0.5" gradientUnits="objectBoundingBox">
      <stop offset="0" stop-color="#ac5e33"/>
      <stop offset="0.995" stop-color="#e58d47"/>
    </linearGradient>
    <linearGradient id="linear-gradient-11" x1="0.823" y1="1.624" x2="0.26" y2="-0.025" xlink:href="#linear-gradient-10"/>
    <linearGradient id="linear-gradient-12" x1="0" y1="0.5" x2="1" y2="0.5" xlink:href="#linear-gradient-10"/>
    <linearGradient id="linear-gradient-13" x1="0" y1="0.5" x2="1" y2="0.5" xlink:href="#linear-gradient-10"/>
    <linearGradient id="linear-gradient-14" x1="0.413" y1="0.136" x2="0.507" y2="0.827" gradientUnits="objectBoundingBox">
      <stop offset="0" stop-color="#d8eff8"/>
      <stop offset="1" stop-color="#c4ebff"/>
    </linearGradient>
    <linearGradient id="linear-gradient-15" x1="0.578" y1="0.764" x2="-0.008" y2="-0.437" gradientUnits="objectBoundingBox">
      <stop offset="0" stop-color="#004c6b"/>
      <stop offset="1" stop-color="#005967"/>
    </linearGradient>
    <linearGradient id="linear-gradient-16" x1="0.626" y1="0.002" x2="0.412" y2="1.008" gradientUnits="objectBoundingBox">
      <stop offset="0" stop-color="#4c2b00"/>
      <stop offset="1" stop-color="#3f290f"/>
    </linearGradient>
    <linearGradient id="linear-gradient-17" x1="0.277" y1="0.91" x2="0.528" y2="0.118" gradientUnits="objectBoundingBox">
      <stop offset="0.01" stop-color="#191615"/>
      <stop offset="1" stop-color="#252626"/>
    </linearGradient>
    <linearGradient id="linear-gradient-18" x1="-0.237" y1="4.975" x2="0.559" y2="0.595" xlink:href="#linear-gradient-17"/>
    <linearGradient id="linear-gradient-19" x1="0" y1="0.5" x2="1" y2="0.5" xlink:href="#linear-gradient-16"/>
    <linearGradient id="linear-gradient-20" x1="1.38" y1="0.445" x2="-0.157" y2="0.528" xlink:href="#linear-gradient-17"/>
    <linearGradient id="linear-gradient-21" x1="0.08" y1="0.883" x2="1.12" y2="0.219" xlink:href="#linear-gradient-14"/>
    <linearGradient id="linear-gradient-22" x1="0.026" y1="0.841" x2="0.57" y2="0.175" xlink:href="#linear-gradient-14"/>
    <linearGradient id="linear-gradient-23" x1="3.948" y1="-0.128" x2="3.372" y2="0.895" gradientUnits="objectBoundingBox">
      <stop offset="0" stop-color="#c5c5c5"/>
      <stop offset="1" stop-color="#93989a"/>
    </linearGradient>
    <linearGradient id="linear-gradient-24" x1="-0.306" y1="0.876" x2="0.627" y2="0.205" xlink:href="#linear-gradient-17"/>
    <linearGradient id="linear-gradient-25" x1="0.377" y1="-9.322" x2="-0.616" y2="-82.09" xlink:href="#linear-gradient-15"/>
    <linearGradient id="linear-gradient-26" x1="0.621" y1="0.741" x2="0.036" y2="-0.46" xlink:href="#linear-gradient-15"/>
    <linearGradient id="linear-gradient-27" x1="0.73" y1="0.296" x2="0.413" y2="0.591" gradientUnits="objectBoundingBox">
      <stop offset="0" stop-color="#025d72"/>
      <stop offset="1" stop-color="#005967"/>
    </linearGradient>
    <linearGradient id="linear-gradient-28" x1="-2.647" y1="0.5" x2="1.888" y2="0.5" xlink:href="#linear-gradient-27"/>
    <linearGradient id="linear-gradient-29" x1="0.596" y1="1.021" x2="0.432" y2="-0.014" xlink:href="#linear-gradient-15"/>
    <linearGradient id="linear-gradient-30" x1="0.776" y1="-5.321" x2="0.334" y2="4.003" gradientUnits="objectBoundingBox">
      <stop offset="0.005" stop-color="#3f290f"/>
      <stop offset="0.995" stop-color="#331d08"/>
    </linearGradient>
    <linearGradient id="linear-gradient-31" x1="-0.31" y1="0.5" x2="1" y2="0.5" xlink:href="#linear-gradient-27"/>
    <linearGradient id="linear-gradient-32" x1="0.18" y1="0.22" x2="0.398" y2="0.335" xlink:href="#linear-gradient-27"/>
    <linearGradient id="linear-gradient-33" x1="0.763" y1="0.603" x2="0.147" y2="-0.172" xlink:href="#linear-gradient-15"/>
    <linearGradient id="linear-gradient-34" x1="0.731" y1="0.618" x2="0.199" y2="-0.151" xlink:href="#linear-gradient-15"/>
    <linearGradient id="linear-gradient-35" x1="0.233" y1="0.387" x2="0.707" y2="0.837" xlink:href="#linear-gradient-27"/>
    <linearGradient id="linear-gradient-36" y1="0.5" x2="1" y2="0.5" gradientUnits="objectBoundingBox">
      <stop offset="0" stop-color="#ec9956"/>
      <stop offset="1" stop-color="#e58d47"/>
    </linearGradient>
    <linearGradient id="linear-gradient-37" x1="0" y1="0.5" x2="1" y2="0.5" xlink:href="#linear-gradient-10"/>
    <linearGradient id="linear-gradient-38" x1="-0.002" y1="0.5" x2="1" y2="0.5" xlink:href="#linear-gradient-17"/>
    <linearGradient id="linear-gradient-39" x1="1.151" y1="0.964" x2="0.248" y2="0.209" xlink:href="#linear-gradient-6"/>
    <linearGradient id="linear-gradient-40" x1="0.436" y1="0.991" x2="0.547" y2="-0.007" xlink:href="#linear-gradient-6"/>
    <linearGradient id="linear-gradient-41" x1="0.816" y1="0.973" x2="0.454" y2="0.184" xlink:href="#linear-gradient-6"/>
    <linearGradient id="linear-gradient-42" x1="0.407" y1="0.994" x2="0.574" y2="-0.005" xlink:href="#linear-gradient-6"/>
    <linearGradient id="linear-gradient-43" x1="0.876" y1="0.845" x2="0.275" y2="0.395" gradientUnits="objectBoundingBox">
      <stop offset="0" stop-color="#d6b89e"/>
      <stop offset="0.99" stop-color="#edcfb5"/>
    </linearGradient>
    <linearGradient id="linear-gradient-44" x1="0.852" y1="0.815" x2="0.418" y2="0.159" xlink:href="#linear-gradient-43"/>
    <linearGradient id="linear-gradient-45" x1="0.737" y1="0.67" x2="0.549" y2="0.538" gradientUnits="objectBoundingBox">
      <stop offset="0" stop-color="#0b4950"/>
      <stop offset="0.99" stop-color="#005260"/>
    </linearGradient>
    <linearGradient id="linear-gradient-46" x1="0.601" y1="0.749" x2="0.348" y2="0.092" xlink:href="#linear-gradient-15"/>
    <linearGradient id="linear-gradient-47" x1="0.463" y1="0.618" x2="-0.698" y2="-0.293" xlink:href="#linear-gradient-15"/>
    <linearGradient id="linear-gradient-48" x1="0.625" y1="0.679" x2="-0.237" y2="-0.512" xlink:href="#linear-gradient-15"/>
    <linearGradient id="linear-gradient-49" x1="0.774" y1="-7.61" x2="0.335" y2="5.384" gradientUnits="objectBoundingBox">
      <stop offset="0" stop-color="#a45d2c"/>
      <stop offset="0.995" stop-color="#94461e"/>
    </linearGradient>
    <linearGradient id="linear-gradient-50" x1="0.529" y1="2.089" x2="0.293" y2="-6.696" xlink:href="#linear-gradient-15"/>
    <linearGradient id="linear-gradient-51" x1="0.539" y1="1.767" x2="0.296" y2="-6.034" xlink:href="#linear-gradient-15"/>
    <linearGradient id="linear-gradient-52" x1="0.779" y1="1.12" x2="0.377" y2="0.045" xlink:href="#linear-gradient-14"/>
    <linearGradient id="linear-gradient-53" x1="0" y1="0.5" x2="1" y2="0.5" xlink:href="#linear-gradient-17"/>
    <linearGradient id="linear-gradient-54" x1="0" y1="0.5" x2="1" y2="0.5" xlink:href="#linear-gradient-16"/>
    <linearGradient id="linear-gradient-55" x1="2.449" y1="2.059" x2="1.466" y2="3.735" xlink:href="#linear-gradient-5"/>
    <linearGradient id="linear-gradient-56" x1="0.818" y1="1.182" x2="0.515" y2="1.844" xlink:href="#linear-gradient-5"/>
    <linearGradient id="linear-gradient-57" x1="0.919" y1="0.882" x2="0.547" y2="1.476" gradientUnits="objectBoundingBox">
      <stop offset="0" stop-color="#23201f"/>
      <stop offset="1" stop-color="#1c1916"/>
    </linearGradient>
    <linearGradient id="linear-gradient-58" x1="3.443" y1="7.207" x2="2.796" y2="6.631" xlink:href="#linear-gradient-57"/>
    <linearGradient id="linear-gradient-59" x1="1.842" y1="0.662" x2="0.079" y2="0.365" xlink:href="#linear-gradient-45"/>
    <linearGradient id="linear-gradient-60" x1="0.869" y1="0.609" x2="0.047" y2="0.388" xlink:href="#linear-gradient-45"/>
    <linearGradient id="linear-gradient-61" x1="0.755" y1="1.364" x2="0.358" y2="0.136" xlink:href="#linear-gradient-27"/>
  </defs>
  <g id="Group_872" data-name="Group 872" transform="translate(85.105 9.064)">
    <path id="Path_4319" data-name="Path 4319" d="M102.922,45.946a35.345,35.345,0,0,1-6.792,4.233,33.285,33.285,0,0,1-15.977,3.472c-9.946-.5-15.521-4.454-17.582-6.28a10.2,10.2,0,0,1-.927-.913s5.464-4.288,5.962-8.8a55.678,55.678,0,0,0-.29-10.375c-.1-.982-.18-1.591-.18-1.591s-3.292.913-3.458,2.435c0,0-.124-.138-.318-.4a5.384,5.384,0,0,1-.29-.456,11.654,11.654,0,0,1-1.231-2.794c-.014-.042-.028-.1-.042-.152a4.11,4.11,0,0,1-.138-.622c-.47-2.531.235-6.225,3.029-9.766.221-.277.456-.553.692-.83A22.955,22.955,0,0,1,72.226,8a12.806,12.806,0,0,1,6.363-1.439,3.908,3.908,0,0,1,.4.028,9.992,9.992,0,0,1,1.439.194c.138.028.29.055.429.1a12.05,12.05,0,0,1,1.7.512c.124.055.263.1.387.152.221.1.443.18.664.29.111.055.221.111.346.166a16.571,16.571,0,0,1,1.6.913c.138.083.263.18.387.263h0a19.822,19.822,0,0,1,6.861,8.3c.1.221.194.456.3.719.069.18.152.36.221.553.5,1.162,1.107,2.559,1.757,4.081a.741.741,0,0,0,.069.152c.069.166.138.346.221.512.332.775.678,1.591,1.024,2.421C99.408,33.053,102.839,41.81,102.922,45.946Z" transform="translate(-61.523 -6.553)" fill="url(#linear-gradient)"/>
    <path id="Path_4320" data-name="Path 4320" d="M95.829,48.1a33.285,33.285,0,0,1-15.977,3.472c-9.946-.5-15.521-4.454-17.582-6.28,3.5-2.2,8.909-7.193,8.341-11.468-.65-4.9,5.547-10.306,5.713-10.638.041-.1.512-1.024,1.148-2.269-2.753,2.006-7.276,3.444-10.444,4.288-.1-.982-.18-1.591-.18-1.591s-3.292.913-3.458,2.435c-.954-1.452-2.518-6.4,2.642-7.567s14.3-3.859,15.535-6.543a5.868,5.868,0,0,1,.028.83s5.1,6.571,8.909,6.668a8.193,8.193,0,0,1,4.33,1.3c.415.982.858,2.02,1.314,3.085C95.3,28.208,93.187,40.6,95.829,48.1Z" transform="translate(-61.236 -4.488)" opacity="0.3" fill="url(#linear-gradient-2)"/>
    <path id="Path_4321" data-name="Path 4321" d="M81.814,31.13,79.5,39.278a6.81,6.81,0,0,0-1.19.678c-1.328.954-1.826,1.356-2.822,2.186L73.97,37.134l-1.12-3.68A15.942,15.942,0,0,0,81.814,31.13Z" transform="translate(-57.181 2.868)" fill="url(#linear-gradient-3)"/>
    <path id="Path_4322" data-name="Path 4322" d="M72.81,33.582l.069.207a16.044,16.044,0,0,0,8.95-2.338l.332-1.162Z" transform="translate(-57.196 2.546)" fill="url(#linear-gradient-4)"/>
    <path id="Path_4323" data-name="Path 4323" d="M93.367,29.5A4.042,4.042,0,0,1,91.4,30.638a1.373,1.373,0,0,1-1.259-.346s-.346,2.545-3.541,6.5A7.266,7.266,0,0,1,84.97,38.26a16.038,16.038,0,0,1-8.95,2.324,13.338,13.338,0,0,1-6.253-1.494c-.249-.138-.484-.29-.705-.429-4.122-2.7-5.049-6.585-4.108-9.241a19.2,19.2,0,0,0,.705-3.348c.194-1.439.277-2.684.277-2.684A26.8,26.8,0,0,0,80.682,12.53s.1.194.29.539c.913,1.646,3.887,6.6,7.705,8.134a6.039,6.039,0,0,0,2.033.456l.152,4.593s.415-2.656,2.67-2.587a1.467,1.467,0,0,1,1.4.968C95.469,25.92,94.861,28.12,93.367,29.5Z" transform="translate(-60.337 -4.261)" fill="url(#linear-gradient-5)"/>
    <path id="Path_4324" data-name="Path 4324" d="M86.095,21.59a6.11,6.11,0,0,0-2.255,3.68,1.641,1.641,0,0,0,1.48-.36c.844-.609-.318-1.3-.318-1.3Z" transform="translate(-52.968 -0.789)" fill="#d77140"/>
    <path id="Path_4325" data-name="Path 4325" d="M80.687,13.079a2.373,2.373,0,0,1-.277,1.134s-3.32,8.217-15.05,11.869c.194-1.439.277-2.684.277-2.684A26.8,26.8,0,0,0,80.383,12.54S80.507,12.734,80.687,13.079Z" transform="translate(-60.052 -4.258)" fill="#e77653" opacity="0.3"/>
    <path id="Path_4326" data-name="Path 4326" d="M81.814,31.13,79.5,39.278s-.512.263-1.19.678a3.814,3.814,0,0,0-4.344-2.822l-1.12-3.68A15.942,15.942,0,0,0,81.814,31.13Z" transform="translate(-57.181 2.868)" fill="#e77653" opacity="0.3"/>
    <g id="Group_871-2" data-name="Group 871" transform="translate(0.135 0.032)" opacity="0.4">
      <path id="Path_4327" data-name="Path 4327" d="M82.494,7.3a12.508,12.508,0,0,1-2.96,5.229,34.206,34.206,0,0,1-7.083,5.921c-3.057,2.02-6.6,3.859-8.6,7.069A8.848,8.848,0,0,0,62.92,27.5a5.384,5.384,0,0,1-.29-.456c.111-.3.249-.595.387-.9,1.286-2.559,3.624-4.4,5.962-5.934a53.691,53.691,0,0,0,9.1-6.751C79.8,11.743,81.6,9.585,82.107,7.15,82.245,7.205,82.384,7.261,82.494,7.3Z" transform="translate(-61.233 -6.356)" fill="#af5c01"/>
      <path id="Path_4328" data-name="Path 4328" d="M80.807,6.817a14.5,14.5,0,0,1-1.6,2.9,17.716,17.716,0,0,1-6.363,5.187c-1.715.9-3.444,1.729-5.118,2.7a12.732,12.732,0,0,0-3.984,3.112A12.1,12.1,0,0,0,61.8,24.413c-.014-.042-.028-.1-.042-.152a4.11,4.11,0,0,1-.138-.622A10.49,10.49,0,0,1,62.7,21.48c1.729-2.684,4.468-4.108,7.235-5.533,2.96-1.522,6.1-2.946,8.272-5.589A15.051,15.051,0,0,0,80.392,6.72C80.516,6.748,80.654,6.775,80.807,6.817Z" transform="translate(-61.62 -6.521)" fill="#af5c01"/>
      <path id="Path_4329" data-name="Path 4329" d="M78.1,6.6c-.733,3.14-2.78,5.893-6.253,6.2-1.48.124-2.988-.18-4.468,0A9.9,9.9,0,0,0,63.8,13.941c.221-.277.456-.553.692-.83a9.037,9.037,0,0,1,3.735-.775c1.591.014,3.32.3,4.869-.152a6.136,6.136,0,0,0,3.375-2.656A10.015,10.015,0,0,0,77.7,6.582,1.98,1.98,0,0,1,78.1,6.6Z" transform="translate(-60.784 -6.576)" fill="#af5c01"/>
      <path id="Path_4330" data-name="Path 4330" d="M89.346,23.129a21.255,21.255,0,0,1-8.355-4.081,10.187,10.187,0,0,1-3.389-5.63,15.2,15.2,0,0,1-.249-4.745,12.162,12.162,0,0,1,.208-1.2c.111.055.221.111.346.166V7.65a15.6,15.6,0,0,0-.028,5.008,10.056,10.056,0,0,0,3.749,6.391,22.614,22.614,0,0,0,7.5,3.583C89.194,22.783,89.263,22.963,89.346,23.129Z" transform="translate(-55.621 -6.233)" fill="#af5c01"/>
      <path id="Path_4331" data-name="Path 4331" d="M86.68,18.085A13.063,13.063,0,0,1,82.6,15.844a10.637,10.637,0,0,1-3.209-4.164,8.482,8.482,0,0,1-.5-3.431c.138.083.263.18.387.263h0a7.288,7.288,0,0,0,.595,3.251,10.541,10.541,0,0,0,3.182,3.915,13.931,13.931,0,0,0,3.389,1.854C86.514,17.712,86.6,17.892,86.68,18.085Z" transform="translate(-55.002 -5.934)" fill="#af5c01"/>
    </g>
    <path id="Path_4332" data-name="Path 4332" d="M93.712,22.258c-1.978,1.19-3.085,4.233-3.541,5.976a1.373,1.373,0,0,1-1.259-.346s-.346,2.545-3.541,6.5a7.266,7.266,0,0,1-1.632,1.466,16.038,16.038,0,0,1-8.95,2.324,13.338,13.338,0,0,1-6.253-1.494c-.249-.138-.484-.29-.705-.429,4.883,1.757,11.634.982,15.369-2.1,4.344-3.583,4.994-10.748,4.247-15.355a6.038,6.038,0,0,0,2.033.456l.152,4.593s.415-2.656,2.67-2.587A1.515,1.515,0,0,1,93.712,22.258Z" transform="translate(-59.105 -1.858)" fill="#e77653" opacity="0.3"/>
  </g>
  <g id="Group_877" data-name="Group 877" transform="translate(38.798 111.56)">
    <g id="Group_873" data-name="Group 873" transform="translate(82.688 6.218)">
      <path id="Path_4333" data-name="Path 4333" d="M103.672,132.269a.444.444,0,0,1-.429-.318l-15.4-46.2a.459.459,0,0,1,.871-.29l15.4,46.216a.465.465,0,0,1-.29.581C103.769,132.255,103.713,132.269,103.672,132.269Z" transform="translate(-87.822 -85.142)" fill="url(#linear-gradient-6)"/>
    </g>
    <g id="Group_874" data-name="Group 874" transform="translate(52.765 9.15)">
      <path id="Path_4334" data-name="Path 4334" d="M66.646,131.456a.589.589,0,0,1-.152-.028.458.458,0,0,1-.277-.581L81.392,87.564a.455.455,0,0,1,.858.3L67.075,131.152A.456.456,0,0,1,66.646,131.456Z" transform="translate(-66.191 -87.261)" fill="url(#linear-gradient-7)"/>
    </g>
    <g id="Group_875" data-name="Group 875">
      <path id="Path_4335" data-name="Path 4335" d="M28.508,133.992a.383.383,0,0,1-.125-.014.454.454,0,0,1-.318-.567L43.157,80.983a.46.46,0,1,1,.885.249L28.95,133.66A.445.445,0,0,1,28.508,133.992Z" transform="translate(-28.047 -80.647)" fill="url(#linear-gradient-8)"/>
    </g>
    <g id="Group_876" data-name="Group 876" transform="translate(23.038 2.662)">
      <path id="Path_4336" data-name="Path 4336" d="M62.959,133.309a.457.457,0,0,1-.429-.3l-17.8-49.827a.455.455,0,0,1,.858-.3l17.8,49.841a.458.458,0,0,1-.277.581C63.056,133.3,63.015,133.309,62.959,133.309Z" transform="translate(-44.701 -82.571)" fill="url(#linear-gradient-9)"/>
    </g>
  </g>
  <path id="Path_4337" data-name="Path 4337" d="M77.043,86.719A23.679,23.679,0,0,1,73,91.048C66.945,96,60.1,95.378,51.2,95.3c-3.5-.042-16.2-.678-24.125-4.454a7.017,7.017,0,0,1-3.071-3.915c-2.324-5.865-2.02-16.683,2.988-25.19C30.73,55.373,37.107,50.31,46.97,49.521c13.944-1.107,23.309,6.045,28.22,14.594C79.948,72.388,80.515,81.988,77.043,86.719Z" transform="translate(8.667 18.939)" fill="url(#linear-gradient-10)"/>
  <path id="Path_4338" data-name="Path 4338" d="M121.9,80.446c-.456,9.282-9.13,17.444-9.13,17.444-19.781,5.27-39.881,1.425-43.2,0l.028-.042L86.82,68.909l6.156-10.333a24.852,24.852,0,0,1,10.735-1.508c6.806.664,11.5,4.786,14.4,9.642A26.125,26.125,0,0,1,121.9,80.446Z" transform="translate(26.667 21.836)" fill="url(#linear-gradient-11)"/>
  <path id="Path_4339" data-name="Path 4339" d="M96.243,78.772c1.549,5.312-7.124,5.865-7.124,5.865A83.713,83.713,0,0,1,82.05,68.909l6.156-10.333A24.852,24.852,0,0,1,98.94,57.068C97.294,63.68,95.025,74.622,96.243,78.772Z" transform="translate(31.451 21.836)" opacity="0.3" fill="url(#linear-gradient-12)"/>
  <path id="Path_4340" data-name="Path 4340" d="M69.643,78.9c1.079,2.559,2.933,7.318,2.974,12.145C66.558,96,59.711,95.378,50.816,95.3c-3.5-.041-16.2-.678-24.125-4.454a7.017,7.017,0,0,1-3.071-3.915c3.278-3.251,9.116-6.681,10.223-9.78,1.286-3.583-2.794-10.416-7.221-15.41C30.357,55.373,36.734,50.31,46.6,49.521c13.944-1.107,23.309,6.045,28.22,14.594C71.69,68.583,68.218,75.5,69.643,78.9Z" transform="translate(9.054 18.939)" opacity="0.3" fill="url(#linear-gradient-13)"/>
  <g id="Group_878" data-name="Group 878" transform="translate(105.782 148.416)">
    <path id="Path_4341" data-name="Path 4341" d="M81.284,122.133c-.138-.373-.29-.761-.456-1.134a59.528,59.528,0,0,0-3.97-7.774l-.1-1.508-.29-4.427a15.448,15.448,0,0,1,2.946.941,2.545,2.545,0,0,1,1.273,1.024,16.644,16.644,0,0,1,.761,5.243C81.588,118.163,81.284,122.133,81.284,122.133Z" transform="translate(-76.47 -107.29)" fill="#47362b"/>
    <path id="Path_4342" data-name="Path 4342" d="M80.464,121.872c-.138-.373-.29-.761-.456-1.134a47.019,47.019,0,0,0-1.4-12.768,2.545,2.545,0,0,1,1.273,1.024C81.224,112.037,80.464,121.872,80.464,121.872Z" transform="translate(-75.65 -107.029)" fill="#47362b" opacity="0.4"/>
  </g>
  <path id="Path_4343" data-name="Path 4343" d="M85.829,86.718,73.752,91.255l-.429-.1-2.158-.5a27.254,27.254,0,0,0,1.2-3.016,54.191,54.191,0,0,0,2.545-16.337c-.692-.083-1.314-.18-1.867-.277-.111-.014-.221-.041-.318-.055-.263-.041-.5-.1-.733-.138-.055-.014-.124-.028-.18-.041l-.207-.041c-.111-.028-.539-.042-.636-.069-.346-.083-1.162-.166-1.162-.221V67.877l.36-.055.913-3.624s.1.014.111.014a3.618,3.618,0,0,0,.705.069c.014,0,.055.3.083.3.733.028,1.881.29,2.421.29h.014c.138,0,.235-.318.277-.332a68.788,68.788,0,0,0-.733-9.075c-.221-2.047.041-9.144.29-14.179.111-2.269.221-4.178.277-5.021.014-.249.028-.1.041-.138.028-.208.1-.028.221-.028H74.8a15.589,15.589,0,0,0,1.9-.125,32.969,32.969,0,0,0,5.1-1.217c.041,0,.069-.111.1-.111-.028.152-.069.263-.111.443-.083.36-.18.733-.277,1.162-.346,1.466-.747,3.265-1.148,5.243-1.079,5.3-2.158,11.827-2.033,16.378a60.572,60.572,0,0,0,2.255,12.256c.124.484.263.968.4,1.452.166.622.346,1.245.526,1.84C83.56,80.452,85.829,86.718,85.829,86.718Z" transform="translate(26.759 13.282)" fill="url(#linear-gradient-14)"/>
  <path id="Path_4344" data-name="Path 4344" d="M96.6,75.8v1.48a6.6,6.6,0,0,0-4.855-2.006c-4.606-.263-10.1,2.006-10.1,2.006-2.974-4.274-4-9.835-4.274-12.284a6.094,6.094,0,0,1-.069-1.259L77.29,61.5,90.473,58.55C90.763,66.546,96.6,75.8,96.6,75.8Z" transform="translate(29.626 22.443)" fill="url(#linear-gradient-15)"/>
  <path id="Path_4345" data-name="Path 4345" d="M80.99,59.931,80.105,66.6,77.435,73c-2.6.069-6.128.138-10.167.221l.415,8.715a3.051,3.051,0,0,0-.747-.069c-4.468,0-17.042,5.616-17.042,5.616a17.11,17.11,0,0,0-7.387-4.648c-2.49-.885-4.5-1.217-4.5-1.273s-.526-1.618-1.162-3.444c-.512-1.452-1.079-3.071-1.508-4.233-8.037.194-13.861.387-13.861.526.111.456-2.85-5.478,1.037-19.629,2.628-9.628,6.17-15.991,10.1-20.03a22.506,22.506,0,0,1,3.085-2.67c.484-.346.968-.664,1.466-.954.4-.235.8-.456,1.217-.664.47-.235.927-.456,1.4-.664a35.34,35.34,0,0,1,5.187-1.881,29.342,29.342,0,0,1,3.735-.761,23.617,23.617,0,0,1,8.3.332,23.322,23.322,0,0,1,2.946.871A24.294,24.294,0,0,1,64.4,30.577c.055.028.111.069.166.1a30.677,30.677,0,0,1,5.118,4.164,39.266,39.266,0,0,1,4.62,5.672C78.072,46.14,79.994,53.6,80.99,59.931Z" transform="translate(7.86 10.327)" fill="url(#linear-gradient-16)"/>
  <path id="Path_4346" data-name="Path 4346" d="M71.324,81.971a13.983,13.983,0,0,0-2.822-6.82,8.243,8.243,0,0,0-4.7-2.725c-2.061-.429-5.962,1.383-8.355,6.183a18.558,18.558,0,0,0-1.618,4.883l-.069.014L29.424,85.332c5.824,17.928-3.2,40.656-3.2,40.656s-.581.346-1.231.747c-.18.111-.36.235-.526.346a5.1,5.1,0,0,0-1.093.871c-.346.484-4-21.151-6.391-36.45s-.913-18.841,2.282-20.777a11.653,11.653,0,0,1,2.545-1.037c4.606-1.439,12.906-2.642,17.983-3.237,0,.111,8.051,1.3,11.9,5.921,0,0,10.015-4.482,15.355-5.436a6.968,6.968,0,0,1,2.448-.111A41.8,41.8,0,0,1,71.324,81.971Z" transform="translate(6.058 25.471)" fill="url(#linear-gradient-17)"/>
  <path id="Path_4347" data-name="Path 4347" d="M60.793,80.332c-.885-5.091-3.112-8.618-7.539-9.545C50.6,70.234,44.885,73.4,43.28,81.853l17.513-1.48Q60.772,80.373,60.793,80.332Z" transform="translate(16.59 27.11)" fill="url(#linear-gradient-18)"/>
  <path id="Path_4348" data-name="Path 4348" d="M76.473,57.749l-.885,6.668-2.67,6.419c-2.6.069-6.142.138-10.181.221l.415,8.715h0c-3.555-.816-17.789,5.547-17.789,5.547a17.11,17.11,0,0,0-7.387-4.648c-2.49-.885-4.51-1.217-4.51-1.273s-.539-1.618-1.176-3.444c5.575-.346,27.694-2.421,32.7-13.335,4.676-10.2,3.126-23.087.124-29.949a39.266,39.266,0,0,1,4.62,5.672C73.554,43.944,75.491,51.4,76.473,57.749Z" transform="translate(12.377 12.523)" opacity="0.1" fill="url(#linear-gradient-19)"/>
  <path id="Path_4349" data-name="Path 4349" d="M60.444,98.992c-1.826,14.29-9.752,33.919-10.154,34.126a9.015,9.015,0,0,1-1.854.65,10.005,10.005,0,0,1-2.033.263s-3.085-33.9-3.431-46.576a26.1,26.1,0,0,1,.415-5.6c1.2-6.322,4.689-9.683,7.484-10.748a4.57,4.57,0,0,1,2.476-.318c4.427.927,6.654,4.44,7.539,9.545C61.786,85.353,61.357,91.91,60.444,98.992Z" transform="translate(16.468 27.11)" fill="url(#linear-gradient-20)"/>
  <path id="Path_4350" data-name="Path 4350" d="M54.971,47.381c-1.48,11.869-8.272,35.5-8.272,35.5s-5.658-9.241-9.918-24.429A128.039,128.039,0,0,1,32.52,31.141c.4-.235.8-.456,1.217-.664.47-.235.927-.456,1.4-.664a35.34,35.34,0,0,1,5.187-1.881,29.343,29.343,0,0,1,3.735-.761,23.617,23.617,0,0,1,8.3.332,23.323,23.323,0,0,1,2.946.871A93.587,93.587,0,0,1,54.971,47.381Z" transform="translate(12.465 10.331)" fill="#381f00"/>
  <path id="Path_4351" data-name="Path 4351" d="M41.443,63.18c.014.083.014.124,0,.111S41.429,63.249,41.443,63.18Z" transform="translate(15.882 24.218)" fill="url(#linear-gradient-21)"/>
  <path id="Path_4352" data-name="Path 4352" d="M51.875,33.257a132.621,132.621,0,0,1-1.051,13.861,171.292,171.292,0,0,1-6.7,29.949c-.152-.871-2.172-6.681-4.883-16.627A184.281,184.281,0,0,1,34.8,34.848c-.207-1.964-.346-3.61-.4-4.772a1.674,1.674,0,0,1-.014-.263,35.34,35.34,0,0,1,5.187-1.881l3.735-.761a23.274,23.274,0,0,1,8,.277c.1.014.207.042.3.055A36.98,36.98,0,0,1,51.875,33.257Z" transform="translate(13.182 10.331)" fill="url(#linear-gradient-22)"/>
  <path id="Path_4353" data-name="Path 4353" d="M51.871,33.12A132.621,132.621,0,0,1,50.82,46.981a171.293,171.293,0,0,1-6.7,29.949c-.152-.871-2.172-6.681-4.883-16.627A184.28,184.28,0,0,1,34.8,34.711c-.207-1.964-.346-3.61-.4-4.772l.124-.014c0,1.729,2.13,15.507,3.5,21.939s4.759,19.657,6.114,22.451c0,0,1.48-6.861,3.514-13.266,1.964-6.225,4.9-27.929,3.68-33.739.1.014.207.042.3.055A42,42,0,0,1,51.871,33.12Z" transform="translate(13.186 10.468)" fill="#96b1c5" opacity="0.4"/>
  <path id="Path_4354" data-name="Path 4354" d="M40.22,59.29h9.863l.553,1.923H41.354Z" transform="translate(15.417 22.727)" fill="#7c7e7f"/>
  <path id="Path_4355" data-name="Path 4355" d="M10.64,47.546l9.614,16.669.941,1.632h31.5l-.871-1.522L41.612,47.2l-4.579.041Z" transform="translate(4.078 18.092)" fill="url(#linear-gradient-23)"/>
  <path id="Path_4356" data-name="Path 4356" d="M30.07,54.634A5.067,5.067,0,0,0,26.6,52.96c-2.047,0-2.559,1.286-2.614,1.7,0,0-.664-1.134-1.383-1.19a1.617,1.617,0,0,0,1.314,1.549A1.454,1.454,0,0,0,22.6,56.128s1.217.152,1.494-.816a4.426,4.426,0,0,0,2.794.788A4.932,4.932,0,0,0,30.07,54.634Z" transform="translate(8.663 20.3)" fill="#c8c8c8" opacity="0.6"/>
  <path id="Path_4357" data-name="Path 4357" d="M58.927,98.992c-1.826,14.29-9.752,33.919-10.154,34.126a9.016,9.016,0,0,1-1.854.65c1.383-7.138,4.579-24.1,6.073-35.786C54.86,83.347,52.8,74.812,49.368,71.1a4.57,4.57,0,0,1,2.476-.318c4.427.927,6.654,4.44,7.539,9.545C60.269,85.353,59.84,91.91,58.927,98.992Z" transform="translate(17.985 27.11)" opacity="0.2" fill="url(#linear-gradient-24)"/>
  <path id="Path_4358" data-name="Path 4358" d="M70.984,75.463a2.217,2.217,0,0,0,.124-.277L69.96,74.91C70.375,75.117,70.735,75.311,70.984,75.463Z" transform="translate(26.817 28.714)" fill="url(#linear-gradient-25)"/>
  <path id="Path_4359" data-name="Path 4359" d="M70.416,59.65c-.166,8.909-.456,21.109-.456,21.109h0l1.148.277c.65-1.425,3.569-8.438,3.749-20.487A26.609,26.609,0,0,1,70.416,59.65Z" transform="translate(26.817 22.865)" fill="#b9b9b9"/>
  <path id="Path_4360" data-name="Path 4360" d="M51.867,33.253a15.771,15.771,0,0,1-5.616,2.338L43.139,32.8,41.313,36.38a43.038,43.038,0,0,1-6.488-1.535h0c-.221-2.116-.36-3.859-.415-5.021A35.34,35.34,0,0,1,39.6,27.941l3.735-.761a23.617,23.617,0,0,1,8.3.332A41.639,41.639,0,0,1,51.867,33.253Z" transform="translate(13.19 10.335)" fill="#d8eff8" opacity="0.7"/>
  <path id="Path_4361" data-name="Path 4361" d="M96.6,75.8v1.48a6.6,6.6,0,0,0-4.855-2.006c-.622-5.077-3.818-10.14-5.16-10.818-1.508-.747-6.668.138-9.213.539a6.094,6.094,0,0,1-.069-1.259L77.29,61.5,90.473,58.55C90.763,66.546,96.6,75.8,96.6,75.8Z" transform="translate(29.626 22.443)" opacity="0.3" fill="url(#linear-gradient-26)"/>
  <path id="Path_4362" data-name="Path 4362" d="M68.23,108.918c-.138-.111-3.431-2.85-6.488-5.423-1.217-1.037-2.407-2.047-3.334-2.85C55.116,97.8,47.66,90.713,52.1,85.125S71.315,71.762,72.311,71.43l-.567,2.061s.871.415,2.02.968c.913.443,1.992.968,2.919,1.439.235.111.456.235.664.346l1.148.277,2.158.512c-9.932,4.606-20.21,10.4-21.234,13.46C58.284,93.826,63.568,102.07,68.23,108.918Z" transform="translate(19.444 27.38)" fill="url(#linear-gradient-27)"/>
  <path id="Path_4363" data-name="Path 4363" d="M71.509,76.3h0l1.148.277a29.684,29.684,0,0,0,1.2-3.2c-2.642-1.48-5.464-2.559-7.373-1.9l-.567,2.061S69.434,75.22,71.509,76.3Z" transform="translate(25.268 27.325)" fill="url(#linear-gradient-28)"/>
  <path id="Path_4364" data-name="Path 4364" d="M78.891,63.8v.028l.235.014c-.028.111.069.166.028.18-.138.014-2.116-.069-3.223-.152H75.9a2.822,2.822,0,0,1-.636-.083V63.8l-1.107,3.68-.36.042v.028l.194.747-.166,1.646h.1a.27.27,0,0,1,.1.014.309.309,0,0,1,.138.041c.014,0,.041.014.055.014a.8.8,0,0,1,.221.069c.207.055.484.138.83.221a2.408,2.408,0,0,1,.3.069l.207.041c.055.014.124.028.18.041.235.041.47.1.733.138.1.014.208.041.318.055.553.1,1.176.194,1.867.277a54.191,54.191,0,0,1-2.545,16.337,24.636,24.636,0,0,1-1.2,3.016l-1.162-.263c-2.075-1.024-5.6-2.6-5.6-2.6l.567-1.937,2.462-14.76L59.4,70.492l3.375-16.212s5.187-10.486,6.958-13.349a12.315,12.315,0,0,1,2.393-2.808c.36-.318.733-.263,1.107-.526a10.644,10.644,0,0,1,5.561-1.937h.014s.028,2.448,0,5.533c-.014,2.3-.055,4.593-.166,6.183-.318,4.745.885,13.916.761,16.2,0,.028-.249,0-.249.028C79.14,63.714,78.891,63.755,78.891,63.8Z" transform="translate(22.769 13.669)" fill="url(#linear-gradient-29)"/>
  <path id="Path_4365" data-name="Path 4365" d="M17.59,64.215l.941,1.632h31.5l-.885-1.522L38.948,47.2l-4.579.055C34.259,52.221,32.433,64.27,17.59,64.215Z" transform="translate(6.742 18.092)" fill="#c5c5c5" opacity="0.3"/>
  <rect id="Rectangle_179" data-name="Rectangle 179" width="92.779" height="3.458" transform="translate(13.404 86.18)" fill="url(#linear-gradient-30)"/>
  <path id="Path_4366" data-name="Path 4366" d="M84.376,77.081s-1.342-1.148-3.265-2.531c-10.721,4.745-22.935,11.4-24.07,14.746s4.164,11.578,8.826,18.426L60.362,91.814Z" transform="translate(21.807 28.576)" fill="url(#linear-gradient-31)"/>
  <path id="Path_4367" data-name="Path 4367" d="M103.731,83.408C95.611,88.429,70.117,94.5,70.117,94.5s4.385,2.061,9.766,10.735,4.5,28.884,4.5,28.884-.194.166-.429.373c-.4.318-.941.733-1.051.664-.194-.111-8.134-12.671-12.754-19.629-1.162-1.757-2.67-3.915-4.247-6.225-4.676-6.861-9.946-15.106-8.826-18.426,1.134-3.348,13.349-9.988,24.07-14.732,3.541-1.563,6.917-2.933,9.669-3.9A24.841,24.841,0,0,1,99.457,70.5c3.652.1,4.593,1.84,4.994,2.227C104.409,72.7,109.776,79.673,103.731,83.408Z" transform="translate(21.818 27.022)" fill="url(#linear-gradient-32)"/>
  <path id="Path_4368" data-name="Path 4368" d="M101.178,83.41C93.058,88.432,67.564,94.5,67.564,94.5s4.385,2.061,9.766,10.735,4.5,28.884,4.5,28.884-.194.166-.429.373c-.692-9.337-4.413-23.447-7.719-29.589a26.027,26.027,0,0,0-10.1-10.389s14.137-4.8,21.843-8.452C92.643,82.635,96.586,73.893,96.89,70.49c3.652.1,4.593,1.84,4.994,2.227C101.856,72.7,107.224,79.675,101.178,83.41Z" transform="translate(24.371 27.02)" opacity="0.3" fill="url(#linear-gradient-33)"/>
  <path id="Path_4369" data-name="Path 4369" d="M66.6,107.68c-.138-.111-3.431-2.85-6.488-5.423-2.78-5.008-5.478-10.693-5.077-13.321.719-4.676,15-11.44,20-14.276.235.111.456.235.664.346l1.148.277L79,75.794C69.072,80.4,58.794,86.2,57.77,89.254,56.649,92.588,61.934,100.832,66.6,107.68Z" transform="translate(21.079 28.618)" opacity="0.3" fill="url(#linear-gradient-34)"/>
  <path id="Path_4370" data-name="Path 4370" d="M88.8,69.408a64.178,64.178,0,0,1-8.217.705c-4.247.18-8.715.042-10.126.069-.083,0-.166-.235-.221-.235h-.221l.014.166L70,68.578l-.194-.664h0l.36-.1.692-3.6a34.6,34.6,0,0,0,3.541.65h.014c.111,0,.207-.29.29-.29s.18.166.277.166c.18,0,.36.138.526.138h.041A3.153,3.153,0,0,0,77.889,64v-.18a42.664,42.664,0,0,1-.18-5.575,97.268,97.268,0,0,1,2.13-14.8c.138-.664.277-1.314.4-1.937.844-3.915,1.563-6.82,1.577-6.889.042,0,.069-.028.1-.028a22.993,22.993,0,0,1,5.519.705,15.335,15.335,0,0,1,4.025,1.577,23.277,23.277,0,0,1,2.5,1.688c2.891,2.241,4.952,5.257,5.768,10.569C100.935,56.834,99.344,66.89,88.8,69.408Z" transform="translate(26.759 13.259)" fill="url(#linear-gradient-35)"/>
  <g id="Group_879" data-name="Group 879" transform="translate(102.522 161.142)">
    <path id="Path_4371" data-name="Path 4371" d="M80.634,120.709a15.356,15.356,0,0,1-2.338,3.984,47.994,47.994,0,0,1-4.164,4.689c-.014-.429-.014-.885.014-1.369a56.266,56.266,0,0,1,2.13-10.5l1.12-.775.36-.249,2.227,3.278Z" transform="translate(-74.11 -116.49)" fill="#47362b"/>
    <path id="Path_4372" data-name="Path 4372" d="M80.638,119.8c-1.2,3.541-6.515,8.673-6.515,8.673-.014-.429-.014-.885.014-1.369,2.462-2.822,5.229-6.557,5.851-8.245Z" transform="translate(-74.113 -115.582)" fill="#47362b" opacity="0.4"/>
  </g>
  <path id="Path_4373" data-name="Path 4373" d="M121.563,77.742c-.456,9.282-9.13,17.444-9.13,17.444-17.969,4.786-33.518,2.96-40.227,1-.678-.194-1.273-.4-1.757-.581,9.918-2.241,15.41-5.395,19.27-9.144s6.1-8.106,9.517-12.74c6.889-9.365,15.023-9.061,17.319-9.517,0,0,.456-.083,1.245-.18a23.761,23.761,0,0,1,1.273,2.421A25.328,25.328,0,0,1,121.563,77.742Z" transform="translate(27.004 24.54)" fill="url(#linear-gradient-36)"/>
  <path id="Path_4374" data-name="Path 4374" d="M121.077,77.079c-.456,9.282-9.13,17.444-9.13,17.444-17.969,4.786-33.518,2.96-40.227,1,40.171,2.518,47.046-17.208,46.867-29.769A25.512,25.512,0,0,1,121.077,77.079Z" transform="translate(27.491 25.203)" opacity="0.1" fill="url(#linear-gradient-37)"/>
  <path id="Path_4375" data-name="Path 4375" d="M57.128,81.886a13.983,13.983,0,0,0-2.822-6.82c.968-3.2-.456-6.4-1.466-8.217a6.968,6.968,0,0,1,2.448-.111A41.622,41.622,0,0,1,57.128,81.886Z" transform="translate(20.254 25.556)" opacity="0.2" fill="url(#linear-gradient-38)"/>
  <g id="Group_880" data-name="Group 880" transform="translate(18.412 151.445)">
    <path id="Path_4376" data-name="Path 4376" d="M28.665,117.3c-1.771.581-3.361,1.065-4.8,1.48-7.567,2.144-10.555,2.061-10.555,2.061a14.426,14.426,0,0,0,1.937-1.245h0c3.763-2.753,8.563-7.9,8.881-8.618l1.383-.678,1.66-.816a23.639,23.639,0,0,1,1.217,5.229C28.582,116.175,28.665,117.3,28.665,117.3Z" transform="translate(-13.31 -109.48)" fill="#372920"/>
    <path id="Path_4377" data-name="Path 4377" d="M28.665,115.843c-11.136,3.652-15.355,3.541-15.355,3.541a14.426,14.426,0,0,0,1.937-1.245h0c4.247-1.494,11.067-3.942,13.141-4.869C28.582,114.722,28.665,115.843,28.665,115.843Z" transform="translate(-13.31 -108.027)" fill="#372920" opacity="0.4"/>
  </g>
  <g id="Group_882" data-name="Group 882" transform="translate(63.217 66.593)">
    <path id="Path_4378" data-name="Path 4378" d="M77.433,48.14V64.754H48.148l-.111-.775L45.7,48.14Z" transform="translate(-45.7 -48.14)" fill="#282523"/>
    <g id="Group_881" data-name="Group 881">
      <path id="Path_4379" data-name="Path 4379" d="M67.4,50.561l.3,14.165,1.411.028V48.14Z" transform="translate(-37.382 -48.14)" fill="#cbcbcb" opacity="0.3"/>
      <path id="Path_4380" data-name="Path 4380" d="M45.7,48.14l.249,1.743,29.769.678,1.715-2.421Z" transform="translate(-45.7 -48.14)" fill="#4c4c4c" opacity="0.4"/>
    </g>
  </g>
  <g id="Group_883" data-name="Group 883" transform="translate(62.289 160.229)">
    <path id="Path_4381" data-name="Path 4381" d="M49.388,126.219c-.041.014-.069.041-.111.055-2.5,1.356-4.122.788-4.233.221a7.976,7.976,0,0,1,.014-1.148c.111-2.6.553-8.6.553-8.6l2.518-.595,1.369-.318s1.522,4.219,2.061,5.934c.083.249.138.443.166.567C51.947,123.314,51.947,124.794,49.388,126.219Z" transform="translate(-45.029 -115.83)" fill="#372920"/>
    <path id="Path_4382" data-name="Path 4382" d="M49.388,124.57c-2.573,1.425-4.219.858-4.344.29a7.978,7.978,0,0,1,.014-1.148c1.8.346,5.1.443,6.5-3.583.083.249.138.443.166.567C51.947,121.665,51.947,123.146,49.388,124.57Z" transform="translate(-45.029 -114.182)" fill="#372920" opacity="0.4"/>
  </g>
  <g id="Group_884" data-name="Group 884" transform="translate(16.088 89.459)">
    <path id="Path_4383" data-name="Path 4383" d="M13.968,64.67l-.041,6.266-.415,77.217H12.086l-.429-78.005L11.63,64.67Z" transform="translate(-11.63 -64.67)" fill="url(#linear-gradient-39)"/>
    <path id="Path_4384" data-name="Path 4384" d="M11.63,64.67h2.338l-.041,6.266-2.269-.788Z" transform="translate(-11.63 -64.67)" opacity="0.4" fill="url(#linear-gradient-40)"/>
  </g>
  <g id="Group_885" data-name="Group 885" transform="translate(99.875 89.653)">
    <path id="Path_4385" data-name="Path 4385" d="M74.538,64.81l-.055,9.434-.4,74.049H72.656l-.4-74.823L72.2,64.81Z" transform="translate(-72.2 -64.81)" fill="url(#linear-gradient-41)"/>
    <path id="Path_4386" data-name="Path 4386" d="M74.538,64.81l-.055,9.434-2.227-.775L72.2,64.81Z" transform="translate(-72.2 -64.81)" opacity="0.4" fill="url(#linear-gradient-42)"/>
  </g>
  <g id="Group_886" data-name="Group 886" transform="translate(90.329 74.192)">
    <path id="Path_4387" data-name="Path 4387" d="M72.784,57.958a21.411,21.411,0,0,1-.954,3.693c-2.269.4-6.17-.8-6.128-1.867a.409.409,0,0,1,.028-.138c.207-.692,1.8-.29,2.379-.124-.692-.221-2.822-.968-2.808-1.729.014-.733,1.881-.346,2.531-.18-.692-.194-2.725-.858-2.518-1.867.235-1.148,3.237.29,3.514.429-.249-.138-2.7-1.522-2.172-2.227,1.079-1.425,6.073,2.462,6.114,2.656A3.647,3.647,0,0,1,72.784,57.958Z" transform="translate(-65.299 -53.634)" fill="url(#linear-gradient-43)"/>
    <path id="Path_4388" data-name="Path 4388" d="M72.673,56.76a21.412,21.412,0,0,1-.954,3.693c-2.269.4-6.17-.8-6.128-1.867a.409.409,0,0,1,.028-.138,9.2,9.2,0,0,0,3.68,1.2C70.639,59.762,72.119,58.752,72.673,56.76Z" transform="translate(-65.188 -52.435)" opacity="0.5" fill="url(#linear-gradient-44)"/>
  </g>
  <path id="Path_4389" data-name="Path 4389" d="M75.66,59.987c.844-.332,7.152-1.909,10.278-7.1s3.431-8.7,3.431-8.7,1.065,6.778-3.431,10.942A20.484,20.484,0,0,1,75.66,59.987Z" transform="translate(29.001 16.939)" fill="url(#linear-gradient-45)"/>
  <path id="Path_4390" data-name="Path 4390" d="M89.824,65.5A39.124,39.124,0,0,1,74.857,66.54a24.575,24.575,0,0,1-4.9-1.037l.5-1.231a32.412,32.412,0,0,0,18.716-.705c9.282-3.029,9.794-13.626,10.237-19.546C100.573,52.4,99.411,62.971,89.824,65.5Z" transform="translate(26.817 16.873)" opacity="0.3" fill="url(#linear-gradient-46)"/>
  <path id="Path_4391" data-name="Path 4391" d="M79.727,120.709a15.356,15.356,0,0,1-2.338,3.984c-.36-2.822-.788-6.432-.9-7.954l.36-.249,2.227,3.278Z" transform="translate(29.32 44.652)" opacity="0.3" fill="url(#linear-gradient-47)"/>
  <path id="Path_4392" data-name="Path 4392" d="M81.464,114.483c-1.6-1.037-3.514-2.116-4.7-2.767l-.29-4.427a15.448,15.448,0,0,1,2.946.941,2.545,2.545,0,0,1,1.273,1.024A15.439,15.439,0,0,1,81.464,114.483Z" transform="translate(29.312 41.126)" opacity="0.3" fill="url(#linear-gradient-48)"/>
  <g id="Group_887" data-name="Group 887" transform="translate(0 83.206)">
    <rect id="Rectangle_180" data-name="Rectangle 180" width="118.882" height="3.154" fill="url(#linear-gradient-49)"/>
    <path id="Path_4393" data-name="Path 4393" d="M100.17,63.318H40.95l2.767-3.168H98.385Z" transform="translate(15.697 -60.15)" opacity="0.3" fill="url(#linear-gradient-50)"/>
  </g>
  <path id="Path_4394" data-name="Path 4394" d="M92.188,62.3v3.458H36.51L38.239,62.3Z" transform="translate(13.995 23.88)" opacity="0.3" fill="url(#linear-gradient-51)"/>
  <path id="Path_4395" data-name="Path 4395" d="M80.6,34.57c-.028.152-.069.318-.111.484-.083.36-.18.761-.277,1.176a11.156,11.156,0,0,1-6.986.014,3.308,3.308,0,0,1,.041-.456c.111-.83.9.028,2.13-.138a35.653,35.653,0,0,0,5.1-1.037A.5.5,0,0,1,80.6,34.57Z" transform="translate(28.07 13.251)" fill="url(#linear-gradient-52)"/>
  <path id="Path_4396" data-name="Path 4396" d="M69.663,81.971a13.983,13.983,0,0,0-2.822-6.82,8.243,8.243,0,0,0-4.7-2.725c-2.061-.429-5.962,1.383-8.355,6.183a18.558,18.558,0,0,0-1.618,4.883l-.069.014L27.762,85.332c5.824,17.928-3.2,40.656-3.2,40.656s-.581.346-1.231.747c-.18.111-.36.235-.526.346.913-7.442,2.656-22.451,3.237-32.245C26.7,83.894,23,73.906,20.14,69.687c4.606-1.439,12.906-2.642,17.983-3.237,0,.111,8.051,1.3,11.9,5.921,0,0,10.015-4.482,15.355-5.436a6.968,6.968,0,0,1,2.448-.111A41.622,41.622,0,0,1,69.663,81.971Z" transform="translate(7.72 25.471)" opacity="0.2" fill="url(#linear-gradient-53)"/>
  <path id="Path_4397" data-name="Path 4397" d="M25.74,117.292c-1.771.581-3.361,1.065-4.8,1.48a29.516,29.516,0,0,0,1.66-8.466l1.66-.816a23.639,23.639,0,0,1,1.217,5.229C25.657,116.171,25.74,117.292,25.74,117.292Z" transform="translate(8.027 41.969)" fill="#372920" opacity="0.2"/>
  <path id="Path_4398" data-name="Path 4398" d="M48.288,125.39c0,.111,0,.152-.014.111C48.247,125.487,48.26,125.445,48.288,125.39Z" transform="translate(18.498 48.064)" fill="#372920" opacity="0.4"/>
  <path id="Path_4399" data-name="Path 4399" d="M72.647,48.14a3.855,3.855,0,0,0-2.089,2.3,85.669,85.669,0,0,0-2.31,8.466,29.8,29.8,0,0,1-.913,3.79L48.024,63.979,45.7,48.14Z" transform="translate(17.517 18.453)" fill="#282523" opacity="0.5"/>
  <path id="Path_4400" data-name="Path 4400" d="M48.529,126.219c-.041.014-.069.041-.111.055-.318-3.085-.871-7.83-1.148-10.126l1.369-.318s1.522,4.219,2.061,5.934c.083.249.138.443.166.567C51.088,123.314,51.088,124.794,48.529,126.219Z" transform="translate(18.119 44.399)" fill="#372920" opacity="0.2"/>
  <path id="Path_4401" data-name="Path 4401" d="M70.167,51.261c-1.065,3.126-3.956,10.652-4.261,12.63L44.7,63.254s.083-.512.235-1.356c.609-3.417,2.338-12.256,3.984-14.4,0,0,12.533-2.573,20.93-.138A14.335,14.335,0,0,1,73.265,48.8C73.542,48.965,71.232,48.149,70.167,51.261Z" transform="translate(17.134 17.752)" fill="#fff7e5"/>
  <path id="Path_4402" data-name="Path 4402" d="M70.167,50.971C69.1,54.1,66.211,61.622,65.906,63.6L44.7,62.964s.083-.512.235-1.356c1.909.014,4.938.055,6.031.111,1.646.1,9.3-.747,12.049-2.407,3.541-2.144,2.656-8.992,6.834-12.242a14.335,14.335,0,0,1,3.417,1.439C73.542,48.675,71.232,47.858,70.167,50.971Z" transform="translate(17.134 18.043)" fill="#f6edd9"/>
  <path id="Path_4403" data-name="Path 4403" d="M60.174,30.6c-12.975,7.47-24.3,3.956-28.7,1.508.484-.346.968-.664,1.466-.954.4-.235.8-.456,1.217-.664.47-.235.927-.456,1.4-.664a35.34,35.34,0,0,1,5.187-1.881,29.343,29.343,0,0,1,3.735-.761,23.617,23.617,0,0,1,8.3.332,23.324,23.324,0,0,1,2.946.871A25.208,25.208,0,0,1,60.174,30.6Z" transform="translate(12.063 10.335)" opacity="0.2" fill="url(#linear-gradient-54)"/>
  <g id="Group_891" data-name="Group 891" transform="translate(37.382)">
    <g id="Group_888" data-name="Group 888" transform="translate(0 23.885)">
      <path id="Path_4404" data-name="Path 4404" d="M32.732,25.931a4.685,4.685,0,0,1-1.632-.373c-2.476-1.01-4.3-3.846-4.053-5.713a2.815,2.815,0,0,1,1.9-2.518,1.661,1.661,0,0,1,1.328.194,19.5,19.5,0,0,1,1.6,3.029A27.677,27.677,0,0,1,32.732,25.931Z" transform="translate(-27.024 -17.266)" fill="url(#linear-gradient-55)"/>
      <path id="Path_4405" data-name="Path 4405" d="M27.981,18.64a6.331,6.331,0,0,1,3.97,3.251c.539,1.259.3,2.033-.249,2.1s-3.029-2.13-1.328-3.016a6.177,6.177,0,0,0-1.7-1.577C27.871,19.027,27.981,18.64,27.981,18.64Z" transform="translate(-26.658 -16.74)" fill="#f68e75" opacity="0.5"/>
      <path id="Path_4406" data-name="Path 4406" d="M30.858,24.2c.512-1.95-1.563-5.519-2.448-6.875a1.661,1.661,0,0,1,1.328.194,19.5,19.5,0,0,1,1.6,3.029,27.672,27.672,0,0,1,.871,5.381,4.685,4.685,0,0,1-1.632-.373A8.364,8.364,0,0,1,30.858,24.2Z" transform="translate(-26.492 -17.266)" fill="#e89478" opacity="0.3"/>
    </g>
    <path id="Path_4407" data-name="Path 4407" d="M56.735,28.548c.014,3.2-1.743,11.163-9.061,11.5-10.472.47-14.58-5.782-15.853-9.075-.83-2.13-1.7-8.964-1.7-8.964,3.486-3.209,3.029-8.134,2.85-8.867s-.5-1.535,3.154-3a29.9,29.9,0,0,1,12.09-1.508,11.34,11.34,0,0,0,3.32-.138,7.75,7.75,0,0,1,.941.581,4.937,4.937,0,0,1,1.466,1.591,5.614,5.614,0,0,1,.332.705c1.065,2.684,1.508,7.857,2.186,11.979h0a1.128,1.128,0,0,0,.014.138C56.514,24.052,56.721,26.75,56.735,28.548Z" transform="translate(-25.837 3.254)" fill="url(#linear-gradient-56)"/>
    <path id="Path_4408" data-name="Path 4408" d="M56.735,28.548c.014,3.2-1.743,11.163-9.061,11.5-10.472.47-14.58-5.782-15.853-9.075-.83-2.13-1.7-8.964-1.7-8.964,3.486-3.209,3.029-8.134,2.85-8.867s-.5-1.535,3.154-3a29.9,29.9,0,0,1,12.09-1.508,11.34,11.34,0,0,0,3.32-.138,7.75,7.75,0,0,1,.941.581,4.937,4.937,0,0,1,1.466,1.591,5.614,5.614,0,0,1,.332.705,7.229,7.229,0,0,0-5.2-1.674c-4.108.083-13.958.858-15.064,3.2-.387.816,1.01,3.251-.553,7.041s-1.411,8.466,0,11.191S40.191,39.545,47,38.771s9.324-7.553,9.462-10.776c.042-1.037.042-2.684.028-4.523C56.514,24.052,56.721,26.75,56.735,28.548Z" transform="translate(-25.837 3.254)" fill="#e89478" opacity="0.3"/>
    <path id="Path_4409" data-name="Path 4409" d="M42.214,20.75Z" transform="translate(-21.206 7.954)" fill="#ce8567"/>
    <g id="Group_890" data-name="Group 890" transform="translate(0.628)">
      <path id="Path_4411" data-name="Path 4411" d="M56.946,8.182h0c-.207.346-.318.65-.512.941a5.648,5.648,0,0,1-3.4,2.7,7.707,7.707,0,0,1-1.037.18c-.29.028-.581.041-.9.041h-.526c-.277,0-.581-.014-.885-.041h-.111c-.277,0-.553.041-.844.041-.221,0-.443.055-.678.069h0a10.381,10.381,0,0,0-2.628-.055h0c-.166.014-.332.014-.5.028-.844.069-1.7.166-2.545.29-.208.041-.429.069-.636.111-.111.014-.208.041-.318.055s-.208.041-.318.055-.207.041-.318.069c-.3.069-.622.138-.927.221-.014,0-.042.014-.055.014l-.124.041a2.788,2.788,0,0,0-.318.1.809.809,0,0,0-.263.055c-.069.028-.152.041-.221.069l-.124.041c-.138.041-.29.1-.429.152l-.249.083c-.083.028-.166.069-.249.1s-.166.069-.235.1c-.208.083-.415.18-.595.249-.014,0-.028.014-.042.014-.083.041-.152.069-.235.111-.221.1-.415.194-.595.29-.083.041-.152.083-.235.124-.055.028-.111.069-.166.1a2.048,2.048,0,0,0-.18.111c-.055.028-.1.069-.152.1a4.049,4.049,0,0,0-.595.47l-.042.041-.083.083a.761.761,0,0,0-.1.124.347.347,0,0,0-.055.1,2.742,2.742,0,0,0-.152.277c-.014.014-.014.041-.028.055a.9.9,0,0,0-.028.277,2.3,2.3,0,0,0,.042.3c.069.277.194.526.221.65.014.041.028.083.041.138.36,1.535-1.8,5.118-1.66,9.891a13.892,13.892,0,0,0,.138,1.66,26.428,26.428,0,0,1-.885,3.859c-.014,0-.028-.042-.042-.111-.152-1.093-.235-2.1-.387-3.085-.028-.221-.069-.443-.111-.65a12.38,12.38,0,0,0-.429-1.632,19.367,19.367,0,0,0-1.632-3.016A22.119,22.119,0,0,1,28.283,21.7a8.531,8.531,0,0,1-.664-2.006l-.042-.249c-.014-.083-.028-.18-.042-.249a7.283,7.283,0,0,1,.042-2.13,6.276,6.276,0,0,1,.166-.733.882.882,0,0,0,.028-.1,3.422,3.422,0,0,1,.775-1.356.835.835,0,0,1,.111-.111,1.963,1.963,0,0,1,1.715-.484s-.028-.1-.083-.249c-.263-.788-.941-3.237.166-4.717,0,0,.332,2.863,1.176,3.126a22.252,22.252,0,0,1,5.34-7.982,16.3,16.3,0,0,1,5.589-3.278h0c.069,0,.138-.083.207-.111.595-.207,1.2-.415,1.8-.567V.49c.041-.014.083-.055.124-.055h0A10.977,10.977,0,0,1,47.041.048c.041,0,.083.014.138.014.346-.028.678-.014,1.01-.028h0c.055,0,.1-.014.152-.014A10.327,10.327,0,0,1,50.25.186l.208.041a7.27,7.27,0,0,1,.83.249,9.809,9.809,0,0,1,1.535.719h0a4.911,4.911,0,0,1,.595.318A7.113,7.113,0,0,1,56.946,8.182Z" transform="translate(-27.477 0.008)" fill="url(#linear-gradient-57)"/>
      <path id="Path_4412" data-name="Path 4412" d="M33.1,24.91a26.428,26.428,0,0,1-.885,3.859.3.3,0,0,1-.042-.111c-.152-1.093-.235-2.1-.387-3.085-.028-.221-.069-.443-.111-.65a12.38,12.38,0,0,0-.429-1.632,19.368,19.368,0,0,0-1.632-3.016,22.119,22.119,0,0,1-1.328-2.462,9.218,9.218,0,0,1-.664-2.006l-.042-.249c-.014-.083-.028-.18-.042-.249a7.283,7.283,0,0,1,.042-2.13,6.276,6.276,0,0,1,.166-.733.881.881,0,0,0,.028-.1,3.422,3.422,0,0,1,.775-1.356.835.835,0,0,1,.111-.111,1.963,1.963,0,0,1,1.715-.484s-.028-.1-.083-.249a5.485,5.485,0,0,1,1.632,4.634,20.46,20.46,0,0,0,.982,8.258,1.218,1.218,0,0,0,.069.207A11.753,11.753,0,0,0,33.1,24.91Z" transform="translate(-27.477 3.891)" fill="#1e1d1c" opacity="0.3"/>
      <path id="Path_4413" data-name="Path 4413" d="M32.628,13.3a.6.6,0,0,0,.055-.1c.042-.055.083-.111.138-.18l.042-.041.041-.041a2.246,2.246,0,0,1,.263-.235.862.862,0,0,1,.166-.124,2.024,2.024,0,0,1,.18-.124,1.457,1.457,0,0,1,.152-.1c.055-.041.124-.069.18-.111a1.032,1.032,0,0,0,.166-.1c.069-.041.152-.083.235-.124.041-.028.1-.041.138-.069.138-.069.29-.152.456-.221.083-.041.18-.083.263-.124.138-.069.29-.124.443-.194a1.622,1.622,0,0,0,.152-.069c.083-.028.166-.069.235-.1s.166-.069.249-.1l.249-.083c.125-.055.263-.1.387-.138a.048.048,0,0,0,.028-.014c.041-.014.069-.028.111-.041h.014c.069-.028.152-.041.221-.069.014,0,.014-.014.028-.014.069-.028.152-.041.221-.069L37.9,10.6c.166-.041.332-.083.512-.124.152-.041.3-.069.47-.111.111-.028.207-.041.318-.069.028,0,.041-.014.069-.014.055-.014.124-.028.18-.041.028,0,.041-.014.069-.014a2.553,2.553,0,0,1,.318-.055,34.854,34.854,0,0,1,7.843-.47h.111a1.342,1.342,0,0,0,.235.014.567.567,0,0,1,.152.014c.111,0,.221.014.318.014h1c.083,0,.166-.014.249-.014l.553-.041a7.374,7.374,0,0,0,.83-.152,5.6,5.6,0,0,0,3.361-2.684,3.4,3.4,0,0,0,.429-.941c-.871,1.273-2.075,1.992-4.966,1.549-4.357-.65-13.266-.871-15.659,1.854-1.867,2.116-2.089,3.527-1.8,4.205Z" transform="translate(-25.596 2.265)" fill="#1e1d1c" opacity="0.3"/>
      <g id="Group_889" data-name="Group 889" transform="translate(4.194)" opacity="0.6">
        <path id="Path_4414" data-name="Path 4414" d="M48.164,8.454A5.606,5.606,0,0,1,46.531,10.1a9.686,9.686,0,0,1-2.158,1.2,8.44,8.44,0,0,1-1.356.332c-.221,0-.443-.014-.678-.014.194-.028.387-.055.581-.1a7.376,7.376,0,0,0,2.462-.871,8.55,8.55,0,0,0,2.158-1.591,5.712,5.712,0,0,0,1.12-2.047A5.961,5.961,0,0,0,47.154.86c.18.1.346.207.512.318A6.243,6.243,0,0,1,48.164,8.454Z" transform="translate(-25.974 0.33)" fill="#474746"/>
        <path id="Path_4415" data-name="Path 4415" d="M45.194,8.91a11.4,11.4,0,0,1-4.606,3.071h0l-.5.041c2.421-.871,4.717-2.227,5.8-4.413A7.311,7.311,0,0,0,45.443.14l.208.041a5.649,5.649,0,0,1,.47.788A7.61,7.61,0,0,1,45.194,8.91Z" transform="translate(-26.837 0.054)" fill="#474746"/>
        <path id="Path_4416" data-name="Path 4416" d="M45.321,1.342a13.8,13.8,0,0,1-.207,2.5,8.192,8.192,0,0,1-2.2,4.385A21.64,21.64,0,0,1,38.722,11.2,10.847,10.847,0,0,0,36.5,12.892h0a1.168,1.168,0,0,0-.235.069,8.944,8.944,0,0,1,1.9-1.535A31.275,31.275,0,0,0,42.347,8.6a8.148,8.148,0,0,0,2.6-4.565A12.51,12.51,0,0,0,45.2,1.356,3.523,3.523,0,0,0,44.837,0h.152c.028.055.055.124.083.194A2.769,2.769,0,0,1,45.321,1.342Z" transform="translate(-28.305)" fill="#474746"/>
        <path id="Path_4417" data-name="Path 4417" d="M45.322,1.133a8.512,8.512,0,0,1-1.466,4.233,12.34,12.34,0,0,1-1.563,2.047A10.758,10.758,0,0,1,40.121,9.1c-1.688,1.037-3.5,1.9-5.091,3.071-1.01.747-2.324,1.881-2.324,3.14a.7.7,0,0,0-.125.18,2.467,2.467,0,0,1,.47-1.549,11.1,11.1,0,0,1,3.61-3A29.646,29.646,0,0,0,41.808,7.7,11.494,11.494,0,0,0,44.7,3.429,6.137,6.137,0,0,0,45.1.054c.042,0,.083-.014.138-.014A4.854,4.854,0,0,1,45.322,1.133Z" transform="translate(-29.717 0.015)" fill="#474746"/>
        <path id="Path_4418" data-name="Path 4418" d="M41.694,5.158A10.434,10.434,0,0,1,38.858,7.7c-1.162.733-2.393,1.383-3.541,2.144a7.647,7.647,0,0,0-2.753,2.725,4.015,4.015,0,0,0-.443,2.1,2.967,2.967,0,0,0,.484,1.356,2.3,2.3,0,0,0,.042.3,3.114,3.114,0,0,1-.664-2.13,4.516,4.516,0,0,1,.927-2.421c1.577-2.047,4.274-3.057,6.4-4.537a9.136,9.136,0,0,0,2.863-3.1A4.764,4.764,0,0,0,42.842.385V.372c.041-.014.1-.028.138-.041V.344C43.534,1.948,42.676,3.83,41.694,5.158Z" transform="translate(-29.948 0.126)" fill="#474746"/>
        <path id="Path_4419" data-name="Path 4419" d="M41.6.76a23.9,23.9,0,0,1-4.842,4.98,37.247,37.247,0,0,0-3.9,3.458,9.638,9.638,0,0,0-1.771,2.891,4.345,4.345,0,0,0-.235,3.14,2.314,2.314,0,0,0,1.093,1.176,4.33,4.33,0,0,0,1.48.429.409.409,0,0,1,.028.138,4.459,4.459,0,0,1-1.328-.332,2.809,2.809,0,0,1-1.093-.816,3.139,3.139,0,0,1-.456-2.476,8.553,8.553,0,0,1,1.286-3.071,15.21,15.21,0,0,1,2.877-3.016c2.352-2.02,4.911-3.9,6.626-6.4h0A.653.653,0,0,1,41.6.76Z" transform="translate(-30.509 0.291)" fill="#474746"/>
      </g>
    </g>
    <path id="Path_4420" data-name="Path 4420" d="M45.82,8.741a6.426,6.426,0,0,1,2.794,3.79A8.622,8.622,0,0,0,47.3,8.16,12.765,12.765,0,0,1,45.82,8.741Z" transform="translate(-19.819 3.128)" fill="url(#linear-gradient-58)"/>
  </g>
  <path id="Path_4421" data-name="Path 4421" d="M75.566,63.679v.069c-.014.111-.263.18-.263.221a1.524,1.524,0,0,1-.249.028v.014c0,.041-.138.609-.277.609H74.75c-.028,0-.041-.3-.041-.3l-.152-1.688S69.949,40.882,69.41,37.52a13.056,13.056,0,0,1,5.575-2.31s.083,8.48-.152,12.2C74.487,52.169,75.69,61.4,75.566,63.679Z" transform="translate(26.606 13.496)" fill="url(#linear-gradient-59)"/>
  <path id="Path_4422" data-name="Path 4422" d="M78.873,49.334A37.215,37.215,0,0,0,76.6,63.361l-.9.3v-.028a41.467,41.467,0,0,1-.18-5.492,97.187,97.187,0,0,1,2.13-14.774c1-4.855,1.964-8.715,1.978-8.784.041,0,.069-.028.1-.028a22.993,22.993,0,0,1,5.519.705C84.213,37.368,81.087,43.787,78.873,49.334Z" transform="translate(28.942 13.247)" fill="url(#linear-gradient-60)"/>
  <path id="Path_4423" data-name="Path 4423" d="M94.44,38.369c-2.241,1.245-6.889,2.78-13.6,2.78H80.7c-.705,0-1.425.18-2.172.18a23.57,23.57,0,0,1-3.251-.138c-.194-.028-.373-.014-.553-.041-3.444-.553-5.243-1.743-6.128-2.642.36-.318.733-.263,1.107-.512a10.711,10.711,0,0,1,5.561-1.923h.014a15.588,15.588,0,0,0,1.9-.124,32.969,32.969,0,0,0,5.1-1.217c.041,0,.069-.111.1-.111a22.667,22.667,0,0,1,5.519.664,15.111,15.111,0,0,1,4.025,1.48A25.237,25.237,0,0,1,94.44,38.369Z" transform="translate(26.295 13.27)" opacity="0.3" fill="url(#linear-gradient-61)"/>
</svg>
