<svg xmlns="http://www.w3.org/2000/svg" width="139.309" height="189.224" viewBox="0 0 139.309 189.224">
  <g id="Group_227" data-name="Group 227" transform="translate(-734 -1949.776)">
    <g id="Group_502" data-name="Group 502" transform="translate(376.587 1807.824)">
      <g id="Group_413" data-name="Group 413" transform="translate(364.996 310.291)">
        <rect id="Rectangle_60" data-name="Rectangle 60" width="43.906" height="20.885" fill="#87512e"/>
      </g>
      <g id="Group_414" data-name="Group 414" transform="translate(408.903 297.02)">
        <rect id="Rectangle_61" data-name="Rectangle 61" width="43.911" height="34.155" fill="#87512e"/>
      </g>
      <g id="Group_415" data-name="Group 415" transform="translate(452.814 283.752)">
        <rect id="Rectangle_62" data-name="Rectangle 62" width="43.909" height="47.423" fill="#87512e"/>
      </g>
      <g id="Group_440" data-name="Group 440" transform="translate(365.182 184.558)">
        <g id="Group_416" data-name="Group 416" transform="translate(23.637 53.576)">
          <path id="Path_553" data-name="Path 553" d="M374.839,188.215s-1.033,3.736-2.571,4.587-.335-7.759-.335-7.759Z" transform="translate(-371.484 -185.043)" fill="#fdb171"/>
        </g>
        <g id="Group_417" data-name="Group 417" transform="translate(3.927 53.576)">
          <path id="Path_554" data-name="Path 554" d="M362.653,188.215s1.036,3.736,2.582,4.587.335-7.759.335-7.759Z" transform="translate(-362.653 -185.043)" fill="#fdb171"/>
        </g>
        <g id="Group_418" data-name="Group 418" transform="translate(26.859 116.549)">
          <path id="Path_555" data-name="Path 555" d="M376.454,213.256c.958,2.317,4.094,8.669.56,9.638-4.087,1.114-4.087-9.051-4.087-9.051Z" transform="translate(-372.927 -213.256)" fill="#004a6e"/>
        </g>
        <g id="Group_419" data-name="Group 419" transform="translate(16.737 81.771)">
          <path id="Path_556" data-name="Path 556" d="M376.985,198.083c.112,2.743-.906,4.882.71,8.029s1.583,5.085,1.933,11.584a99.6,99.6,0,0,0,1.87,12.7c.21,1.228,2.364,6.915,0,7.221s-2.9-3.56-3.223-6.4-2.786-9.35-4.3-14.028c-1.348-4.154-2.23-9.013-2.145-10.471.112-1.969-3.44-9.042-3.44-9.042Z" transform="translate(-368.392 -197.675)" fill="#fdb171"/>
        </g>
        <g id="Group_420" data-name="Group 420" transform="translate(9.687 116.895)">
          <path id="Path_557" data-name="Path 557" d="M369.96,213.411s2.379,10.906-2.922,10c-3.661-.629-.618-10-.618-10Z" transform="translate(-365.234 -213.411)" fill="#004a6e"/>
        </g>
        <g id="Group_421" data-name="Group 421" transform="translate(7.289 80.557)">
          <path id="Path_558" data-name="Path 558" d="M371.79,199.363a11.909,11.909,0,0,0-.545,3.658c.118.915,1.509,4.268,1.3,7.317s-1.009,11.888-1.306,15.446a26.7,26.7,0,0,0,0,7.321c.335,2.029-.31,6.5-2.024,6.5s-2.04-3.558-1.4-6.5a20.049,20.049,0,0,0-.308-7.828c-.337-1.935-1.824-14.283-1.955-15.917-.216-2.748.4-4.913.2-6.339s-1.6-5.89-1.6-5.89Z" transform="translate(-364.159 -197.131)" fill="#fdb171"/>
        </g>
        <g id="Group_422" data-name="Group 422" transform="translate(6.095 53.034)">
          <path id="Path_559" data-name="Path 559" d="M381.739,185.4c1.319,3.408,1.3,10.7,1.828,18.816.431,6.6.971,15.758.971,15.758s-12.845,2.658-19.292-.19c0,0-.65-10.89-.65-16.173,0-3.069-2.426-14.7.384-18.81Z" transform="translate(-363.624 -184.8)" fill="#d35500"/>
        </g>
        <g id="Group_423" data-name="Group 423" transform="translate(7.63 53.576)">
          <path id="Path_560" data-name="Path 560" d="M382.72,203.915c-.527-8.12-.509-15.408-1.828-18.816l-1.382-.056c1.192,3.386.683,10.151,1.12,16.894.429,6.6.969,15.749.969,15.749s-9.955,2.518-17.287.493c.054.8.087,1.3.087,1.3,6.446,2.848,19.292.19,19.292.19S383.151,210.52,382.72,203.915Z" transform="translate(-364.312 -185.043)" fill="#d35500"/>
        </g>
        <g id="Group_431" data-name="Group 431" transform="translate(7.342)">
          <g id="Group_426" data-name="Group 426" transform="translate(5.07 14.83)">
            <g id="Group_424" data-name="Group 424" transform="translate(3.049)">
              <path id="Path_561" data-name="Path 561" d="M367.82,170.168V174.4l3.058-2.384a6.982,6.982,0,0,1-.268-4.328Z" transform="translate(-367.82 -167.684)" fill="#fdb171"/>
            </g>
            <g id="Group_425" data-name="Group 425">
              <path id="Path_562" data-name="Path 562" d="M369.5,170.168V174.4l-3.049-2.384a6.982,6.982,0,0,0,.268-4.328Z" transform="translate(-366.454 -167.684)" fill="#fdb171"/>
            </g>
          </g>
          <g id="Group_427" data-name="Group 427" transform="translate(5.532 16.171)">
            <path id="Path_563" data-name="Path 563" d="M371.815,168.285s-1.4,1.522-2.567,1.52-2.565-1.52-2.565-1.52l-.022,1.054a2.692,2.692,0,0,0,2.6,1.286,3.377,3.377,0,0,0,2.551-1.955Z" transform="translate(-366.661 -168.285)" fill="#f09c56"/>
          </g>
          <g id="Group_428" data-name="Group 428" transform="translate(1.231 1.435)">
            <path id="Path_564" data-name="Path 564" d="M377.135,170.7s.85-3.614-.136-5.62a6.254,6.254,0,0,0-11.131,0c-.984,2.007-.138,5.62-.138,5.62-1.328-.268-1.078,1.181-.663,1.835a3.933,3.933,0,0,1,.558,1.2.568.568,0,0,0,.982.27c.4,1.1.679,1.366,2.266,2.821,1.379,1.277,1.868,1.259,2.562,1.259s1.165.018,2.558-1.259c1.594-1.451,1.864-1.719,2.266-2.821a.57.57,0,0,0,.984-.27,4.03,4.03,0,0,1,.553-1.2C378.208,171.886,378.461,170.437,377.135,170.7Z" transform="translate(-364.734 -161.683)" fill="#fdb171"/>
          </g>
          <g id="Group_429" data-name="Group 429">
            <path id="Path_565" data-name="Path 565" d="M373.763,166.35s0,1.9-4.107,3.219c0,0,.658-.48.745-.922,0,0-6.047,2.614-.221,9.453,0,0-2.955-.223-4.973-4.033-1.3-2.462-1.8-8.276,1.176-11.167a6.61,6.61,0,0,1,7.379-1.234Z" transform="translate(-364.183 -161.04)" fill="#713c1f"/>
          </g>
          <g id="Group_430" data-name="Group 430" transform="translate(9.581 0.4)">
            <path id="Path_566" data-name="Path 566" d="M368.475,166.129s4.482,4.975,2.154,10.1c0,0,3.982-2.053,4.022-7.723.04-4.855-2.56-8.212-6.176-7.067Z" transform="translate(-368.475 -161.219)" fill="#713c1f"/>
          </g>
        </g>
        <g id="Group_432" data-name="Group 432" transform="translate(15.46 18.511)">
          <path id="Path_567" data-name="Path 567" d="M374.288,171.681l-2.431-1.4-.4-.946L367.82,171.5v33.943s7.549.672,7.406.375S374.288,171.681,374.288,171.681Z" transform="translate(-367.82 -169.333)" fill="#fff"/>
        </g>
        <g id="Group_433" data-name="Group 433" transform="translate(8.998 18.511)">
          <path id="Path_568" data-name="Path 568" d="M365.124,170.976l2.232-.7.4-.946,3.632,2.163v33.943s-6.609-.741-6.46-1.04S365.124,170.976,365.124,170.976Z" transform="translate(-364.925 -169.333)" fill="#fff"/>
        </g>
        <g id="Group_434" data-name="Group 434" transform="translate(0.004 19.555)">
          <path id="Path_569" data-name="Path 569" d="M371.564,169.8s-5.895,2.2-6.794,2.9-2.384,4.5-3.154,10.62c-.44,3.493-.618,5.611-.719,7s5.165.4,5.165.4l.875-5.895,4.627-5.48Z" transform="translate(-360.895 -169.801)" fill="#fe9838"/>
        </g>
        <g id="Group_435" data-name="Group 435" transform="translate(4.57 19.555)">
          <path id="Path_570" data-name="Path 570" d="M364.144,184.35a50.882,50.882,0,0,1,1.632,14.589,36.23,36.23,0,0,1-1,6.942l9.053.833s.4-12.209-1.069-16.952-3.719-19.959-3.719-19.959l-6.1,4.765Z" transform="translate(-362.941 -169.801)" fill="#fe9838"/>
        </g>
        <g id="Group_436" data-name="Group 436" transform="translate(15.414 19.555)">
          <path id="Path_571" data-name="Path 571" d="M378.722,185.441s-3.294,6.582-2.81,13.5c.328,4.7,1.19,6.375,1.19,6.375l-9.256,1.4s-.388-12.209,1.078-16.952,3.721-19.959,3.721-19.959l6.1,4.765Z" transform="translate(-367.799 -169.801)" fill="#fe9838"/>
        </g>
        <g id="Group_437" data-name="Group 437" transform="translate(0 34.883)">
          <path id="Path_572" data-name="Path 572" d="M361.4,176.668a27.428,27.428,0,0,0,.06,10.571c1.125,4.882,2.89,11.683,2.89,11.683l4.2-2.279s-2.473-11.937-2.489-13.792a39.922,39.922,0,0,1,.853-5.87Z" transform="translate(-360.893 -176.668)" fill="#fe9838"/>
        </g>
        <g id="Group_438" data-name="Group 438" transform="translate(20.259 19.555)">
          <path id="Path_573" data-name="Path 573" d="M369.97,169.8s5.888,2.2,6.785,2.9,2.388,4.5,3.158,10.62c.435,3.493.618,5.611.721,7s-5.163.4-5.163.4l-.877-5.895-4.625-5.48Z" transform="translate(-369.97 -169.801)" fill="#fe9838"/>
        </g>
        <g id="Group_439" data-name="Group 439" transform="translate(23.268 34.883)">
          <path id="Path_574" data-name="Path 574" d="M378.467,176.668a27.1,27.1,0,0,1-.06,10.571c-1.127,4.882-2.888,11.683-2.888,11.683l-4.2-2.279s2.48-11.937,2.493-13.792a40.567,40.567,0,0,0-.853-5.87Z" transform="translate(-371.318 -176.668)" fill="#fe9838"/>
        </g>
      </g>
      <g id="Group_464" data-name="Group 464" transform="translate(461.177 158.38)">
        <g id="Group_441" data-name="Group 441" transform="translate(3.416 0.268)">
          <path id="Path_575" data-name="Path 575" d="M406.336,159.255a7.224,7.224,0,0,1-.846-4.036,7.1,7.1,0,0,1,5.743-5.759C415.028,148.814,406.336,159.255,406.336,159.255Z" transform="translate(-405.432 -149.432)"/>
        </g>
        <g id="Group_442" data-name="Group 442" transform="translate(4.171 11.511)">
          <path id="Path_576" data-name="Path 576" d="M408.326,154.469s-1.839,1.594-2.388,6.129a36.217,36.217,0,0,0,.25,8.924c.415,2.623,1.734,5.431,1.308,7.609a8.609,8.609,0,0,0,2.21,7.638,5.876,5.876,0,0,1-.54-4.734,10.018,10.018,0,0,0,.757-5.56c-.516-2.835-2-5.819-1.475-7.6s.973-3.332.567-4.966.034-5.844.451-6.239-.413-.444-.413-.444Z" transform="translate(-405.77 -154.469)"/>
        </g>
        <g id="Group_443" data-name="Group 443" transform="translate(5.428 10.965)">
          <path id="Path_577" data-name="Path 577" d="M406.451,154.748a.993.993,0,0,0,.391,1.339l.966.533a.95.95,0,0,0,1.3-.4h0a1,1,0,0,0-.386-1.348l-.969-.536a.956.956,0,0,0-1.306.408Z" transform="translate(-406.333 -154.225)" fill="#c90e00"/>
        </g>
        <g id="Group_444" data-name="Group 444" transform="translate(5.091)">
          <path id="Path_578" data-name="Path 578" d="M406.182,155.841c.5-3.21,2.058-6.529,6.424-6.529a7.241,7.241,0,0,1,7.207,6.533,14.15,14.15,0,0,1-.489,4.781c-.174.525-2.286,1.931-2.705,3.556S406.182,155.841,406.182,155.841Z" transform="translate(-406.182 -149.312)"/>
        </g>
        <g id="Group_445" data-name="Group 445" transform="translate(4.198 49.797)">
          <path id="Path_579" data-name="Path 579" d="M405.782,175.733s4.212-1.44,5.933-2.161,5.638-1.951,5.638-1.951c1.154,1.725,1.225,2.5,2.52,6.259a10.647,10.647,0,0,1-1.7,9.274c-1.205,1.433-.333,3.75-.112,6.288.212,2.464-1.873,10.089-2.136,13.129-.123,2.109.935,5.931,1.234,7.9.326,2.147.812,2.3.071,6.549s-2.8,13.787-2.007,17.475.491,2.877.491,2.877-2.812,1.83-4.1,1.558-.42-2.428-.42-2.428a102.7,102.7,0,0,0-1.047-22.037c-1.87-10.937-3.42-21.338-3.5-25.787-.1-6.294.134-7.573-.373-9.723C405.711,180.615,405.923,179.222,405.782,175.733Z" transform="translate(-405.782 -171.622)" fill="#f09f5b"/>
        </g>
        <g id="Group_446" data-name="Group 446" transform="translate(1.571 37.312)">
          <path id="Path_580" data-name="Path 580" d="M419.154,169s-2.134,3.687-2.2,5.047a23.635,23.635,0,0,0,.442,4.06l-10.482,4.462a89.661,89.661,0,0,1-1.623-9.464c-.147-2.783-.623-4.888-.685-6.491S419.225,166.976,419.154,169Z" transform="translate(-404.605 -166.028)" fill="#004a6e"/>
        </g>
        <g id="Group_448" data-name="Group 448" transform="translate(3.928 50.564)">
          <g id="Group_447" data-name="Group 447">
            <path id="Path_581" data-name="Path 581" d="M405.668,175.218s2.625-2.161,4.23-3.172,2.846,7.935,2.846,7.935c1.453,1.507-1.482-4.143.462-.658s7.819,3.145,6.846,4.779-2.665,4.924-2.011,7.4c.638,2.388.5,9.384.77,12.43.228,2.118,1.951,5.7,2.585,7.587.694,2.078,1.219,2.19,1.2,6.524s.179,14.118,1.607,17.622.978,2.766.978,2.766-2.516,2.3-3.861,2.259-.8-1.886-.8-1.886a133.7,133.7,0,0,0-5.5-22.048c-3.759-10.484-3.864-5.674-4.471-11.466,0-.074,0-.138,0-.2-.873-2.741-1.656-8.881-2.487-13.272-1.181-6.2-1.163-7.515-2.038-9.54C405.063,180.055,406.4,178.645,405.668,175.218Z" transform="translate(-405.661 -171.966)" fill="#fdb171"/>
          </g>
        </g>
        <g id="Group_449" data-name="Group 449" transform="translate(2.565 49.393)">
          <path id="Path_582" data-name="Path 582" d="M406.364,174.5s-1.254,18.24-1.312,28.046,1.958,17.089,1.632,20.984c0,0,1.524-.306,4.379-1.078.871-.228,2.243-1.73,3.5-3.585,1.036-1.538,2.87-2.466,4.042-3.942s1.685-3.489,2.868-3.846c0,0-2.509-17.414-1.417-24.7a10.282,10.282,0,0,0,1.167-9.39c-2.031-5.127-4.377-5.547-4.377-5.547Z" transform="translate(-405.051 -171.441)" fill="#3fb2ac"/>
        </g>
        <g id="Group_450" data-name="Group 450" transform="translate(1.466 34.795)">
          <path id="Path_583" data-name="Path 583" d="M419.211,170.392a30.6,30.6,0,0,0-7.564-1.2,17.252,17.252,0,0,1-6.984-1.185l-.1-3.1,16.493.716Z" transform="translate(-404.558 -164.901)" fill="#004a6e"/>
        </g>
        <g id="Group_451" data-name="Group 451" transform="translate(0 12.328)">
          <path id="Path_584" data-name="Path 584" d="M419.766,154.835c-.333,1.808-.775,5.419.877,7.339s4.08.9,6.506,5.647,3.3,7.109,5.067,10.049,3.3,6.656,2.54,7.9-12.35,9.029-13.669,9.933-3.969,2.6-5.185,2.038a6.627,6.627,0,0,0-2.913-.962c-.609.112-3.913.547-3.951.013s.955-.6,1.362-.75,1.5-.676,1.29-.826a9.2,9.2,0,0,0-2.1-.3c-.288,0-1.768.83-2.1.525s-.437-.525.295-1.016,1.029-.643,1.029-.643-1.835.623-2.027.156c-.221-.576.016-.87.821-1.2.636-.248,1.346-.835,2.192-.683a14.327,14.327,0,0,1,1.587.375s-.993-.623-1.212-.812-.888-.112-1.437-.036-1.134.132-1.248-.127-.208-.719.781-.975a4.154,4.154,0,0,1,1.942-.158,20.329,20.329,0,0,1,2.237.828c.549.15,2.681.681,2.792.714s.067-.185-.223-1.089-.44-1.654-.078-1.958.591.19,1.04,1.167,1.315,3.042,1.788,2.859a29.74,29.74,0,0,0,4.594-3.5c1.074-1.094,3.826-5.763,5.225-6.169a17.635,17.635,0,0,1-5.114-6.832l-.621,1.676-16.493-.716a6.613,6.613,0,0,1-1.4-4.781c.435-2.562,1.685-3.647,3.339-5.08s3.5-2.221,3.859-3.013a2.687,2.687,0,0,1,2.058-1.54,11.359,11.359,0,0,0,.386-2.861Z" transform="translate(-403.901 -154.835)" fill="#fdb171"/>
        </g>
        <g id="Group_452" data-name="Group 452" transform="translate(0 19.852)">
          <path id="Path_585" data-name="Path 585" d="M403.97,168.369c.435-2.562,1.685-3.647,3.339-5.08,0,0-2.051,2.489-.661,2.783s4.406-1.732,6.681-3.685c2.087-1.79,5.446-3.2,7.5-4.181a7.115,7.115,0,0,0,2.364,1.373,5.869,5.869,0,0,0-4.926,3.484c-2,4.018.958,8.459,3.911,9.953l-.705,1.857s-7.408-.652-9.843-.752c-1.69-.074-6.256-.971-6.256-.971A6.613,6.613,0,0,1,403.97,168.369Z" transform="translate(-403.901 -158.206)" fill="#004a6e"/>
        </g>
        <g id="Group_453" data-name="Group 453" transform="translate(9.479 12.375)">
          <path id="Path_586" data-name="Path 586" d="M414.52,154.881a16.859,16.859,0,0,0-.29,3.607c-.324.221-.458.632-.875.884a12.772,12.772,0,0,1-5.207,1.8s.3-.471.763-1.165l5.567-5.149Z" transform="translate(-408.148 -154.856)" fill="#f09f5b"/>
        </g>
        <g id="Group_454" data-name="Group 454" transform="translate(4.778 3.935)">
          <path id="Path_587" data-name="Path 587" d="M417.274,159.659a5.966,5.966,0,0,1-1.946,3.379c-1.471,1.208-3.821,2.79-4.585,2.79-.746,0-1.328.221-2.464-1.734s-1.989-2.857-2.067-4.853-.837-6.062,1.58-7.571a5.388,5.388,0,0,1,6.247,1.02c1.556,1.62,1.585,2.223,2.129,4.785,0,0,1.286-1.774,1.8-1.848s.953.263.665,1.357-.556.913-.589,1.471-.092,1.114-.368,1.312C417.334,160.017,417.274,159.659,417.274,159.659Z" transform="translate(-406.042 -151.075)" fill="#fdb171"/>
        </g>
        <g id="Group_456" data-name="Group 456" transform="translate(8.234 18.401)">
          <g id="Group_455" data-name="Group 455">
            <path id="Path_588" data-name="Path 588" d="M427.671,174.517c-1.763-2.94-2.649-5.31-5.067-10.049s-4.85-3.73-6.506-5.647a4.263,4.263,0,0,1-.712-1.266c-2.757,2.344-7.547,6.4-7.79,6.6-.212.161,5.337,5.719,9.846,10.165l.493-1.333a18.5,18.5,0,0,0,2.973,4.745c1.279,1.254,2.141,2.087,2.141,2.087l-1.913,1.752-6.8,6.25.344.719,1.832,3.826.3.641s11.042-7.7,13.2-10.372a3.023,3.023,0,0,0,.208-.263C430.935,181.084,429.419,177.415,427.671,174.517Z" transform="translate(-407.59 -157.556)" fill="#004a6e"/>
          </g>
        </g>
        <g id="Group_457" data-name="Group 457" transform="translate(7.379 2.469)">
          <path id="Path_589" data-name="Path 589" d="M407.207,152.059s3.129,5.745,7.5,6.681l1.7-5.243-4.04-3.078Z" transform="translate(-407.207 -150.418)"/>
        </g>
        <g id="Group_458" data-name="Group 458" transform="translate(15.803 11.511)">
          <path id="Path_590" data-name="Path 590" d="M412.722,154.469s1.841,1.594,2.386,6.129a36.066,36.066,0,0,1-.243,8.924c-.42,2.623-1.737,5.431-1.308,7.609a8.621,8.621,0,0,1-2.212,7.638,5.855,5.855,0,0,0,.54-4.734,9.974,9.974,0,0,1-.759-5.56c.518-2.835,2-5.819,1.48-7.6s-.978-3.332-.574-4.966.141-5.477-.274-5.877.241-.806.241-.806Z" transform="translate(-410.981 -154.469)"/>
        </g>
        <g id="Group_459" data-name="Group 459" transform="translate(4.304 1.917)">
          <path id="Path_591" data-name="Path 591" d="M409.766,152.568s-2.1,3.353-3.935,4.319c0,0-.136-4.623,2.37-6.716Z" transform="translate(-405.829 -150.171)"/>
        </g>
        <g id="Group_460" data-name="Group 460" transform="translate(4.669 114.203)">
          <path id="Path_592" data-name="Path 592" d="M411.1,200.477s.161,5.277-3.422,7.634-.333.174-.333.174,2.757,2.259,7.5-2.1l-2.051-4.228Z" transform="translate(-405.993 -200.477)" fill="#f09f5b"/>
        </g>
        <g id="Group_461" data-name="Group 461" transform="translate(16.999 115.14)">
          <path id="Path_593" data-name="Path 593" d="M413.2,202.272a7.85,7.85,0,0,1-1.687,5.623s1.469,1.942,2.415,1.37,4.1-4.886,4.1-4.886l-3.261-3.482Z" transform="translate(-411.517 -200.897)" fill="#fdb171"/>
        </g>
        <g id="Group_462" data-name="Group 462" transform="translate(14.761 116.029)">
          <path id="Path_594" data-name="Path 594" d="M418.935,201.295a4.084,4.084,0,0,1,1.62,3.125,13.57,13.57,0,0,0,.685,4.23l-.884.263-1.263-4.268a16.782,16.782,0,0,0-1.507,3.618c-.179,1.183.4,1.359-4.161,2.719-2.241.672-3.087.279-2.882-.658a8.935,8.935,0,0,1,2.208-2.92S415.928,208.4,418.935,201.295Z" transform="translate(-410.515 -201.295)" fill="#004a6e"/>
        </g>
        <g id="Group_463" data-name="Group 463" transform="translate(3.369 117.408)">
          <path id="Path_595" data-name="Path 595" d="M415.9,201.913a4.213,4.213,0,0,1,.79,3.5,14.29,14.29,0,0,0-.4,4.346l-.922.033-.154-4.538a17.024,17.024,0,0,0-2.364,3.183c-.467,1.123.049,1.444-4.707,1.614-2.335.087-3.053-.525-2.62-1.391a8.844,8.844,0,0,1,2.866-2.317S411.224,208.14,415.9,201.913Z" transform="translate(-405.411 -201.913)" fill="#003b5e"/>
        </g>
      </g>
      <g id="Group_491" data-name="Group 491" transform="translate(404.869 167.962)">
        <g id="Group_465" data-name="Group 465" transform="translate(34.38 61.556)">
          <path id="Path_596" data-name="Path 596" d="M398.717,182.674s.259,7.149-1.121,7.531-3.52-9.022-3.52-9.022Z" transform="translate(-394.077 -181.183)" fill="#fdb171"/>
        </g>
        <g id="Group_466" data-name="Group 466" transform="translate(31.786 21.649)">
          <path id="Path_597" data-name="Path 597" d="M392.915,163.3s5.451,1.4,5.678,4.748,1.674,20.742,1.674,20.742l.891,15.99-5.573-.478Z" transform="translate(-392.915 -163.304)" fill="#6cc6c8"/>
        </g>
        <g id="Group_486" data-name="Group 486" transform="translate(0 16.566)">
          <g id="Group_467" data-name="Group 467" transform="translate(17.261 105.977)">
            <path id="Path_598" data-name="Path 598" d="M395.163,208.641c-.806.739-7.721-.138-8.064.721-.366.841-.982,3.221-.5,4.486a.884.884,0,0,0-.116.958c.219.652,1.962.824,4.219.795s9.047.431,10.926-.1,3.576-1.192,3.815-2,.775-2.5-.9-2.268a9.342,9.342,0,0,1-4.529-.219,22,22,0,0,1-3.48-1.83C395.783,208.539,395.491,208.347,395.163,208.641Z" transform="translate(-386.407 -208.507)" fill="#40291a"/>
          </g>
          <g id="Group_468" data-name="Group 468" transform="translate(11.626 42.195)">
            <path id="Path_599" data-name="Path 599" d="M383.883,180.906s1.388,12.477,2.645,18.452,2.216,11.68,2.216,13.622,1.116,31.972,1.116,31.972l10.145-.833s-.551-24.05-.415-28.914c.078-2.612.149-9.145.2-13.305.047-3.582.078-6.955.078-6.955l-.975-15.015Z" transform="translate(-383.883 -179.931)" fill="#004a6e"/>
          </g>
          <g id="Group_469" data-name="Group 469" transform="translate(15.25 103.719)">
            <path id="Path_600" data-name="Path 600" d="M396.233,211.964c-1.1.087-6.033-4.895-6.835-4.44s-2.777,1.953-3.183,3.254c0,0-.453.031-.681.692s1.04,1.868,2.848,3.236,6.9,5.955,8.714,6.705,3.571,1.27,4.261.772c.7-.478,2.165-1.5.7-2.35a9.453,9.453,0,0,1-3.458-2.982,22.58,22.58,0,0,1-1.618-3.6C396.788,212.27,396.677,211.937,396.233,211.964Z" transform="translate(-385.507 -207.495)" fill="#5b361f"/>
          </g>
          <g id="Group_471" data-name="Group 471" transform="translate(17.418 80.805)">
            <g id="Group_470" data-name="Group 470">
              <path id="Path_601" data-name="Path 601" d="M387.556,220.594l-1.074.864c-.02-.614.029-1.917,0-2.683.953-1.683,2.6-4.745,4.457-8.893,1.719-3.848,3.913-9.031,5.437-12.654.029,6.8.31,19.941.409,24.2-.239.518-.453,1-.661,1.437Z" transform="translate(-386.478 -197.229)" fill="#003b5e"/>
            </g>
          </g>
          <g id="Group_472" data-name="Group 472" transform="translate(17.974 43.17)">
            <path id="Path_602" data-name="Path 602" d="M394.629,194.821l1.658,6.542,3,12.332s-4.31,10.428-7.227,16.961a92.552,92.552,0,0,1-5.33,10.379l9.082,5.748s10.984-24.053,11.676-25.858,2.855-4.8,2.281-9.038c-.409-3.058-4.917-31.519-4.917-31.519H393.231Z" transform="translate(-386.727 -180.368)" fill="#004a6e"/>
          </g>
          <g id="Group_473" data-name="Group 473" transform="translate(11.626 44.591)">
            <path id="Path_603" data-name="Path 603" d="M383.883,181h24.71l.29,1.732h-25Z" transform="translate(-383.883 -181.004)" fill="#003b5e"/>
          </g>
          <g id="Group_474" data-name="Group 474" transform="translate(11.37 44.986)">
            <path id="Path_604" data-name="Path 604" d="M387.9,181.221l3.1,2.518-3.529,5.3a9.308,9.308,0,0,1-3.627-5.127C383.1,180.645,387.9,181.221,387.9,181.221Z" transform="translate(-383.768 -181.181)" fill="#fdb171"/>
          </g>
          <g id="Group_477" data-name="Group 477" transform="translate(19.525)">
            <g id="Group_476" data-name="Group 476">
              <g id="Group_475" data-name="Group 475">
                <path id="Path_605" data-name="Path 605" d="M388.114,161.027c-.125.574-.475,3.038-.692,3.549,0,.018,1.821,1.087,1.987,1.167a6.536,6.536,0,0,0,3.692.538c1.089-.308,1.623-1.721,1.73-1.882.183-.272.011-2.482.172-2.832Z" transform="translate(-387.422 -161.027)" fill="#fdb171"/>
              </g>
            </g>
          </g>
          <g id="Group_478" data-name="Group 478" transform="translate(0 4.058)">
            <path id="Path_606" data-name="Path 606" d="M396.093,162.845c-3.989,1.025-8.709,1.025-10.52,5.609s-6.4,20.834-6.848,22.26c-.676,2.136,5.538,10.638,11.575,17.5l5.06-4.277-8.674-11.85L389.6,181.96l.7,21.417H406l1.429-13.263-6.98-21.1Z" transform="translate(-378.674 -162.845)" fill="#6cc6c8"/>
          </g>
          <g id="Group_479" data-name="Group 479" transform="translate(24.362 4.297)">
            <path id="Path_607" data-name="Path 607" d="M392.464,203.245h9.1l-1.216-29.5s-1.308-9.388-2.125-9.642c-1.812-.567-3.931-1.15-3.931-1.15l-4.7,29.847Z" transform="translate(-389.589 -162.952)" fill="#6cc6c8"/>
          </g>
          <g id="Group_480" data-name="Group 480" transform="translate(17.418 2.672)">
            <path id="Path_608" data-name="Path 608" d="M388.79,162.224a17.517,17.517,0,0,0,4.759,2.33s2.21-1.013,2.433-1.859l2.712,1.154-3.663,24.468s-5.317-18.43-8.553-24.707Z" transform="translate(-386.478 -162.224)" fill="#3fb2ac"/>
          </g>
          <g id="Group_482" data-name="Group 482" transform="translate(13.992 46.99)">
            <g id="Group_481" data-name="Group 481">
              <rect id="Rectangle_63" data-name="Rectangle 63" width="7.63" height="1.423" transform="matrix(0.585, -0.811, 0.811, 0.585, 0, 6.188)" fill="#003b5e"/>
            </g>
          </g>
          <g id="Group_484" data-name="Group 484" transform="translate(35.254 46.922)">
            <g id="Group_483" data-name="Group 483">
              <rect id="Rectangle_64" data-name="Rectangle 64" width="1.421" height="7.883" transform="translate(0 0.247) rotate(-10.001)" fill="#003b5e"/>
            </g>
          </g>
          <g id="Group_485" data-name="Group 485" transform="translate(11.377 35.225)">
            <path id="Path_609" data-name="Path 609" d="M389.814,186.174h-1.136l-4.907-6.7v-2.66Z" transform="translate(-383.771 -176.809)" fill="#3fb2ac"/>
          </g>
        </g>
        <g id="Group_487" data-name="Group 487" transform="translate(16.743 1.471)">
          <path id="Path_610" data-name="Path 610" d="M399.116,163.179h-.109c.045-.408.1-.817.147-1.19.254-1.966.835-7.725-6.033-7.725s-6.29,5.759-6.033,7.725c.042.373.1.781.15,1.19h-.116c-1.047-.775-1.134,1.245-.7,1.933a4.253,4.253,0,0,1,.589,1.261c.159.466.422.527.654.473.027.272.047.513.056.71.1,1.056,2.654,3.187,3.232,3.85.542.625,1.446.382,1.737.368s.431-.025.431-.025.141,0,.435.025,1.183.257,1.734-.368c.574-.663,3.123-2.795,3.219-3.85.022-.2.049-.437.074-.71.225.054.489-.007.647-.473a4.091,4.091,0,0,1,.589-1.261C400.256,164.424,400.16,162.4,399.116,163.179Z" transform="translate(-386.176 -154.264)" fill="#fdb171"/>
        </g>
        <g id="Group_488" data-name="Group 488" transform="translate(17.308)">
          <path id="Path_611" data-name="Path 611" d="M397.7,153.6s.281.77-5.578.77l0,0c-.12,0-.25,0-.393.011a5.227,5.227,0,0,0-5.294,5.58l0-.007a18.138,18.138,0,0,0,.489,4.029l.12-.654a6.62,6.62,0,0,1,.315-1.431,1.376,1.376,0,0,1,.04-.132c.085-.219.172-.446.283-.672,1.524-3.036,5.125-2.047,5.125-2.047s3.6-.991,5.134,2.051a5.272,5.272,0,0,1,.268.656.941.941,0,0,1,.049.147,7.066,7.066,0,0,1,.315,1.426l.121.654c.161-.839.321-1.683.424-2.524v-.011A12.892,12.892,0,0,0,397.7,153.6Z" transform="translate(-386.429 -153.605)" fill="#141414"/>
        </g>
        <g id="Group_489" data-name="Group 489" transform="translate(17.737 9.595)">
          <path id="Path_612" data-name="Path 612" d="M389.284,164.835a4.523,4.523,0,0,1-1.75-2.824c-.107-.879-.725-3.627-.725-3.973,0-.23-.12-.147-.187.121.025.179.045.35.067.536,0,0,.357,3.681.424,3.667.025.272.051.513.06.71a1.552,1.552,0,0,0,.087.3c.132.2.339.522.587.917.83,1.025,2.161,2.172,2.558,2.632.542.625,1.446.377,1.737.364s.431-.02.431-.02.141,0,.435.02,1.183.261,1.734-.364c.393-.46,1.734-1.607,2.545-2.632.261-.4.462-.719.6-.917a1.648,1.648,0,0,0,.076-.3c.022-.2.049-.437.074-.71.058.013.424-3.667.424-3.667.022-.185.04-.357.06-.536-.065-.268-.181-.35-.181-.121,0,.346-.627,3.094-.732,3.973a4.512,4.512,0,0,1-1.743,2.824,5.5,5.5,0,0,1-4.594.937Z" transform="translate(-386.621 -157.904)" fill="#141414"/>
        </g>
        <g id="Group_490" data-name="Group 490" transform="translate(34.38 27.624)">
          <path id="Path_613" data-name="Path 613" d="M396.032,199.514l-1.955-33.533,3.643,35.331-1.4-.067Z" transform="translate(-394.077 -165.981)" fill="#3fb2ac"/>
        </g>
      </g>
      <g id="Group_492" data-name="Group 492" transform="translate(385.745 314.051)">
        <rect id="Rectangle_65" data-name="Rectangle 65" width="2.365" height="13.362" fill="#40291a"/>
      </g>
      <g id="Group_493" data-name="Group 493" transform="translate(428.2 308.364)">
        <rect id="Rectangle_66" data-name="Rectangle 66" width="2.363" height="13.365" fill="#40291a"/>
      </g>
      <g id="Group_494" data-name="Group 494" transform="translate(431.993 308.364)">
        <rect id="Rectangle_67" data-name="Rectangle 67" width="2.361" height="13.365" fill="#40291a"/>
      </g>
      <g id="Group_495" data-name="Group 495" transform="translate(469.495 300.781)">
        <rect id="Rectangle_68" data-name="Rectangle 68" width="2.367" height="13.365" fill="#40291a"/>
      </g>
      <g id="Group_496" data-name="Group 496" transform="translate(473.286 300.781)">
        <rect id="Rectangle_69" data-name="Rectangle 69" width="2.363" height="13.365" fill="#40291a"/>
      </g>
      <g id="Group_497" data-name="Group 497" transform="translate(476.937 300.781)">
        <rect id="Rectangle_70" data-name="Rectangle 70" width="2.365" height="13.365" fill="#40291a"/>
      </g>
      <g id="Group_501" data-name="Group 501" transform="translate(357.413 141.952)">
        <g id="Group_498" data-name="Group 498" transform="translate(0 2.699)">
          <path id="Path_614" data-name="Path 614" d="M358.3,188.907l-.885-1.678L380,175.361l24.973-2.825,23.737-11.766,24.149-2.415,28.33-15.194.9,1.669-28.849,15.394-24.162,2.413L405.354,174.4l-24.967,2.822Z" transform="translate(-357.413 -143.161)" fill="#87512e"/>
        </g>
        <g id="Group_500" data-name="Group 500" transform="translate(120.753)">
          <g id="Group_499" data-name="Group 499">
            <path id="Path_615" data-name="Path 615" d="M415.981,150.279l4.976-8.032-9.445-.3Z" transform="translate(-411.513 -141.952)" fill="#87512e"/>
          </g>
        </g>
      </g>
    </g>
  </g>
</svg>
