<svg xmlns="http://www.w3.org/2000/svg" width="162.315" height="184.204" viewBox="0 0 162.315 184.204">
  <g id="Group_225" data-name="Group 225" transform="translate(297.682 -366.928)">
    <g id="Group_119" data-name="Group 119" transform="translate(-229.061 432.334)">
      <g id="Group_114" data-name="Group 114" transform="translate(5.736 13.557)">
        <path id="Path_361" data-name="Path 361" d="M-224.725,517.54h38.986l4.385-77.793h-47.757Z" transform="translate(229.111 -439.747)" fill="#87512e"/>
      </g>
      <g id="Group_115" data-name="Group 115" transform="translate(0 4.726)">
        <path id="Path_362" data-name="Path 362" d="M-234.4,431.6h59.226l-2.746,11.326h-53.733Z" transform="translate(234.401 -431.603)" fill="#5b361f"/>
      </g>
      <g id="Group_116" data-name="Group 116" transform="translate(5.406 90.127)">
        <path id="Path_363" data-name="Path 363" d="M-229.415,518.839H-181l-4.386-8.48h-39.638Z" transform="translate(229.415 -510.359)" fill="#5b361f"/>
      </g>
      <g id="Group_117" data-name="Group 117" transform="translate(5.406 98.607)">
        <rect id="Rectangle_39" data-name="Rectangle 39" width="48.415" height="4.573" fill="#87512e"/>
      </g>
      <g id="Group_118" data-name="Group 118">
        <rect id="Rectangle_40" data-name="Rectangle 40" width="59.226" height="4.726" fill="#40291a"/>
      </g>
    </g>
    <g id="Group_145" data-name="Group 145" transform="translate(-265.923 366.928)">
      <g id="Group_120" data-name="Group 120" transform="translate(64.324 78.028)">
        <path id="Path_364" data-name="Path 364" d="M-205.963,438.885c1.48.851,3.555,1.885,4.309,3.16s3.554,4.992,2.524,6.133-4.81,1.913-5.761.749-3.272-3.688-3.242-4.9a10.253,10.253,0,0,0-.942-3.3Z" transform="translate(209.075 -438.885)" fill="#fdb171"/>
      </g>
      <g id="Group_122" data-name="Group 122" transform="translate(70.699 83.406)">
        <g id="Group_121" data-name="Group 121">
          <path id="Path_365" data-name="Path 365" d="M-203.082,444.76c.018.025.036.051.055.078l7.348,9.294a.577.577,0,0,0,.822.154.655.655,0,0,0,.008-.884l-7.348-9.291a.581.581,0,0,0-.825-.154A.629.629,0,0,0-203.082,444.76Z" transform="translate(203.197 -443.844)" fill="#40291a"/>
        </g>
      </g>
      <g id="Group_123" data-name="Group 123" transform="translate(69.139 82.544)">
        <path id="Path_366" data-name="Path 366" d="M-202.661,445.174a2.87,2.87,0,0,0,3.566,1.011c1.122-.746-2.85-2.325-3.4-2.728a5.17,5.17,0,0,0-2.144-.408Z" transform="translate(204.635 -443.049)" fill="#fdb171"/>
      </g>
      <g id="Group_124" data-name="Group 124" transform="translate(27.127 21.601)">
        <path id="Path_367" data-name="Path 367" d="M-240.035,386.848s.086,4.056,1.287,5.272c0,0-1.115,4.46-4.63,4.46v-9.244Z" transform="translate(243.378 -386.848)" fill="#fdb171"/>
      </g>
      <g id="Group_125" data-name="Group 125" transform="translate(22.497 21.601)">
        <path id="Path_368" data-name="Path 368" d="M-246.363,386.848s-.086,4.056-1.285,5.272c0,0,1.116,4.46,4.63,4.46v-9.244Z" transform="translate(247.648 -386.848)" fill="#fdb171"/>
      </g>
      <g id="Group_126" data-name="Group 126" transform="translate(23.602 21.601)">
        <path id="Path_369" data-name="Path 369" d="M-242.417,391.715c-1.847,0-3.343-1.49-4.212-2.794a20.5,20.5,0,0,0,.18-2.072l3.345.488,3.343-.488a18.268,18.268,0,0,0,.475,3.537A4.424,4.424,0,0,1-242.417,391.715Z" transform="translate(246.629 -386.848)" fill="#f09c56"/>
      </g>
      <g id="Group_127" data-name="Group 127" transform="translate(31.49 159.007)">
        <path id="Path_370" data-name="Path 370" d="M-231.031,515.621s3.259,4.115,4.8,6-.686,6.174-4.8,3.945-6.163-4.341-7.027-4.66-1.548-2.2-1.206-7.347Z" transform="translate(239.354 -513.563)" fill="#1e2020"/>
      </g>
      <g id="Group_128" data-name="Group 128" transform="translate(27.127 91.103)">
        <path id="Path_371" data-name="Path 371" d="M-229.429,452.139l-.222,68.766h-11.243l-1.479-59.22s-.077-3.275-1.005-3.885v-6.858Z" transform="translate(243.378 -450.942)" fill="#003b5e"/>
      </g>
      <g id="Group_129" data-name="Group 129" transform="translate(9.146 159.007)">
        <path id="Path_372" data-name="Path 372" d="M-254.667,515.621s-3.259,4.115-4.8,6,.688,6.174,4.8,3.945,6.166-4.341,7.027-4.66,1.55-2.2,1.206-7.347Z" transform="translate(259.96 -513.563)" fill="#1e2020"/>
      </g>
      <g id="Group_130" data-name="Group 130" transform="translate(13.175 91.103)">
        <path id="Path_373" data-name="Path 373" d="M-256.244,452.139l.223,68.766h11.24l1.484-59.22s.232-3.525,1-3.885v-6.858Z" transform="translate(256.244 -450.942)" fill="#003b5e"/>
      </g>
      <g id="Group_131" data-name="Group 131" transform="translate(27.127 27.988)">
        <path id="Path_374" data-name="Path 374" d="M-235.32,392.738c1.89,1.029,8.954,2.275,9.3,5.881s-2.091,19.674-2.433,28.421.343,30.01.343,30.01h-15.265V396.083Z" transform="translate(243.378 -392.738)" fill="#004a6e"/>
      </g>
      <g id="Group_132" data-name="Group 132" transform="translate(9.64 27.988)">
        <path id="Path_375" data-name="Path 375" d="M-250.077,392.738c-1.889,1.029-9.052,3.087-9.4,6.687s2.189,18.867,2.532,27.615-.343,30.01-.343,30.01h15.266V396.083Z" transform="translate(259.504 -392.738)" fill="#004a6e"/>
      </g>
      <g id="Group_133" data-name="Group 133" transform="translate(27.274 27.453)">
        <path id="Path_376" data-name="Path 376" d="M-234.555,393.209l-8.688,22.207V396.125l6.9-3.88Z" transform="translate(243.243 -392.245)" fill="#b4d1d7"/>
      </g>
      <g id="Group_134" data-name="Group 134" transform="translate(18.252 27.453)">
        <path id="Path_377" data-name="Path 377" d="M-251.562,393.209l9.021,22.207V396.125l-7.227-3.88Z" transform="translate(251.562 -392.245)" fill="#b4d1d7"/>
      </g>
      <g id="Group_138" data-name="Group 138" transform="translate(18.7)">
        <g id="Group_135" data-name="Group 135" transform="translate(0.084 6.36)">
          <path id="Path_378" data-name="Path 378" d="M-242.729,391.359c-2.855,0-5.709-3.558-6.471-7.8a1.065,1.065,0,0,1-1.046-.423,3.557,3.557,0,0,1-.666-3.143A1.131,1.131,0,0,1-249,379.55s-.2-6.757,6.273-6.757Z" transform="translate(251.071 -372.793)" fill="#fdb171"/>
        </g>
        <g id="Group_136" data-name="Group 136" transform="translate(8.427 6.36)">
          <path id="Path_379" data-name="Path 379" d="M-243.378,391.359c2.854,0,5.71-3.558,6.47-7.8a1.063,1.063,0,0,0,1.045-.423A3.557,3.557,0,0,0-235.2,380a1.131,1.131,0,0,0-1.911-.446s.2-6.757-6.272-6.757Z" transform="translate(243.378 -372.793)" fill="#fdb171"/>
        </g>
        <g id="Group_137" data-name="Group 137">
          <path id="Path_380" data-name="Path 380" d="M-251.094,373.288c.285-3.308,2.092-6.273,8.371-6.36,6.279.087,8.084,3.051,8.369,6.36a21.624,21.624,0,0,1-.624,6.628c-1.275-.268-1.847,1.254-1.847,1.254.379-2.966-1.713-7.459-2.475-6.866a7.407,7.407,0,0,1-3.424,1.143,7.407,7.407,0,0,1-3.427-1.143c-.76-.593-2.853,3.9-2.475,6.866,0,0-.57-1.521-1.847-1.254A21.663,21.663,0,0,1-251.094,373.288Z" transform="translate(251.149 -366.928)" fill="#713c1f"/>
        </g>
      </g>
      <g id="Group_139" data-name="Group 139" transform="translate(27.127 26.187)">
        <path id="Path_381" data-name="Path 381" d="M-243.378,396.223l4.63-5.146,3.427,1.8-4.24,6.687Z" transform="translate(243.378 -391.077)" fill="#d8e9ed"/>
      </g>
      <g id="Group_140" data-name="Group 140" transform="translate(19.067 26.187)">
        <path id="Path_382" data-name="Path 382" d="M-242.75,396.223l-4.631-5.146-3.429,1.8,4.24,6.687Z" transform="translate(250.811 -391.077)" fill="#d8e9ed"/>
      </g>
      <g id="Group_141" data-name="Group 141" transform="translate(6.679 32.057)">
        <path id="Path_383" data-name="Path 383" d="M-262.177,408.644c-.022-.381-.043-.764-.053-1.144a13.815,13.815,0,0,1,4.564-11.009l-.13,12.153Z" transform="translate(262.235 -396.491)" fill="#004a6e"/>
      </g>
      <g id="Group_142" data-name="Group 142" transform="translate(0 42.137)">
        <rect id="Rectangle_41" data-name="Rectangle 41" width="18.699" height="29.668" transform="matrix(0.991, -0.134, 0.134, 0.991, 0, 2.499)" fill="#b4d1d7"/>
      </g>
      <g id="Group_143" data-name="Group 143" transform="translate(0.146 56.242)">
        <path id="Path_384" data-name="Path 384" d="M-266.59,420.641c1.127,1.97,3.185.6,3.873,1.112.5.377.758,3.971-.494,5.384a3.213,3.213,0,0,1-2.367.625c-2.88-.173-3.657-8.29-1.261-8.967Z" transform="translate(268.26 -418.794)" fill="#fdb171"/>
      </g>
      <g id="Group_144" data-name="Group 144" transform="translate(41.076 32.057)">
        <path id="Path_385" data-name="Path 385" d="M-230.514,415.058s4.1,7.567,9.212,15.2a203.658,203.658,0,0,0,13.2,16.861l5.716-4.744-13.5-19.847-12.062-26.032Z" transform="translate(230.514 -396.491)" fill="#004a6e"/>
      </g>
    </g>
    <g id="Group_224" data-name="Group 224" transform="translate(-297.682 453.235)">
      <g id="Group_156" data-name="Group 156" transform="translate(113.856 16.895)">
        <g id="Group_147" data-name="Group 147" transform="translate(4.491 11.709)">
          <g id="Group_146" data-name="Group 146">
            <path id="Path_386" data-name="Path 386" d="M-187.34,489.28a29.712,29.712,0,0,0-.47-4.966c-.343-.683-1.11-4.108-.513-5.3s1.283-2.143,1.968-3.513,1.8-3.08,2.912-2.478,2.312,3.506,2.652,4.448.17,4.708,0,6.075-2.225,4.45-2.225,6.762S-187.34,489.28-187.34,489.28Z" transform="translate(188.544 -472.896)" fill="#fdb171"/>
          </g>
        </g>
        <g id="Group_149" data-name="Group 149" transform="translate(0 27.492)">
          <g id="Group_148" data-name="Group 148">
            <path id="Path_387" data-name="Path 387" d="M-188.23,513.13c4.1.223,6.249-1.543,6.42-6.932s.513-17.721.513-17.721l-8.388-1.025s-2.4,15.751-2.825,17.714S-192.938,512.872-188.23,513.13Z" transform="translate(192.685 -487.452)" fill="#fe9838"/>
          </g>
        </g>
        <g id="Group_151" data-name="Group 151" transform="translate(7.527 8.954)">
          <g id="Group_150" data-name="Group 150">
            <path id="Path_388" data-name="Path 388" d="M-185.477,474.518c-.427-1.457-.4-4.883.525-4.025s2.326,5.22,2.326,5.22Z" transform="translate(185.744 -470.357)" fill="#fdb171"/>
          </g>
        </g>
        <g id="Group_153" data-name="Group 153" transform="translate(8.546)">
          <g id="Group_152" data-name="Group 152">
            <path id="Path_389" data-name="Path 389" d="M-184.1,478.4a.7.7,0,0,1-.7-.7V462.8a.7.7,0,0,1,.7-.7.706.706,0,0,1,.7.7v14.891A.7.7,0,0,1-184.1,478.4Z" transform="translate(184.804 -462.099)" fill="#004a6e"/>
          </g>
        </g>
        <g id="Group_155" data-name="Group 155" transform="translate(8.32 13.116)">
          <g id="Group_154" data-name="Group 154">
            <path id="Path_390" data-name="Path 390" d="M-184.866,474.194c.782.511,2.407,1.966,2.151,3.762s-1.823,3.511-2.151,3.255S-184.866,474.194-184.866,474.194Z" transform="translate(185.013 -474.194)" fill="#fdb171"/>
          </g>
        </g>
      </g>
      <g id="Group_165" data-name="Group 165">
        <g id="Group_158" data-name="Group 158" transform="translate(4.263 9.084)">
          <g id="Group_157" data-name="Group 157">
            <path id="Path_391" data-name="Path 391" d="M-293.751,474a45.242,45.242,0,0,0,1.894-5.6,5.7,5.7,0,0,0,0-3.7c-.494-1.974-.986-3.456-.328-4.114s.82-1.73,1.642-1.809.66-1.976,1.73-2.142,1.566-1.889,2.88-1.727,1.4,1.567,1.4,5.27-.578,6-1.316,7.071a44.179,44.179,0,0,0-2.3,6.088Z" transform="translate(293.751 -454.896)" fill="#fdb171"/>
          </g>
        </g>
        <g id="Group_160" data-name="Group 160" transform="translate(0 26.839)">
          <g id="Group_159" data-name="Group 159">
            <path id="Path_392" data-name="Path 392" d="M-286.952,509.013l-10.73-18.364s1.948-16.912,2.444-19.379l7.416.684-.7,15.735s1.621,5.786,10.006,9.327Z" transform="translate(297.682 -471.27)" fill="#d35500"/>
          </g>
        </g>
        <g id="Group_162" data-name="Group 162" transform="translate(10.785)">
          <g id="Group_161" data-name="Group 161">
            <path id="Path_393" data-name="Path 393" d="M-287.059,460.267h-.031a.674.674,0,0,1-.645-.7l.536-12.4a.694.694,0,0,1,.7-.644.673.673,0,0,1,.644.7l-.535,12.4A.672.672,0,0,1-287.059,460.267Z" transform="translate(287.736 -446.519)" fill="#3fb2ac"/>
          </g>
        </g>
        <g id="Group_164" data-name="Group 164" transform="translate(10.27 12.141)">
          <g id="Group_163" data-name="Group 163">
            <path id="Path_394" data-name="Path 394" d="M-288.211,462.9c.578-.906.491-5.184,1.482-5.184s.741,3.375.824,4.032a16.925,16.925,0,0,1-.824,3.377Z" transform="translate(288.211 -457.715)" fill="#fdb171"/>
          </g>
        </g>
      </g>
      <g id="Group_173" data-name="Group 173" transform="translate(6.212 24.088)">
        <g id="Group_166" data-name="Group 166" transform="translate(0 27.347)">
          <path id="Path_395" data-name="Path 395" d="M-291.953,523.985s1.385-16.847,1.084-22.56,5.533-6.819,11.144-6.62v-.852h7.625v30.033Z" transform="translate(291.953 -493.952)" fill="#d35500"/>
        </g>
        <g id="Group_167" data-name="Group 167" transform="translate(13.432 24.397)">
          <rect id="Rectangle_42" data-name="Rectangle 42" width="6.423" height="2.95" fill="#b4d1d7"/>
        </g>
        <g id="Group_168" data-name="Group 168" transform="translate(19.854 27.347)">
          <path id="Path_396" data-name="Path 396" d="M-253.79,523.985s-1.386-16.847-1.084-22.56-5.539-6.819-11.151-6.62v-.852h-7.619v30.033Z" transform="translate(273.644 -493.952)" fill="#d35500"/>
        </g>
        <g id="Group_169" data-name="Group 169" transform="translate(19.854 24.397)">
          <rect id="Rectangle_43" data-name="Rectangle 43" width="6.415" height="2.95" fill="#b4d1d7"/>
        </g>
        <g id="Group_172" data-name="Group 172" transform="translate(10.612)">
          <g id="Group_170" data-name="Group 170">
            <path id="Path_397" data-name="Path 397" d="M-272.925,468.733c-6.237,0-9.242,5.059-9.242,9.9s2.08,16.715,9.242,16.5Z" transform="translate(282.167 -468.733)" fill="#37120b"/>
          </g>
          <g id="Group_171" data-name="Group 171" transform="translate(9.242)">
            <path id="Path_398" data-name="Path 398" d="M-273.644,468.733c6.233,0,9.235,5.059,9.235,9.9s-2.076,16.715-9.235,16.5Z" transform="translate(273.644 -468.733)" fill="#37120b"/>
          </g>
        </g>
      </g>
      <g id="Group_182" data-name="Group 182" transform="translate(82.207 24.552)">
        <g id="Group_174" data-name="Group 174" transform="translate(0 26.884)">
          <path id="Path_399" data-name="Path 399" d="M-221.862,523.986s.3-16.846,0-22.559,6.618-6.819,12.23-6.619v-.854h7.624v30.033Z" transform="translate(221.872 -493.953)" fill="#fe9838"/>
        </g>
        <g id="Group_175" data-name="Group 175" transform="translate(13.443 23.935)">
          <rect id="Rectangle_44" data-name="Rectangle 44" width="6.42" height="2.949" fill="#b4d1d7"/>
        </g>
        <g id="Group_176" data-name="Group 176" transform="translate(19.863 26.884)">
          <path id="Path_400" data-name="Path 400" d="M-183.7,523.986s-.3-16.846,0-22.559-6.623-6.819-12.235-6.619v-.854h-7.618v30.033Z" transform="translate(203.554 -493.953)" fill="#fe9838"/>
        </g>
        <g id="Group_177" data-name="Group 177" transform="translate(19.863 23.935)">
          <rect id="Rectangle_45" data-name="Rectangle 45" width="6.414" height="2.949" fill="#b4d1d7"/>
        </g>
        <g id="Group_180" data-name="Group 180" transform="translate(10.623 1.944)">
          <g id="Group_178" data-name="Group 178">
            <path id="Path_401" data-name="Path 401" d="M-202.835,470.954c-6.238,0-9.24,5.058-9.24,9.9s2.075,14.309,9.24,14.092Z" transform="translate(212.075 -470.954)" fill="#40291a"/>
          </g>
          <g id="Group_179" data-name="Group 179" transform="translate(9.24)">
            <path id="Path_402" data-name="Path 402" d="M-203.554,470.954c6.232,0,9.233,5.058,9.233,9.9s-2.077,14.309-9.233,14.092Z" transform="translate(203.554 -470.954)" fill="#40291a"/>
          </g>
        </g>
        <g id="Group_181" data-name="Group 181" transform="translate(10.653)">
          <path id="Path_403" data-name="Path 403" d="M-209.727,469.161s-.406,1.326,8.016,1.326c0,0,.005.005.01.005.166,0,.362,0,.569.011,8.047.427,7.5,6.962,7.5,6.962l-.013-.01a25.881,25.881,0,0,1-.674,5.729l-.168-1.115s-.121.042-.484-1.308c-.024-.074-.053-.14-.07-.215-.11-.374-.24-.752-.4-1.148-2.184-5.181-7.368-3.49-7.368-3.49s-5.184-1.7-7.372,3.5a9.994,9.994,0,0,0-.388,1.122,2.14,2.14,0,0,0-.078.235c-.365,1.34-.421,1.3-.421,1.3l-.162,1.115c-.234-1.442-.511-1.725-.642-3.16a.141.141,0,0,1-.005-.027C-212.793,472.386-209.727,469.161-209.727,469.161Z" transform="translate(212.048 -469.161)" fill="#40291a"/>
        </g>
      </g>
      <g id="Group_186" data-name="Group 186" transform="translate(46.622 48.487)">
        <g id="Group_183" data-name="Group 183" transform="translate(10.981)">
          <path id="Path_404" data-name="Path 404" d="M-231.6,495.525c0-2.373-1.1-4.292-2.467-4.292h-8.017c-1.365,0-2.472,1.919-2.472,4.292h0c0,2.37,1.107,4.291,2.472,4.291h8.017c1.364,0,2.467-1.92,2.467-4.291Z" transform="translate(244.561 -491.233)" fill="#003b5e"/>
        </g>
        <g id="Group_184" data-name="Group 184" transform="translate(0 4.677)">
          <path id="Path_405" data-name="Path 405" d="M-254.688,524.022s1.37-15.538,2.116-20.731c1.043-7.27,10.566-7.745,10.566-7.745h4.781v28.476Z" transform="translate(254.688 -495.546)" fill="#3fb2ac"/>
        </g>
        <g id="Group_185" data-name="Group 185" transform="translate(17.463 4.677)">
          <path id="Path_406" data-name="Path 406" d="M-221.123,524.022s-1.372-15.538-2.12-20.731c-1.043-7.27-10.566-7.745-10.566-7.745h-4.775v28.476Z" transform="translate(238.584 -495.546)" fill="#3fb2ac"/>
        </g>
      </g>
      <g id="Group_192" data-name="Group 192" transform="translate(41.819 57.76)">
        <g id="Group_187" data-name="Group 187" transform="translate(2.277 24.466)">
          <path id="Path_407" data-name="Path 407" d="M-257.009,523.956a1.5,1.5,0,0,1,1.588-1.609h7.358a1.694,1.694,0,0,1,1.752,1.616V536.4a1.7,1.7,0,0,1-1.752,1.617h-5.768a1.913,1.913,0,0,1-1.913-1.611Z" transform="translate(257.017 -522.347)" fill="#5b361f"/>
        </g>
        <g id="Group_188" data-name="Group 188" transform="translate(0 23.245)">
          <path id="Path_408" data-name="Path 408" d="M-259.117,522.688a1.632,1.632,0,0,1,1.752-1.467h5.243a1.629,1.629,0,0,1,1.748,1.467,1.632,1.632,0,0,1-1.748,1.468h-5.243A1.635,1.635,0,0,1-259.117,522.688Z" transform="translate(259.117 -521.221)" fill="#40291a"/>
        </g>
        <g id="Group_189" data-name="Group 189" transform="translate(31.543 24.466)">
          <path id="Path_409" data-name="Path 409" d="M-219.33,523.956a1.5,1.5,0,0,0-1.585-1.609h-7.36a1.694,1.694,0,0,0-1.753,1.616V536.4a1.7,1.7,0,0,0,1.753,1.617h5.768a1.918,1.918,0,0,0,1.916-1.611Z" transform="translate(230.028 -522.347)" fill="#5b361f"/>
        </g>
        <g id="Group_190" data-name="Group 190" transform="translate(35.784 23.245)">
          <path id="Path_410" data-name="Path 410" d="M-217.377,522.688a1.63,1.63,0,0,0-1.748-1.467h-5.24a1.632,1.632,0,0,0-1.752,1.467,1.635,1.635,0,0,0,1.752,1.468h5.24A1.633,1.633,0,0,0-217.377,522.688Z" transform="translate(226.117 -521.221)" fill="#40291a"/>
        </g>
        <g id="Group_191" data-name="Group 191" transform="translate(6.858)">
          <path id="Path_411" data-name="Path 411" d="M-221.983,535.068a5.079,5.079,0,0,1-5.252,4.854h-20.308a5.079,5.079,0,0,1-5.251-4.854v-30.43a5.079,5.079,0,0,1,5.251-4.854h20.308a5.079,5.079,0,0,1,5.252,4.854Z" transform="translate(252.793 -499.785)" fill="#87512e"/>
        </g>
      </g>
      <g id="Group_198" data-name="Group 198" transform="translate(79.802 57.76)">
        <g id="Group_193" data-name="Group 193" transform="translate(2.278 24.466)">
          <path id="Path_412" data-name="Path 412" d="M-221.98,523.956a1.5,1.5,0,0,1,1.588-1.609h7.357a1.694,1.694,0,0,1,1.753,1.616V536.4a1.7,1.7,0,0,1-1.753,1.617H-218.8a1.914,1.914,0,0,1-1.915-1.611Z" transform="translate(221.988 -522.347)" fill="#5b361f"/>
        </g>
        <g id="Group_194" data-name="Group 194" transform="translate(0 23.245)">
          <path id="Path_413" data-name="Path 413" d="M-224.089,522.688a1.634,1.634,0,0,1,1.753-1.467h5.243a1.628,1.628,0,0,1,1.748,1.467,1.631,1.631,0,0,1-1.748,1.468h-5.243A1.637,1.637,0,0,1-224.089,522.688Z" transform="translate(224.089 -521.221)" fill="#40291a"/>
        </g>
        <g id="Group_195" data-name="Group 195" transform="translate(31.545 24.466)">
          <path id="Path_414" data-name="Path 414" d="M-184.3,523.956a1.5,1.5,0,0,0-1.585-1.609h-7.36A1.694,1.694,0,0,0-195,523.963V536.4a1.7,1.7,0,0,0,1.753,1.617h5.767a1.92,1.92,0,0,0,1.919-1.611Z" transform="translate(194.999 -522.347)" fill="#5b361f"/>
        </g>
        <g id="Group_196" data-name="Group 196" transform="translate(35.784 23.245)">
          <path id="Path_415" data-name="Path 415" d="M-182.348,522.688a1.631,1.631,0,0,0-1.748-1.467h-5.24a1.633,1.633,0,0,0-1.753,1.467,1.636,1.636,0,0,0,1.753,1.468h5.24A1.634,1.634,0,0,0-182.348,522.688Z" transform="translate(191.089 -521.221)" fill="#40291a"/>
        </g>
        <g id="Group_197" data-name="Group 197" transform="translate(6.86)">
          <path id="Path_416" data-name="Path 416" d="M-186.953,535.068a5.08,5.08,0,0,1-5.253,4.854h-20.309a5.078,5.078,0,0,1-5.248-4.854v-30.43a5.078,5.078,0,0,1,5.248-4.854h20.309a5.08,5.08,0,0,1,5.253,4.854Z" transform="translate(217.763 -499.785)" fill="#87512e"/>
        </g>
      </g>
      <g id="Group_202" data-name="Group 202" transform="translate(122.593 49.638)">
        <g id="Group_199" data-name="Group 199" transform="translate(10.978)">
          <path id="Path_417" data-name="Path 417" d="M-161.544,496.438c0-2.289-1.1-4.143-2.466-4.143h-8.021c-1.362,0-2.473,1.854-2.473,4.143h0c0,2.288,1.111,4.141,2.473,4.141h8.021c1.362,0,2.466-1.853,2.466-4.141Z" transform="translate(174.504 -492.295)" fill="#b4d1d7"/>
        </g>
        <g id="Group_200" data-name="Group 200" transform="translate(0 4.513)">
          <path id="Path_418" data-name="Path 418" d="M-184.628,523.945s1.367-15,2.116-20.01c1.043-7.017,10.566-7.478,10.566-7.478h4.781v27.488Z" transform="translate(184.628 -496.457)" fill="#003b5e"/>
        </g>
        <g id="Group_201" data-name="Group 201" transform="translate(17.463 4.513)">
          <path id="Path_419" data-name="Path 419" d="M-151.063,523.945s-1.374-15-2.12-20.01c-1.043-7.017-10.566-7.478-10.566-7.478h-4.775v27.488Z" transform="translate(168.524 -496.457)" fill="#003b5e"/>
        </g>
      </g>
      <g id="Group_208" data-name="Group 208" transform="translate(3.922 57.76)">
        <g id="Group_203" data-name="Group 203" transform="translate(2.278 24.466)">
          <path id="Path_420" data-name="Path 420" d="M-291.956,523.956a1.5,1.5,0,0,1,1.588-1.609h7.36a1.691,1.691,0,0,1,1.75,1.616V536.4a1.693,1.693,0,0,1-1.75,1.617h-5.77a1.911,1.911,0,0,1-1.913-1.611Z" transform="translate(291.964 -522.347)" fill="#5b361f"/>
        </g>
        <g id="Group_204" data-name="Group 204" transform="translate(0 23.245)">
          <path id="Path_421" data-name="Path 421" d="M-294.065,522.688a1.633,1.633,0,0,1,1.753-1.467h5.242a1.629,1.629,0,0,1,1.748,1.467,1.632,1.632,0,0,1-1.748,1.468h-5.242A1.636,1.636,0,0,1-294.065,522.688Z" transform="translate(294.065 -521.221)" fill="#40291a"/>
        </g>
        <g id="Group_205" data-name="Group 205" transform="translate(31.55 24.466)">
          <path id="Path_422" data-name="Path 422" d="M-254.277,523.956a1.5,1.5,0,0,0-1.585-1.609h-7.36a1.688,1.688,0,0,0-1.748,1.616V536.4a1.69,1.69,0,0,0,1.748,1.617h5.772a1.918,1.918,0,0,0,1.912-1.611Z" transform="translate(264.97 -522.347)" fill="#5b361f"/>
        </g>
        <g id="Group_206" data-name="Group 206" transform="translate(35.784 23.245)">
          <path id="Path_423" data-name="Path 423" d="M-252.324,522.688a1.631,1.631,0,0,0-1.748-1.467h-5.24a1.632,1.632,0,0,0-1.753,1.467,1.635,1.635,0,0,0,1.753,1.468h5.24A1.634,1.634,0,0,0-252.324,522.688Z" transform="translate(261.065 -521.221)" fill="#40291a"/>
        </g>
        <g id="Group_207" data-name="Group 207" transform="translate(6.859)">
          <path id="Path_424" data-name="Path 424" d="M-256.932,535.068a5.074,5.074,0,0,1-5.249,4.854h-20.3a5.08,5.08,0,0,1-5.254-4.854v-30.43a5.08,5.08,0,0,1,5.254-4.854h20.3a5.074,5.074,0,0,1,5.249,4.854Z" transform="translate(287.74 -499.785)" fill="#87512e"/>
        </g>
      </g>
      <g id="Group_214" data-name="Group 214" transform="translate(117.79 57.76)">
        <g id="Group_209" data-name="Group 209" transform="translate(2.275 24.466)">
          <path id="Path_425" data-name="Path 425" d="M-186.951,523.956a1.5,1.5,0,0,1,1.59-1.609h7.355a1.694,1.694,0,0,1,1.753,1.616V536.4a1.7,1.7,0,0,1-1.753,1.617h-5.767a1.915,1.915,0,0,1-1.915-1.611Z" transform="translate(186.959 -522.347)" fill="#5b361f"/>
        </g>
        <g id="Group_210" data-name="Group 210" transform="translate(0 23.245)">
          <path id="Path_426" data-name="Path 426" d="M-189.057,522.688a1.632,1.632,0,0,1,1.752-1.467h5.24a1.628,1.628,0,0,1,1.749,1.467,1.631,1.631,0,0,1-1.749,1.468h-5.24A1.635,1.635,0,0,1-189.057,522.688Z" transform="translate(189.057 -521.221)" fill="#40291a"/>
        </g>
        <g id="Group_211" data-name="Group 211" transform="translate(31.541 24.466)">
          <path id="Path_427" data-name="Path 427" d="M-149.273,523.956a1.5,1.5,0,0,0-1.582-1.609h-7.36a1.7,1.7,0,0,0-1.756,1.616V536.4a1.7,1.7,0,0,0,1.756,1.617h5.766a1.918,1.918,0,0,0,1.918-1.611Z" transform="translate(159.97 -522.347)" fill="#5b361f"/>
        </g>
        <g id="Group_212" data-name="Group 212" transform="translate(35.781 23.245)">
          <path id="Path_428" data-name="Path 428" d="M-147.317,522.688a1.63,1.63,0,0,0-1.748-1.467h-5.243a1.634,1.634,0,0,0-1.752,1.467,1.637,1.637,0,0,0,1.752,1.468h5.243A1.633,1.633,0,0,0-147.317,522.688Z" transform="translate(156.06 -521.221)" fill="#40291a"/>
        </g>
        <g id="Group_213" data-name="Group 213" transform="translate(6.855)">
          <path id="Path_429" data-name="Path 429" d="M-151.924,535.068a5.079,5.079,0,0,1-5.249,4.854h-20.31a5.08,5.08,0,0,1-5.252-4.854v-30.43a5.08,5.08,0,0,1,5.252-4.854h20.31a5.079,5.079,0,0,1,5.249,4.854Z" transform="translate(182.735 -499.785)" fill="#87512e"/>
        </g>
      </g>
      <g id="Group_222" data-name="Group 222" transform="translate(50.2 25.998)">
        <g id="Group_217" data-name="Group 217" transform="translate(2.364 16.087)">
          <g id="Group_215" data-name="Group 215" transform="translate(12.609 2.108)">
            <path id="Path_430" data-name="Path 430" d="M-228.429,487.273a1.584,1.584,0,0,0-1.2.554,2.5,2.5,0,0,0-1.341-.389,2.558,2.558,0,0,0-2.515,2.171,2.107,2.107,0,0,0-2.029,2.112c0,.008,0,.012,0,.017h0a2.084,2.084,0,0,0-2.07,2.1,2.082,2.082,0,0,0,2.07,2.1,2.046,2.046,0,0,0,1.663-.851,2.592,2.592,0,0,0,.912.172,2.552,2.552,0,0,0,2.537-2.571c0-.057,0-.118-.005-.177a2.544,2.544,0,0,0,1.924-2.01c.024,0,.034.005.05.005a1.606,1.606,0,0,0,1.6-1.615A1.607,1.607,0,0,0-228.429,487.273Z" transform="translate(237.58 -487.273)" fill="#1e2020"/>
          </g>
          <g id="Group_216" data-name="Group 216">
            <path id="Path_431" data-name="Path 431" d="M-238.587,492.077a2.082,2.082,0,0,0-.734.141,2.84,2.84,0,0,0-1.719-1.418,3.189,3.189,0,0,0,.484-1.689,3.215,3.215,0,0,0-3.216-3.214,3.244,3.244,0,0,0-1.248.247,1.8,1.8,0,0,0-1.508-.814,1.806,1.806,0,0,0-1.8,1.8,1.789,1.789,0,0,0,.627,1.355,2.571,2.571,0,0,0-1.5,2.337,2.562,2.562,0,0,0,2.566,2.565,2.6,2.6,0,0,0,.5-.048,1.623,1.623,0,0,0-.038.348,1.53,1.53,0,0,0,1.527,1.53,1.369,1.369,0,0,0,.417-.067,2.869,2.869,0,0,0,2.374,1.257,2.852,2.852,0,0,0,2.032-.846,1.97,1.97,0,0,0,1.239.452,1.972,1.972,0,0,0,1.969-1.971A1.968,1.968,0,0,0-238.587,492.077Z" transform="translate(249.208 -485.329)" fill="#1e2020"/>
          </g>
        </g>
        <g id="Group_220" data-name="Group 220" transform="translate(5.589 4.015)">
          <g id="Group_219" data-name="Group 219">
            <g id="Group_218" data-name="Group 218">
              <path id="Path_432" data-name="Path 432" d="M-230.025,485.983s1.1-4.719-.178-7.34c-1.386-2.831-3.465-4.446-7.275-4.446s-5.89,1.615-7.276,4.446c-1.287,2.621-.184,7.34-.184,7.34-1.728-.346-1.405,1.552-.863,2.406a5.16,5.16,0,0,1,.727,1.567.742.742,0,0,0,1.283.351c.523,1.443.895,1.781,2.961,3.694,1.806,1.661,2.439,1.645,3.353,1.645s1.528.016,3.35-1.645c2.078-1.906,2.434-2.251,2.957-3.694a.742.742,0,0,0,1.283-.351,5.274,5.274,0,0,1,.73-1.567C-228.619,487.535-228.291,485.637-230.025,485.983Z" transform="translate(246.234 -474.197)" fill="#1e2020"/>
            </g>
          </g>
        </g>
        <g id="Group_221" data-name="Group 221">
          <path id="Path_433" data-name="Path 433" d="M-225.039,484.924a3.07,3.07,0,0,0,1.054-2.309,3.073,3.073,0,0,0-.876-2.145,2.694,2.694,0,0,0,.436-1.479,2.728,2.728,0,0,0-2.728-2.729,3.273,3.273,0,0,0-.463.038c0-.014,0-.022,0-.038a3.406,3.406,0,0,0-3.407-3.4,3.546,3.546,0,0,0-1.057.161,1.512,1.512,0,0,0-1.5-1.414,1.456,1.456,0,0,0-.29.029,2.674,2.674,0,0,0-2.193-1.14,2.673,2.673,0,0,0-1.875.77,3.039,3.039,0,0,0-1.546-.427,3.054,3.054,0,0,0-2.969,2.331,2.69,2.69,0,0,0-1.267-.311,2.728,2.728,0,0,0-2.542,1.734c-.065,0-.127-.01-.187-.01a3.086,3.086,0,0,0-3.089,3.085,3.3,3.3,0,0,0,.132.894,1.893,1.893,0,0,0-1.326,1.808,1.9,1.9,0,0,0,.307,1.031,2.67,2.67,0,0,0-.964,2.054,2.686,2.686,0,0,0,1.283,2.287,2.985,2.985,0,0,0-.808,2.054,3.025,3.025,0,0,0,3.025,3.026,3.025,3.025,0,0,0,3-2.63,1.814,1.814,0,0,0,.988-1.609A1.864,1.864,0,0,0-244,486a2.857,2.857,0,0,0,2.257-2.791,2.822,2.822,0,0,0-.42-1.474,2.47,2.47,0,0,0,1.175-2.1,2.741,2.741,0,0,0-.015-.283,1.624,1.624,0,0,0,.146.082,2.04,2.04,0,0,0,1.989,1.587.743.743,0,0,0,.088-.009,2.423,2.423,0,0,0,2.329,1.763,2.361,2.361,0,0,0,.966-.2c0,.09-.008.184-.008.28a3.513,3.513,0,0,0,3.511,3.517,3.276,3.276,0,0,0,.813-.1,2.163,2.163,0,0,0-.025.312,2.142,2.142,0,0,0,1.645,2.089,3.09,3.09,0,0,0,2.854,1.916,3.076,3.076,0,0,0,3.072-3.076A3.068,3.068,0,0,0-225.039,484.924Z" transform="translate(251.388 -470.494)" fill="#1e2020"/>
        </g>
      </g>
      <g id="Group_223" data-name="Group 223" transform="translate(130.825 26.507)">
        <path id="Path_434" data-name="Path 434" d="M-158.335,485.208c.117-2.732-.463-6.524-4.186-8.309a9.218,9.218,0,0,0-3.793-.933,3.193,3.193,0,0,0-.1-1.056c-.654-2.376-3.4-4.419-5.849-3.853s-3.676,3.609-3.045,5.9a3.031,3.031,0,0,0,.758,1.37c-2.643,2.034-2.662,5.673-2.36,7.959.661,8.118,6.712,10.94,9.226,10.99,2.632-.055,9.184-3.147,9.361-12.073Z" transform="translate(177.036 -470.963)" fill="#1e2020"/>
      </g>
    </g>
  </g>
</svg>
