<svg xmlns="http://www.w3.org/2000/svg" width="163.626" height="177" viewBox="0 0 163.626 177">
  <g id="Group_666" data-name="Group 666" transform="translate(-336 -2179)">
    <g id="Group_321" data-name="Group 321" transform="translate(136.275 1943.182)">
      <path id="Path_435" data-name="Path 435" d="M246.365,259.118a9.073,9.073,0,0,0-10.032-1.374s.378,1.206,6.586,5.327S246.365,259.118,246.365,259.118Z" transform="translate(53.889 30.898)" fill="#fdb171"/>
      <g id="Group_246" data-name="Group 246" transform="translate(247.421 337.707)">
        <g id="Group_236" data-name="Group 236" transform="translate(37.729)">
          <g id="Group_235" data-name="Group 235">
            <g id="Group_234" data-name="Group 234">
              <path id="Path_436" data-name="Path 436" d="M237.671,277.034l4.157,55.505h-.78l-6.767-55.505Z" transform="translate(-234.281 -277.034)" fill="#1e2020"/>
            </g>
          </g>
        </g>
        <g id="Group_239" data-name="Group 239" transform="translate(11.779)">
          <g id="Group_238" data-name="Group 238">
            <g id="Group_237" data-name="Group 237">
              <path id="Path_437" data-name="Path 437" d="M227.949,277.034l-4.166,55.505h.783l6.769-55.505Z" transform="translate(-223.784 -277.034)" fill="#1e2020"/>
            </g>
          </g>
        </g>
        <g id="Group_242" data-name="Group 242" transform="translate(25.958 8.884)">
          <g id="Group_241" data-name="Group 241">
            <g id="Group_240" data-name="Group 240">
              <path id="Path_438" data-name="Path 438" d="M232.9,280.628l4.164,55.5h-.782l-6.762-55.5Z" transform="translate(-229.52 -280.628)" fill="#40291a"/>
            </g>
          </g>
        </g>
        <g id="Group_245" data-name="Group 245" transform="translate(0 8.884)">
          <g id="Group_244" data-name="Group 244">
            <g id="Group_243" data-name="Group 243">
              <path id="Path_439" data-name="Path 439" d="M223.188,280.628l-4.169,55.5h.787l6.766-55.5Z" transform="translate(-219.019 -280.628)" fill="#40291a"/>
            </g>
          </g>
        </g>
      </g>
      <g id="Group_247" data-name="Group 247" transform="translate(241.681 393.837)">
        <path id="Path_440" data-name="Path 440" d="M220.669,305.164s-6.076,6.67-3.2,8.689,12.516-3.609,13.594-6.052c1.567-3.552-.836-8.061-.836-8.061Z" transform="translate(-216.697 -299.74)" fill="#1e2020"/>
      </g>
      <g id="Group_248" data-name="Group 248" transform="translate(256.581 393.837)">
        <path id="Path_441" data-name="Path 441" d="M226.7,305.164s-6.079,6.67-3.2,8.689c2.86,2.015,12.514-3.609,13.6-6.052,1.567-3.552-.836-8.061-.836-8.061Z" transform="translate(-222.724 -299.74)" fill="#1e2020"/>
      </g>
      <g id="Group_249" data-name="Group 249" transform="translate(258.541 342.057)">
        <rect id="Rectangle_48" data-name="Rectangle 48" width="12.794" height="58.185" fill="#003b5e"/>
      </g>
      <g id="Group_250" data-name="Group 250" transform="translate(243.846 353.933)">
        <rect id="Rectangle_49" data-name="Rectangle 49" width="13.393" height="46.31" fill="#003b5e"/>
      </g>
      <g id="Group_251" data-name="Group 251" transform="translate(243.846 353.933)">
        <rect id="Rectangle_50" data-name="Rectangle 50" width="6.693" height="46.31" fill="#004a6e"/>
      </g>
      <g id="Group_252" data-name="Group 252" transform="translate(259.026 353.933)">
        <rect id="Rectangle_51" data-name="Rectangle 51" width="6.696" height="46.31" fill="#004a6e"/>
      </g>
      <g id="Group_262" data-name="Group 262" transform="translate(199.725 319.524)">
        <g id="Group_253" data-name="Group 253" transform="translate(23.608 20.658)">
          <path id="Path_442" data-name="Path 442" d="M212.147,339.093l-2.873,11.578V278.035h2.873Z" transform="translate(-209.274 -278.035)" fill="#40291a"/>
        </g>
        <g id="Group_254" data-name="Group 254" transform="translate(81.271 20.658)">
          <path id="Path_443" data-name="Path 443" d="M232.6,350.671l2.873-11.578V278.035H232.6Z" transform="translate(-232.601 -278.035)" fill="#40291a"/>
        </g>
        <g id="Group_255" data-name="Group 255" transform="translate(18.181 20.658)">
          <rect id="Rectangle_52" data-name="Rectangle 52" width="5.427" height="72.636" fill="#5b361f"/>
        </g>
        <g id="Group_256" data-name="Group 256" transform="translate(75.847 20.658)">
          <rect id="Rectangle_53" data-name="Rectangle 53" width="5.424" height="72.636" fill="#5b361f"/>
        </g>
        <g id="Group_257" data-name="Group 257" transform="translate(10.82 7.983)">
          <rect id="Rectangle_54" data-name="Rectangle 54" width="78.205" height="30.765" fill="#87512e"/>
        </g>
        <g id="Group_258" data-name="Group 258" transform="translate(89.025 7.983)">
          <path id="Path_444" data-name="Path 444" d="M235.737,303.674l4.613-10.427V272.908h-4.613Z" transform="translate(-235.737 -272.908)" fill="#40291a"/>
        </g>
        <g id="Group_259" data-name="Group 259">
          <path id="Path_445" data-name="Path 445" d="M296.91,292.7H199.725l13.309-23.021h91.857Z" transform="translate(-199.725 -269.679)" fill="#40291a"/>
        </g>
        <g id="Group_260" data-name="Group 260" transform="translate(0 23.021)">
          <rect id="Rectangle_55" data-name="Rectangle 55" width="97.185" height="4.811" fill="#5b361f"/>
        </g>
        <g id="Group_261" data-name="Group 261" transform="translate(97.185 0.176)">
          <path id="Path_446" data-name="Path 446" d="M247.019,274.564l-7.981,22.842v-4.811l7.981-22.845Z" transform="translate(-239.038 -269.75)" fill="#40291a"/>
        </g>
      </g>
      <g id="Group_273" data-name="Group 273" transform="translate(246.902 260.623)">
        <g id="Group_263" data-name="Group 263" transform="translate(0 24.214)">
          <path id="Path_447" data-name="Path 447" d="M256.431,255.647s10.427,1.476,10.964,3.948.86,15.475,0,22.787-.114,10.642-5.218,10.533-28.058-1.4-28.058-1.4v-6.23l-5.631-.213-9.678-5.809s7.532-16.016,8.388-17.623,4.3-2.957,10.857-2.771,8.056.727,8.056.727Z" transform="translate(-218.809 -255.647)" fill="#6cc6c8"/>
        </g>
        <g id="Group_264" data-name="Group 264" transform="translate(19.245 25.26)">
          <path id="Path_448" data-name="Path 448" d="M233.738,261.017l-4.887,2.872-2.257-5.644,2.257-2.175S233.068,258.945,233.738,261.017Z" transform="translate(-226.594 -256.07)" fill="#3fb2ac"/>
        </g>
        <g id="Group_265" data-name="Group 265" transform="translate(24.32 17.735)">
          <path id="Path_449" data-name="Path 449" d="M228.647,263.075a10.614,10.614,0,0,1,2.069,2.423s5.706-3.451,6.939-7.268l-1.617-5.2Z" transform="translate(-228.647 -253.026)" fill="#fdb171"/>
        </g>
        <g id="Group_266" data-name="Group 266" transform="translate(26.39 22.354)">
          <path id="Path_450" data-name="Path 450" d="M229.484,262.748l3.925,4.3,7.307-10.294-3.867-1.859Z" transform="translate(-229.484 -254.895)" fill="#3fb2ac"/>
        </g>
        <g id="Group_267" data-name="Group 267" transform="translate(24.32 17.735)">
          <path id="Path_451" data-name="Path 451" d="M236.038,253.026l-7.391,10.049a15.887,15.887,0,0,1,1.226,1.231,24.048,24.048,0,0,0,5.708-5.639,10.2,10.2,0,0,0,1.093-3.587Z" transform="translate(-228.647 -253.026)" fill="#f09c56"/>
        </g>
        <g id="Group_268" data-name="Group 268" transform="translate(15.308 8.692)">
          <path id="Path_452" data-name="Path 452" d="M225.065,250.936c-.289,1.59.485,3.871.806,5s.161,5.322,1.454,7.092,3.706,6.61,5.963,6.128,6.289-4.835,7.1-5.589a6.515,6.515,0,0,0,1.313-5.159,3.523,3.523,0,0,0,.616-1.075,10.865,10.865,0,0,0,.7-3.493c-.052-.845-.433-1.775-1.345-1.184a3.462,3.462,0,0,0-1.132,2.254s-2.942-5.048-6.472-5.372S225.391,249.166,225.065,250.936Z" transform="translate(-225.001 -249.368)" fill="#fdb171"/>
        </g>
        <g id="Group_269" data-name="Group 269" transform="translate(13.735)">
          <path id="Path_453" data-name="Path 453" d="M226.058,258a4.967,4.967,0,0,1-1.56-4.944c.724-3.335,3.748-5.879,6.744-6.848,3.98-1.285,9.74,1.08,11.206,4.346,1.51,3.357.86,4.378.86,7.125,0,0-1.669-.381-1.876,4.084l-.648.428s-3.063-7.038-8.333-7.095S226.214,256.652,226.058,258Z" transform="translate(-224.365 -245.852)"/>
        </g>
        <g id="Group_270" data-name="Group 270" transform="translate(11.905 0.09)">
          <path id="Path_454" data-name="Path 454" d="M227.148,257.946s-3.362-1.483-3.523-6.8c0,0,2.146.3,4.865-3.122s8.924-1.713,8.924-1.713v7.3s-9.033-.294-9.676,1.078A8.341,8.341,0,0,0,227.148,257.946Z" transform="translate(-223.625 -245.888)"/>
        </g>
        <g id="Group_271" data-name="Group 271" transform="translate(9.678 30.206)">
          <path id="Path_455" data-name="Path 455" d="M256.366,258.071a30.882,30.882,0,0,0-6.45,19.559s-5.377,3.117-10.482,3.441-11.08.645-11.08.645l-5.631-.213v-1.293s12.674-.213,14.882-.43,9.082-1.938,9.841-3.869S249.81,262.691,256.366,258.071Z" transform="translate(-222.724 -258.071)" fill="#3fb2ac"/>
        </g>
        <g id="Group_272" data-name="Group 272" transform="translate(8.112 33.08)">
          <path id="Path_456" data-name="Path 456" d="M225.27,259.233l-3.18,19.617L224.41,280Z" transform="translate(-222.09 -259.233)" fill="#3fb2ac"/>
        </g>
      </g>
      <g id="Group_294" data-name="Group 294" transform="translate(225.615 293.773)">
        <g id="Group_274" data-name="Group 274" transform="translate(38.693 30.98)">
          <path id="Path_457" data-name="Path 457" d="M225.85,280.085v.576s.1.455.9,0,14.348-8.074,14.348-8.074a.462.462,0,0,0-.094-.793Z" transform="translate(-225.85 -271.794)" fill="#5b361f"/>
        </g>
        <g id="Group_275" data-name="Group 275" transform="translate(0.349 26.603)">
          <path id="Path_458" data-name="Path 458" d="M247.585,283.1a2.452,2.452,0,0,0,1.194-.227l14.946-8.143c.307-.171.274-.344-.077-.383l-38.2-4.316a2.236,2.236,0,0,0-1.182.257l-13.73,8.1c-.3.18-.262.363.087.4Z" transform="translate(-210.339 -270.023)" fill="#fff"/>
        </g>
        <g id="Group_276" data-name="Group 276" transform="translate(0 0.385)">
          <path id="Path_459" data-name="Path 459" d="M248.891,298.69a.563.563,0,0,1-.638.569L210.836,294.9a.747.747,0,0,1-.638-.719V259.99a.564.564,0,0,1,.638-.568l37.417,4.366a.743.743,0,0,1,.638.719Z" transform="translate(-210.198 -259.418)" fill="#40291a"/>
        </g>
        <g id="Group_277" data-name="Group 277">
          <path id="Path_460" data-name="Path 460" d="M248.891,298.533a.56.56,0,0,1-.638.569l-37.417-4.366a.743.743,0,0,1-.638-.722V259.833a.559.559,0,0,1,.638-.566l37.417,4.363a.742.742,0,0,1,.638.717Z" transform="translate(-210.198 -259.262)" fill="#b4d1d7"/>
        </g>
        <g id="Group_293" data-name="Group 293" transform="translate(14.234 14.358)">
          <g id="Group_278" data-name="Group 278" transform="translate(2.225 1.947)">
            <path id="Path_461" data-name="Path 461" d="M222.005,270.352a2.471,2.471,0,0,0,.381-1.382,3.253,3.253,0,0,0-2.788-3.093,2.394,2.394,0,0,0-2.741,2.457,3.017,3.017,0,0,0,.4,1.488c.756,1.429.91,1.77.925,2.383.017.922.007,1.654.007,1.654l1.476.153,1.468.158s-.017-.734-.015-1.646C221.123,271.915,221.274,271.613,222.005,270.352Z" transform="translate(-216.856 -265.858)" fill="#fff"/>
          </g>
          <g id="Group_279" data-name="Group 279" transform="translate(3.987 10.412)">
            <path id="Path_462" data-name="Path 462" d="M218.622,269.4l-1.053-.114a1.235,1.235,0,0,0,1.061.949.939.939,0,0,0,1.041-.732Z" transform="translate(-217.569 -269.282)" fill="#fff"/>
          </g>
          <g id="Group_280" data-name="Group 280" transform="translate(3.13 8.525)">
            <path id="Path_463" data-name="Path 463" d="M221.017,269.357a.424.424,0,0,1-.482.43l-2.826-.3a.555.555,0,0,1-.487-.536h0a.421.421,0,0,1,.48-.428l2.821.3a.561.561,0,0,1,.494.531Z" transform="translate(-217.222 -268.519)" fill="#fff"/>
          </g>
          <g id="Group_281" data-name="Group 281" transform="translate(3.283 8.535)">
            <path id="Path_464" data-name="Path 464" d="M220.772,269.24a.366.366,0,0,1-.44.339l-2.6-.277a.481.481,0,0,1-.445-.438h0a.366.366,0,0,1,.44-.339l2.6.282a.484.484,0,0,1,.452.433Z" transform="translate(-217.284 -268.523)" fill="#fff"/>
          </g>
          <g id="Group_282" data-name="Group 282" transform="translate(3.137 9.469)">
            <path id="Path_465" data-name="Path 465" d="M221.022,269.734a.418.418,0,0,1-.48.433l-2.833-.3a.553.553,0,0,1-.485-.536h0a.424.424,0,0,1,.48-.43l2.826.3a.563.563,0,0,1,.492.531Z" transform="translate(-217.225 -268.901)" fill="#fff"/>
          </g>
          <g id="Group_283" data-name="Group 283" transform="translate(4.82)">
            <path id="Path_466" data-name="Path 466" d="M218.091,265.072a.223.223,0,0,1,.19.215l.01,1.105a.168.168,0,0,1-.188.168h0a.229.229,0,0,1-.19-.213l-.007-1.107a.16.16,0,0,1,.185-.168Z" transform="translate(-217.906 -265.07)" fill="#fff"/>
          </g>
          <g id="Group_284" data-name="Group 284" transform="translate(2.427 0.337)">
            <path id="Path_467" data-name="Path 467" d="M217.03,265.222a.2.2,0,0,1,.255.1l.554,1.028a.176.176,0,0,1-.067.252h0a.2.2,0,0,1-.255-.1l-.554-1.028a.175.175,0,0,1,.067-.25Z" transform="translate(-216.938 -265.207)" fill="#fff"/>
          </g>
          <g id="Group_285" data-name="Group 285" transform="translate(0.662 1.888)">
            <path id="Path_468" data-name="Path 468" d="M216.249,265.915a.173.173,0,0,1,.255-.044l.957.67a.205.205,0,0,1,.067.27h0a.174.174,0,0,1-.255.042l-.954-.672a.2.2,0,0,1-.069-.265Z" transform="translate(-216.224 -265.834)" fill="#fff"/>
          </g>
          <g id="Group_286" data-name="Group 286" transform="translate(0 4.244)">
            <path id="Path_469" data-name="Path 469" d="M215.956,266.952a.161.161,0,0,1,.188-.163l1.1.124a.217.217,0,0,1,.188.21h0a.162.162,0,0,1-.188.168l-1.1-.124a.215.215,0,0,1-.188-.215Z" transform="translate(-215.956 -266.787)" fill="#fff"/>
          </g>
          <g id="Group_287" data-name="Group 287" transform="translate(0.628 6.3)">
            <path id="Path_470" data-name="Path 470" d="M216.235,268.341a.179.179,0,0,1,.069-.252l.959-.455a.211.211,0,0,1,.26.1h0a.181.181,0,0,1-.069.255l-.959.45a.206.206,0,0,1-.26-.1Z" transform="translate(-216.21 -267.619)" fill="#fff"/>
          </g>
          <g id="Group_288" data-name="Group 288" transform="translate(6.683 0.919)">
            <path id="Path_471" data-name="Path 471" d="M219.479,265.479a.178.178,0,0,0-.257.04l-.539.89a.209.209,0,0,0,.074.267h0a.173.173,0,0,0,.255-.04l.536-.89a.209.209,0,0,0-.069-.267Z" transform="translate(-218.66 -265.442)" fill="#fff"/>
          </g>
          <g id="Group_289" data-name="Group 289" transform="translate(8.072 2.881)">
            <path id="Path_472" data-name="Path 472" d="M220.516,266.348a.207.207,0,0,0-.257-.1l-.942.44a.167.167,0,0,0-.069.245h0a.2.2,0,0,0,.26.1l.947-.438a.18.18,0,0,0,.062-.252Z" transform="translate(-219.221 -266.236)" fill="#fff"/>
          </g>
          <g id="Group_290" data-name="Group 290" transform="translate(8.613 5.23)">
            <path id="Path_473" data-name="Path 473" d="M220.926,267.523a.226.226,0,0,0-.19-.21l-1.105-.126a.169.169,0,0,0-.19.168h0a.229.229,0,0,0,.2.21l1.105.126a.162.162,0,0,0,.185-.168Z" transform="translate(-219.44 -267.186)" fill="#fff"/>
          </g>
          <g id="Group_291" data-name="Group 291" transform="translate(8.165 7.037)">
            <path id="Path_474" data-name="Path 474" d="M220.582,268.874a.2.2,0,0,0-.072-.26l-.972-.66a.173.173,0,0,0-.255.04h0a.2.2,0,0,0,.072.267l.969.655a.173.173,0,0,0,.257-.042Z" transform="translate(-219.259 -267.917)" fill="#fff"/>
          </g>
          <g id="Group_292" data-name="Group 292" transform="translate(3.29 9.479)">
            <path id="Path_475" data-name="Path 475" d="M220.778,269.622a.372.372,0,0,1-.442.341l-2.606-.274a.479.479,0,0,1-.443-.44h0a.365.365,0,0,1,.438-.341l2.6.279a.482.482,0,0,1,.45.435Z" transform="translate(-217.287 -268.905)" fill="#fff"/>
          </g>
        </g>
      </g>
      <g id="Group_314" data-name="Group 314" transform="translate(296.808 235.818)">
        <g id="Group_295" data-name="Group 295" transform="translate(35.457 164.306)">
          <path id="Path_476" data-name="Path 476" d="M256.272,304.439s-5.547,9.943-1.379,10.279c4.225.331,7.683-5.125,7.241-12.434Z" transform="translate(-253.34 -302.283)" fill="#6cc6c8"/>
        </g>
        <g id="Group_296" data-name="Group 296" transform="translate(29.595 16.94)">
          <path id="Path_477" data-name="Path 477" d="M256.546,242.922c1.08,1.236,6.106.524,6.929,5.656s-8.42,3.626-8.42,3.626l-4.086-6.764,1.852-2.771Z" transform="translate(-250.969 -242.67)" fill="#1e2020"/>
        </g>
        <g id="Group_297" data-name="Group 297" transform="translate(22.832 20.576)">
          <path id="Path_478" data-name="Path 478" d="M248.233,244.141a8.412,8.412,0,0,1,2.989,5.671c.007,1.595-2.1,4.2.111,5.891s9.71-3.478,9.71-3.478Z" transform="translate(-248.233 -244.141)" fill="#1e2020"/>
        </g>
        <g id="Group_298" data-name="Group 298" transform="translate(24.812 15.971)">
          <path id="Path_479" data-name="Path 479" d="M250.752,267.369c2.2,1.607,5.443,4.146,5.443,4.146-.25-3.033,4.064-6.42,5.686-10.912a25.788,25.788,0,0,0,.939-10.818c-2.027.559-3.5,1.014-3.72.643-.477-.786-4.232-8.15-4.232-8.15l-5.834,6.375c1.948,2.922,4.539,6.806,1.844,8.012-.467.21-.7,3.473-1.184,3.75C250.411,261.454,248.063,265.411,250.752,267.369Z" transform="translate(-249.034 -242.278)" fill="#fdb171"/>
        </g>
        <g id="Group_299" data-name="Group 299" transform="translate(21.712 0.039)">
          <path id="Path_480" data-name="Path 480" d="M247.78,235.837A12.023,12.023,0,0,1,259,242.487c1.216,2.178,2,6.039,2.24,10.5l-3.013,1.73a30.263,30.263,0,0,1-1.53-3.463,6.178,6.178,0,0,0,1.068-6.954c-1.852-4.18-6.531-5.154-6.531-5.154Z" transform="translate(-247.78 -235.833)" fill="#1e2020"/>
        </g>
        <g id="Group_300" data-name="Group 300" transform="translate(55.378 164.306)">
          <path id="Path_481" data-name="Path 481" d="M267.3,304.439s5.542,9.943,1.377,10.279c-4.217.331-7.683-5.125-7.243-12.434Z" transform="translate(-261.399 -302.283)" fill="#6cc6c8"/>
        </g>
        <g id="Group_301" data-name="Group 301" transform="translate(51.49 119.06)">
          <path id="Path_482" data-name="Path 482" d="M269.032,285.839s.739,14.019.1,20.9-1.666,20.021-1.046,20.988c.608.947,4.24,10.4,2.821,10.778s-6.049-4.057-6.964-8.264-3.236-21.467-2.964-26.758-1.149-19.507-1.149-19.507Z" transform="translate(-259.826 -283.98)" fill="#fdb171"/>
        </g>
        <g id="Group_302" data-name="Group 302" transform="translate(0 36.333)">
          <path id="Path_483" data-name="Path 483" d="M260.731,250.515s-1.164,2.173-.022,10.828c1.1,8.274.2,13.122.2,13.122s-14.63-2.608-18.461-6.084L239,272.333s21.87,14.583,26.577,10.724c3.013-2.467,4.734-22.525,4.734-22.525Z" transform="translate(-238.997 -250.515)" fill="#fdb171"/>
        </g>
        <g id="Group_303" data-name="Group 303" transform="translate(36.733 119.06)">
          <path id="Path_484" data-name="Path 484" d="M256.051,285.839s-.737,14.019-.091,20.9,1.669,20.021,1.046,20.988c-.611.947-4.24,10.4-2.823,10.778s6.049-4.057,6.969-8.264,3.229-21.467,2.959-26.758,1.157-19.507,1.157-19.507Z" transform="translate(-253.856 -283.98)" fill="#fdb171"/>
        </g>
        <g id="Group_304" data-name="Group 304" transform="translate(21.734 21.487)">
          <path id="Path_485" data-name="Path 485" d="M251.527,253.613l-3.738,5.743a29.724,29.724,0,0,0,7.755,11.47c5.582,4.961,7.747,11.478,7.747,13.332s-2.786,13.028-2.165,19.23,2.165,48.685,2.165,48.685H288.1s3.414-43.721,3.1-49.3-.62-19.534-3.725-22.639-4.338-6.82-5.891-15.816-1.728-18.709-8.865-19.643-10.172,2.388-10.172,2.388S261.447,257.336,251.527,253.613Z" transform="translate(-247.789 -244.51)" fill="#003b5e"/>
        </g>
        <g id="Group_305" data-name="Group 305" transform="translate(42.497 22.798)">
          <path id="Path_486" data-name="Path 486" d="M256.49,247.658c-1.995,4.121,6.427,12.162,9.527,14.867s6.3,8.9,6.3,8.9.136,13.255.514,18.6A28.958,28.958,0,0,1,271.5,301c-.633,2.341-1.3,9.577,1.861,7.162s3.822-3.6,4.368-9.2,2.8-24.973,2.475-28.216S262.21,235.874,256.49,247.658Z" transform="translate(-256.188 -245.04)" fill="#fdb171"/>
        </g>
        <g id="Group_313" data-name="Group 313" transform="translate(12.397)">
          <g id="Group_306" data-name="Group 306" transform="translate(0 1.855)">
            <path id="Path_487" data-name="Path 487" d="M247.586,251.942s-3.426-1.874-3.547-5.273c-.079-2.64-.24-7.925,3.718-9.883C252.553,234.434,247.586,251.942,247.586,251.942Z" transform="translate(-244.012 -236.568)" fill="#1e2020"/>
          </g>
          <g id="Group_307" data-name="Group 307" transform="translate(4.035 16.926)">
            <path id="Path_488" data-name="Path 488" d="M245.661,243.806a1.331,1.331,0,0,0,1.125,1.528l1.51.225a1.327,1.327,0,0,0,1.518-1.115h0A1.349,1.349,0,0,0,248.7,242.9l-1.513-.222a1.351,1.351,0,0,0-1.523,1.127Z" transform="translate(-245.644 -242.664)" fill="#003b5e"/>
          </g>
          <g id="Group_308" data-name="Group 308" transform="translate(0.891)">
            <path id="Path_489" data-name="Path 489" d="M244.67,247.773c-.8-4.326-.284-9.287,5.424-11.332A9.951,9.951,0,0,1,262.5,241.41a18.716,18.716,0,0,1,1.533,6.316c.017.749-2.1,3.545-1.911,5.8C262.318,255.8,244.67,247.773,244.67,247.773Z" transform="translate(-244.373 -235.818)" fill="#1e2020"/>
          </g>
          <g id="Group_309" data-name="Group 309" transform="translate(12.484 14.398)">
            <path id="Path_490" data-name="Path 490" d="M254.518,241.654a26.9,26.9,0,0,0,1.822,4.512c-.326.428-.865,1.251-1.3,1.76a18.057,18.057,0,0,1-5.975,4.734s.178-.742.465-1.839l4.929-9.179A.23.23,0,0,0,254.518,241.654Z" transform="translate(-249.062 -241.642)" fill="#f09c56"/>
          </g>
          <g id="Group_310" data-name="Group 310" transform="translate(1.183 6.436)">
            <path id="Path_491" data-name="Path 491" d="M261.506,246.475c.007,1.325.368,3.008-1,5.221-1.362,2.23-3.72,5.352-4.714,5.705-.964.346-1.634.9-4.017-1.053s-3.9-2.722-4.912-5.233S243,243.78,245.47,240.72c1.822-2.267,5.886-2.957,8.627-1.622,2.769,1.345,3.08,2.1,4.969,5.112,0,0,.883-2.86,1.518-3.2s1.365-.111,1.478,1.424c.111,1.518-.3,1.416-.1,2.136.208.739.386,1.466.121,1.852C261.746,246.9,261.506,246.475,261.506,246.475Z" transform="translate(-244.491 -238.421)" fill="#fdb171"/>
          </g>
          <g id="Group_311" data-name="Group 311" transform="translate(3.085 3.286)">
            <path id="Path_492" data-name="Path 492" d="M245.26,241.661s6.712,5.859,12.85,5.006l-.173-7.473-6.684-2.047Z" transform="translate(-245.26 -237.147)" fill="#1e2020"/>
          </g>
          <g id="Group_312" data-name="Group 312" transform="translate(0.191 5.333)">
            <path id="Path_493" data-name="Path 493" d="M248.192,240.3s-.949,4.939-2.895,7.038c0,0-2.556-5.523-.232-9.364Z" transform="translate(-244.089 -237.975)" fill="#1e2020"/>
          </g>
        </g>
      </g>
      <g id="Group_315" data-name="Group 315" transform="translate(275.924 239.507)">
        <path id="Path_494" data-name="Path 494" d="M257.467,246.5c0,5.075-6.022,9.189-13.458,9.189s-13.46-4.113-13.46-9.189,6.027-9.186,13.46-9.186S257.467,241.426,257.467,246.5Z" transform="translate(-230.549 -237.31)" fill="#b4d1d7"/>
      </g>
      <g id="Group_316" data-name="Group 316" transform="translate(297.528 251.994)">
        <path id="Path_495" data-name="Path 495" d="M251.96,249.906h0l-12.672-4.114,2.342-3.43Z" transform="translate(-239.288 -242.361)" fill="#b4d1d7"/>
      </g>
      <g id="Group_320" data-name="Group 320" transform="translate(282.055 246.893)">
        <g id="Group_317" data-name="Group 317">
          <path id="Path_496" data-name="Path 496" d="M236.631,242.1a1.8,1.8,0,1,1-1.8-1.8A1.8,1.8,0,0,1,236.631,242.1Z" transform="translate(-233.029 -240.298)" fill="#fff"/>
        </g>
        <g id="Group_318" data-name="Group 318" transform="translate(5.105)">
          <path id="Path_497" data-name="Path 497" d="M238.693,242.1a1.8,1.8,0,1,1-1.8-1.8A1.8,1.8,0,0,1,238.693,242.1Z" transform="translate(-235.094 -240.298)" fill="#fff"/>
        </g>
        <g id="Group_319" data-name="Group 319" transform="translate(10.207)">
          <path id="Path_498" data-name="Path 498" d="M240.757,242.1a1.8,1.8,0,1,1-1.8-1.8A1.8,1.8,0,0,1,240.757,242.1Z" transform="translate(-237.158 -240.298)" fill="#fff"/>
        </g>
      </g>
    </g>
  </g>
</svg>
